<svg xmlns="http://www.w3.org/2000/svg" id="pcb-stackup_bottom" fill-rule="evenodd" stroke-width="0" stroke-linecap="round" stroke-linejoin="round" xmlns:xlink="http://www.w3.org/1999/xlink" clip-rule="evenodd" viewBox="1416 466 2875.59 2480.49"><defs><style>.pcb-stackup_fr4 {color: #4D542C;} .pcb-stackup_cu {color: lightgrey;} .pcb-stackup_cf {color: goldenrod;} .pcb-stackup_sm {color: #2E0051; opacity: 0.9;} .pcb-stackup_ss {color: white;} .pcb-stackup_sp {color: #000000; opacity: 0;} .pcb-stackup_out {color: black;}</style><path id="r1-HnX1jo-_pad-10" d="M-78.125-78.125h156.25v156.25h-156.25z"/><circle id="r1-HnX1jo-_pad-11" r="13.5"/><circle id="r1-HnX1jo-_pad-12" r="63.305"/><path id="r1-HnX1jo-_pad-10" d="M-78.125-78.125h156.25v156.25h-156.25z"/><circle id="r1-HnX1jo-_pad-11" r="13.5"/><circle id="r1-HnX1jo-_pad-12" r="63.305"/><path id="r1-HnX1jo-_pad-10" d="M-78.125-78.125h156.25v156.25h-156.25z"/><circle id="r1-HnX1jo-_pad-11" r="13.5"/><circle id="r1-HnX1jo-_pad-12" r="63.305"/><path id="r1-HnX1jo-_pad-10" d="M-78.125-78.125h156.25v156.25h-156.25z"/><circle id="r1-HnX1jo-_pad-11" r="13.5"/><circle id="r1-HnX1jo-_pad-12" r="63.305"/><circle id="ry7H2QJosW_pad-10" r="66.305"/><circle id="ry7H2QJosW_pad-11" r="30.56"/><circle id="ry7H2QJosW_pad-12" r="16.5"/><path id="r1-HnX1jo-_pad-10" d="M-78.125-78.125h156.25v156.25h-156.25z"/><circle id="r1-HnX1jo-_pad-11" r="13.5"/><circle id="r1-HnX1jo-_pad-12" r="63.305"/><path id="r1-HnX1jo-_pad-10" d="M-78.125-78.125h156.25v156.25h-156.25z"/><circle id="r1-HnX1jo-_pad-11" r="13.5"/><circle id="r1-HnX1jo-_pad-12" r="63.305"/><path id="r1-HnX1jo-_pad-10" d="M-78.125-78.125h156.25v156.25h-156.25z"/><circle id="r1-HnX1jo-_pad-11" r="13.5"/><circle id="r1-HnX1jo-_pad-12" r="63.305"/><path id="r1-HnX1jo-_pad-10" d="M-78.125-78.125h156.25v156.25h-156.25z"/><circle id="r1-HnX1jo-_pad-11" r="13.5"/><circle id="r1-HnX1jo-_pad-12" r="63.305"/><circle id="ry7H2QJosW_pad-10" r="66.305"/><circle id="ry7H2QJosW_pad-11" r="30.56"/><circle id="ry7H2QJosW_pad-12" r="16.5"/><circle id="r14S3m1jsW_pad-1" r="6.5"/><circle id="r14S3m1jsW_pad-2" r="27.55"/><circle id="r14S3m1jsW_pad-3" r="43.3"/><path id="r1-HnX1jo-_pad-10" d="M-78.125-78.125h156.25v156.25h-156.25z"/><circle id="r1-HnX1jo-_pad-11" r="13.5"/><circle id="r1-HnX1jo-_pad-12" r="63.305"/><path id="r1-HnX1jo-_pad-10" d="M-78.125-78.125h156.25v156.25h-156.25z"/><circle id="r1-HnX1jo-_pad-11" r="13.5"/><circle id="r1-HnX1jo-_pad-12" r="63.305"/><path id="r1-HnX1jo-_pad-10" d="M-78.125-78.125h156.25v156.25h-156.25z"/><circle id="r1-HnX1jo-_pad-11" r="13.5"/><circle id="r1-HnX1jo-_pad-12" r="63.305"/><path id="r1-HnX1jo-_pad-10" d="M-78.125-78.125h156.25v156.25h-156.25z"/><circle id="r1-HnX1jo-_pad-11" r="13.5"/><circle id="r1-HnX1jo-_pad-12" r="63.305"/><circle id="ry7H2QJosW_pad-10" r="66.305"/><circle id="ry7H2QJosW_pad-11" r="30.56"/><circle id="ry7H2QJosW_pad-12" r="16.5"/><path id="r1-HnX1jo-_pad-10" d="M-78.125-78.125h156.25v156.25h-156.25z"/><circle id="r1-HnX1jo-_pad-11" r="13.5"/><circle id="r1-HnX1jo-_pad-12" r="63.305"/><path id="r1-HnX1jo-_pad-10" d="M-78.125-78.125h156.25v156.25h-156.25z"/><circle id="r1-HnX1jo-_pad-11" r="13.5"/><circle id="r1-HnX1jo-_pad-12" r="63.305"/><path id="r1-HnX1jo-_pad-10" d="M-78.125-78.125h156.25v156.25h-156.25z"/><circle id="r1-HnX1jo-_pad-11" r="13.5"/><circle id="r1-HnX1jo-_pad-12" r="63.305"/><path id="r1-HnX1jo-_pad-10" d="M-78.125-78.125h156.25v156.25h-156.25z"/><circle id="r1-HnX1jo-_pad-11" r="13.5"/><circle id="r1-HnX1jo-_pad-12" r="63.305"/><circle id="ry7H2QJosW_pad-10" r="66.305"/><circle id="ry7H2QJosW_pad-11" r="30.56"/><circle id="ry7H2QJosW_pad-12" r="16.5"/><circle id="r14S3m1jsW_pad-1" r="6.5"/><circle id="r14S3m1jsW_pad-2" r="27.55"/><circle id="r14S3m1jsW_pad-3" r="43.3"/><g id="pcb-stackup_bottom_cu"><use x="3378.5" y="1403.5" xlink:href="#r1-HnX1jo-_pad-10"/><use x="3398.19" y="1383.81" xlink:href="#r1-HnX1jo-_pad-11"/><use x="3398.19" y="1344.44" xlink:href="#r1-HnX1jo-_pad-11"/><use x="3437.56" y="1344.44" xlink:href="#r1-HnX1jo-_pad-11"/><use x="3437.56" y="1383.81" xlink:href="#r1-HnX1jo-_pad-11"/><use x="3437.56" y="1423.19" xlink:href="#r1-HnX1jo-_pad-11"/><use x="3437.56" y="1462.56" xlink:href="#r1-HnX1jo-_pad-11"/><use x="3398.19" y="1462.56" xlink:href="#r1-HnX1jo-_pad-11"/><use x="3358.81" y="1462.56" xlink:href="#r1-HnX1jo-_pad-11"/><use x="3319.44" y="1462.56" xlink:href="#r1-HnX1jo-_pad-11"/><use x="3319.44" y="1423.19" xlink:href="#r1-HnX1jo-_pad-11"/><use x="3319.44" y="1383.81" xlink:href="#r1-HnX1jo-_pad-11"/><use x="3319.44" y="1344.44" xlink:href="#r1-HnX1jo-_pad-11"/><use x="3358.81" y="1344.44" xlink:href="#r1-HnX1jo-_pad-11"/><use x="3358.81" y="1383.81" xlink:href="#r1-HnX1jo-_pad-11"/><use x="3358.81" y="1423.19" xlink:href="#r1-HnX1jo-_pad-11"/><use x="3398.19" y="1423.19" xlink:href="#r1-HnX1jo-_pad-11"/><use x="3486" y="1581" xlink:href="#r1-HnX1jo-_pad-11"/><use x="3526" y="1551" xlink:href="#r1-HnX1jo-_pad-11"/><use x="3526" y="1616" xlink:href="#r1-HnX1jo-_pad-11"/><use x="3436" y="1611" xlink:href="#r1-HnX1jo-_pad-11"/><use x="3396" y="1596" xlink:href="#r1-HnX1jo-_pad-11"/><use x="3426" y="1661" xlink:href="#r1-HnX1jo-_pad-11"/><use x="3281" y="1591" xlink:href="#r1-HnX1jo-_pad-11"/><use x="3191" y="1431" xlink:href="#r1-HnX1jo-_pad-11"/><use x="3156" y="1411" xlink:href="#r1-HnX1jo-_pad-11"/><use x="3176" y="1381" xlink:href="#r1-HnX1jo-_pad-11"/><use x="3196" y="1351" xlink:href="#r1-HnX1jo-_pad-11"/><use x="3016" y="1411" xlink:href="#r1-HnX1jo-_pad-11"/><use x="2896" y="1271" xlink:href="#r1-HnX1jo-_pad-11"/><use x="2716" y="1411" xlink:href="#r1-HnX1jo-_pad-11"/><use x="2701" y="1451" xlink:href="#r1-HnX1jo-_pad-11"/><use x="2596" y="1376" xlink:href="#r1-HnX1jo-_pad-11"/><use x="2426" y="1426" xlink:href="#r1-HnX1jo-_pad-11"/><use x="2421" y="1466" xlink:href="#r1-HnX1jo-_pad-11"/><use x="2421" y="1571" xlink:href="#r1-HnX1jo-_pad-11"/><use x="2416" y="1606" xlink:href="#r1-HnX1jo-_pad-11"/><use x="2471" y="1666" xlink:href="#r1-HnX1jo-_pad-11"/><use x="2496" y="1641" xlink:href="#r1-HnX1jo-_pad-11"/><use x="2596" y="1711" xlink:href="#r1-HnX1jo-_pad-11"/><use x="2631" y="1731" xlink:href="#r1-HnX1jo-_pad-11"/><use x="2621" y="1771" xlink:href="#r1-HnX1jo-_pad-11"/><use x="2541" y="1821" xlink:href="#r1-HnX1jo-_pad-11"/><use x="2456" y="1861" xlink:href="#r1-HnX1jo-_pad-11"/><use x="2411" y="1931" xlink:href="#r1-HnX1jo-_pad-11"/><use x="2326" y="1816" xlink:href="#r1-HnX1jo-_pad-11"/><use x="2286" y="1746" xlink:href="#r1-HnX1jo-_pad-11"/><use x="2261" y="1716" xlink:href="#r1-HnX1jo-_pad-11"/><use x="2226" y="1691" xlink:href="#r1-HnX1jo-_pad-11"/><use x="2186" y="1691" xlink:href="#r1-HnX1jo-_pad-11"/><use x="2171" y="1721" xlink:href="#r1-HnX1jo-_pad-11"/><use x="2151" y="1691" xlink:href="#r1-HnX1jo-_pad-11"/><use x="2126" y="1661" xlink:href="#r1-HnX1jo-_pad-11"/><use x="2056" y="1671" xlink:href="#r1-HnX1jo-_pad-11"/><use x="2056" y="1721" xlink:href="#r1-HnX1jo-_pad-11"/><use x="2071" y="1751" xlink:href="#r1-HnX1jo-_pad-11"/><use x="2021" y="1746" xlink:href="#r1-HnX1jo-_pad-11"/><use x="1986" y="1746" xlink:href="#r1-HnX1jo-_pad-11"/><use x="1956" y="1731" xlink:href="#r1-HnX1jo-_pad-11"/><use x="1921" y="1736" xlink:href="#r1-HnX1jo-_pad-11"/><use x="1886" y="1736" xlink:href="#r1-HnX1jo-_pad-11"/><use x="1856" y="1751" xlink:href="#r1-HnX1jo-_pad-11"/><use x="1841" y="1686" xlink:href="#r1-HnX1jo-_pad-11"/><use x="1866" y="1661" xlink:href="#r1-HnX1jo-_pad-11"/><use x="1841" y="1636" xlink:href="#r1-HnX1jo-_pad-11"/><use x="1816" y="1611" xlink:href="#r1-HnX1jo-_pad-11"/><use x="1801" y="1581" xlink:href="#r1-HnX1jo-_pad-11"/><use x="1671" y="1616" xlink:href="#r1-HnX1jo-_pad-11"/><use x="1546" y="1616" xlink:href="#r1-HnX1jo-_pad-11"/><use x="1546" y="1581" xlink:href="#r1-HnX1jo-_pad-11"/><use x="1546" y="1651" xlink:href="#r1-HnX1jo-_pad-11"/><use x="1566" y="1766" xlink:href="#r1-HnX1jo-_pad-11"/><use x="1656" y="1911" xlink:href="#r1-HnX1jo-_pad-11"/><use x="1666" y="1946" xlink:href="#r1-HnX1jo-_pad-11"/><use x="1676" y="1981" xlink:href="#r1-HnX1jo-_pad-11"/><use x="1696" y="2011" xlink:href="#r1-HnX1jo-_pad-11"/><use x="1716" y="2041" xlink:href="#r1-HnX1jo-_pad-11"/><use x="1611" y="1946" xlink:href="#r1-HnX1jo-_pad-11"/><use x="1581" y="1926" xlink:href="#r1-HnX1jo-_pad-11"/><use x="1666" y="2196" xlink:href="#r1-HnX1jo-_pad-11"/><use x="1721" y="2276" xlink:href="#r1-HnX1jo-_pad-11"/><use x="1751" y="2261" xlink:href="#r1-HnX1jo-_pad-11"/><use x="1781" y="2246" xlink:href="#r1-HnX1jo-_pad-11"/><use x="1811" y="2231" xlink:href="#r1-HnX1jo-_pad-11"/><use x="1841" y="2216" xlink:href="#r1-HnX1jo-_pad-11"/><use x="1961" y="2246" xlink:href="#r1-HnX1jo-_pad-11"/><use x="1971" y="2201" xlink:href="#r1-HnX1jo-_pad-11"/><use x="2006" y="2221" xlink:href="#r1-HnX1jo-_pad-11"/><use x="1961" y="2116" xlink:href="#r1-HnX1jo-_pad-11"/><use x="1981" y="2026" xlink:href="#r1-HnX1jo-_pad-11"/><use x="2006" y="2001" xlink:href="#r1-HnX1jo-_pad-11"/><use x="2006" y="1961" xlink:href="#r1-HnX1jo-_pad-11"/><use x="2086" y="1926" xlink:href="#r1-HnX1jo-_pad-11"/><use x="2021" y="1856" xlink:href="#r1-HnX1jo-_pad-11"/><use x="1921" y="1856" xlink:href="#r1-HnX1jo-_pad-11"/><use x="1906" y="1906" xlink:href="#r1-HnX1jo-_pad-11"/><use x="1871" y="1906" xlink:href="#r1-HnX1jo-_pad-11"/><use x="1856" y="1856" xlink:href="#r1-HnX1jo-_pad-11"/><use x="1966" y="1641" xlink:href="#r1-HnX1jo-_pad-11"/><use x="2006" y="1431" xlink:href="#r1-HnX1jo-_pad-11"/><use x="1981" y="1406" xlink:href="#r1-HnX1jo-_pad-11"/><use x="1956" y="1381" xlink:href="#r1-HnX1jo-_pad-11"/><use x="1931" y="1356" xlink:href="#r1-HnX1jo-_pad-11"/><use x="1906" y="1331" xlink:href="#r1-HnX1jo-_pad-11"/><use x="1831" y="1286" xlink:href="#r1-HnX1jo-_pad-11"/><use x="1806" y="1311" xlink:href="#r1-HnX1jo-_pad-11"/><use x="1856" y="1261" xlink:href="#r1-HnX1jo-_pad-11"/><use x="1941" y="1246" xlink:href="#r1-HnX1jo-_pad-11"/><use x="1891" y="1136" xlink:href="#r1-HnX1jo-_pad-11"/><use x="1861" y="1121" xlink:href="#r1-HnX1jo-_pad-11"/><use x="1826" y="1121" xlink:href="#r1-HnX1jo-_pad-11"/><use x="1781" y="1126" xlink:href="#r1-HnX1jo-_pad-11"/><use x="1926" y="1046" xlink:href="#r1-HnX1jo-_pad-11"/><use x="1986" y="1046" xlink:href="#r1-HnX1jo-_pad-11"/><use x="2006" y="1126" xlink:href="#r1-HnX1jo-_pad-11"/><use x="2101" y="1136" xlink:href="#r1-HnX1jo-_pad-11"/><use x="2136" y="1136" xlink:href="#r1-HnX1jo-_pad-11"/><use x="2171" y="1136" xlink:href="#r1-HnX1jo-_pad-11"/><use x="2186" y="1106" xlink:href="#r1-HnX1jo-_pad-11"/><use x="2226" y="1106" xlink:href="#r1-HnX1jo-_pad-11"/><use x="2281" y="1131" xlink:href="#r1-HnX1jo-_pad-11"/><use x="2326" y="1131" xlink:href="#r1-HnX1jo-_pad-11"/><use x="2331" y="1196" xlink:href="#r1-HnX1jo-_pad-11"/><use x="2156" y="1241" xlink:href="#r1-HnX1jo-_pad-11"/><use x="2281" y="1386" xlink:href="#r1-HnX1jo-_pad-11"/><use x="2131" y="1436" xlink:href="#r1-HnX1jo-_pad-11"/><use x="2276" y="1551" xlink:href="#r1-HnX1jo-_pad-11"/><use x="2231" y="1636" xlink:href="#r1-HnX1jo-_pad-11"/><use x="2191" y="2006" xlink:href="#r1-HnX1jo-_pad-11"/><use x="2161" y="2026" xlink:href="#r1-HnX1jo-_pad-11"/><use x="2136" y="2051" xlink:href="#r1-HnX1jo-_pad-11"/><use x="2191" y="2081" xlink:href="#r1-HnX1jo-_pad-11"/><use x="2121" y="2116" xlink:href="#r1-HnX1jo-_pad-11"/><use x="2206" y="2216" xlink:href="#r1-HnX1jo-_pad-11"/><use x="2211" y="2266" xlink:href="#r1-HnX1jo-_pad-11"/><use x="2156" y="2271" xlink:href="#r1-HnX1jo-_pad-11"/><use x="2121" y="2271" xlink:href="#r1-HnX1jo-_pad-11"/><use x="2121" y="2346" xlink:href="#r1-HnX1jo-_pad-11"/><use x="2116" y="2526" xlink:href="#r1-HnX1jo-_pad-11"/><use x="2086" y="2541" xlink:href="#r1-HnX1jo-_pad-11"/><use x="2041" y="2531" xlink:href="#r1-HnX1jo-_pad-11"/><use x="2001" y="2546" xlink:href="#r1-HnX1jo-_pad-11"/><use x="1971" y="2526" xlink:href="#r1-HnX1jo-_pad-11"/><use x="1941" y="2546" xlink:href="#r1-HnX1jo-_pad-11"/><use x="1911" y="2526" xlink:href="#r1-HnX1jo-_pad-11"/><use x="1866" y="2506" xlink:href="#r1-HnX1jo-_pad-11"/><use x="1846" y="2546" xlink:href="#r1-HnX1jo-_pad-11"/><use x="1811" y="2521" xlink:href="#r1-HnX1jo-_pad-11"/><use x="1786" y="2546" xlink:href="#r1-HnX1jo-_pad-11"/><use x="2151" y="2541" xlink:href="#r1-HnX1jo-_pad-11"/><use x="2186" y="2541" xlink:href="#r1-HnX1jo-_pad-11"/><use x="2221" y="2546" xlink:href="#r1-HnX1jo-_pad-11"/><use x="2461" y="2396" xlink:href="#r1-HnX1jo-_pad-11"/><use x="2496" y="2256" xlink:href="#r1-HnX1jo-_pad-11"/><use x="2381" y="2116" xlink:href="#r1-HnX1jo-_pad-11"/><use x="2351" y="2101" xlink:href="#r1-HnX1jo-_pad-11"/><use x="2321" y="2116" xlink:href="#r1-HnX1jo-_pad-11"/><use x="2261" y="2206" xlink:href="#r1-HnX1jo-_pad-11"/><use x="2591" y="2091" xlink:href="#r1-HnX1jo-_pad-11"/><use x="2606" y="2061" xlink:href="#r1-HnX1jo-_pad-11"/><use x="2651" y="2151" xlink:href="#r1-HnX1jo-_pad-11"/><use x="2766" y="2046" xlink:href="#r1-HnX1jo-_pad-11"/><use x="2806" y="1896" xlink:href="#r1-HnX1jo-_pad-11"/><use x="2891" y="1691" xlink:href="#r1-HnX1jo-_pad-11"/><use x="3026" y="1636" xlink:href="#r1-HnX1jo-_pad-11"/><use x="3096" y="1591" xlink:href="#r1-HnX1jo-_pad-11"/><use x="3206" y="1866" xlink:href="#r1-HnX1jo-_pad-11"/><use x="3076" y="1901" xlink:href="#r1-HnX1jo-_pad-11"/><use x="3316" y="2016" xlink:href="#r1-HnX1jo-_pad-11"/><use x="3310.13" y="2060.13" xlink:href="#r1-HnX1jo-_pad-11"/><use x="3291" y="2111" xlink:href="#r1-HnX1jo-_pad-11"/><use x="3311" y="2156" xlink:href="#r1-HnX1jo-_pad-11"/><use x="3261" y="2211" xlink:href="#r1-HnX1jo-_pad-11"/><use x="3231" y="2336" xlink:href="#r1-HnX1jo-_pad-11"/><use x="3131" y="2336" xlink:href="#r1-HnX1jo-_pad-11"/><use x="3031" y="2336" xlink:href="#r1-HnX1jo-_pad-11"/><use x="2931" y="2336" xlink:href="#r1-HnX1jo-_pad-11"/><use x="2826" y="2381" xlink:href="#r1-HnX1jo-_pad-11"/><use x="2766" y="2421" xlink:href="#r1-HnX1jo-_pad-11"/><use x="2821" y="2511" xlink:href="#r1-HnX1jo-_pad-11"/><use x="2921" y="2511" xlink:href="#r1-HnX1jo-_pad-11"/><use x="3021" y="2511" xlink:href="#r1-HnX1jo-_pad-11"/><use x="3121" y="2511" xlink:href="#r1-HnX1jo-_pad-11"/><use x="3221" y="2511" xlink:href="#r1-HnX1jo-_pad-11"/><use x="3321" y="2511" xlink:href="#r1-HnX1jo-_pad-11"/><use x="3331" y="2336" xlink:href="#r1-HnX1jo-_pad-11"/><use x="3571" y="2291" xlink:href="#r1-HnX1jo-_pad-11"/><use x="3656" y="2111" xlink:href="#r1-HnX1jo-_pad-11"/><use x="3656" y="2016" xlink:href="#r1-HnX1jo-_pad-11"/><use x="3761" y="2211" xlink:href="#r1-HnX1jo-_pad-11"/><use x="3776" y="2426" xlink:href="#r1-HnX1jo-_pad-11"/><use x="3956" y="2306" xlink:href="#r1-HnX1jo-_pad-11"/><use x="3526" y="1831" xlink:href="#r1-HnX1jo-_pad-11"/><use x="3561" y="1441" xlink:href="#r1-HnX1jo-_pad-11"/><use x="3601" y="1366" xlink:href="#r1-HnX1jo-_pad-11"/><use x="3631" y="1336" xlink:href="#r1-HnX1jo-_pad-11"/><use x="3581" y="1271" xlink:href="#r1-HnX1jo-_pad-11"/><use x="3556" y="1301" xlink:href="#r1-HnX1jo-_pad-11"/><use x="3516" y="1226" xlink:href="#r1-HnX1jo-_pad-11"/><use x="3416" y="1166" xlink:href="#r1-HnX1jo-_pad-11"/><use x="3311" y="1111" xlink:href="#r1-HnX1jo-_pad-11"/><use x="3276" y="1161" xlink:href="#r1-HnX1jo-_pad-11"/><use x="3136" y="1046" xlink:href="#r1-HnX1jo-_pad-11"/><use x="3016" y="1001" xlink:href="#r1-HnX1jo-_pad-11"/><use x="2631" y="966" xlink:href="#r1-HnX1jo-_pad-11"/><use x="2581" y="1201" xlink:href="#r1-HnX1jo-_pad-11"/><use x="2386" y="941" xlink:href="#r1-HnX1jo-_pad-11"/><use x="2306" y="961" xlink:href="#r1-HnX1jo-_pad-11"/><use x="2291" y="896" xlink:href="#r1-HnX1jo-_pad-11"/><use x="2171" y="1001" xlink:href="#r1-HnX1jo-_pad-11"/><use x="2121" y="1041" xlink:href="#r1-HnX1jo-_pad-11"/><use x="2056" y="961" xlink:href="#r1-HnX1jo-_pad-11"/><use x="2016" y="956" xlink:href="#r1-HnX1jo-_pad-11"/><use x="1911" y="971" xlink:href="#r1-HnX1jo-_pad-11"/><use x="1896" y="941" xlink:href="#r1-HnX1jo-_pad-11"/><use x="1836" y="966" xlink:href="#r1-HnX1jo-_pad-11"/><use x="1701" y="941" xlink:href="#r1-HnX1jo-_pad-11"/><use x="1691" y="1301" xlink:href="#r1-HnX1jo-_pad-11"/><use x="1616" y="1431" xlink:href="#r1-HnX1jo-_pad-11"/><use x="1651" y="1456" xlink:href="#r1-HnX1jo-_pad-11"/><use x="1531" y="1386" xlink:href="#r1-HnX1jo-_pad-11"/><use x="2156" y="931" xlink:href="#r1-HnX1jo-_pad-11"/><use x="2291" y="786" xlink:href="#r1-HnX1jo-_pad-11"/><use x="2326" y="786" xlink:href="#r1-HnX1jo-_pad-11"/><use x="3421" y="786" xlink:href="#r1-HnX1jo-_pad-11"/><use x="3611" y="896" xlink:href="#r1-HnX1jo-_pad-11"/><use x="3631" y="861" xlink:href="#r1-HnX1jo-_pad-11"/><use x="3671" y="861" xlink:href="#r1-HnX1jo-_pad-11"/><use x="3671" y="826" xlink:href="#r1-HnX1jo-_pad-11"/><use x="3701" y="901" xlink:href="#r1-HnX1jo-_pad-11"/><use x="3661" y="926" xlink:href="#r1-HnX1jo-_pad-11"/><use x="3676" y="956" xlink:href="#r1-HnX1jo-_pad-11"/><use x="3721" y="981" xlink:href="#r1-HnX1jo-_pad-11"/><use x="3756" y="951" xlink:href="#r1-HnX1jo-_pad-11"/><use x="3806" y="906" xlink:href="#r1-HnX1jo-_pad-11"/><use x="3871" y="911" xlink:href="#r1-HnX1jo-_pad-11"/><use x="3851" y="721" xlink:href="#r1-HnX1jo-_pad-11"/><use x="3746" y="601" xlink:href="#r1-HnX1jo-_pad-11"/><use x="3741" y="561" xlink:href="#r1-HnX1jo-_pad-11"/><use x="3681" y="586" xlink:href="#r1-HnX1jo-_pad-11"/><use x="3571" y="981" xlink:href="#r1-HnX1jo-_pad-11"/><use x="3526" y="1106" xlink:href="#r1-HnX1jo-_pad-11"/><use x="3731" y="1181" xlink:href="#r1-HnX1jo-_pad-11"/><use x="3736" y="1401" xlink:href="#r1-HnX1jo-_pad-11"/><use x="3066" y="2236" xlink:href="#r1-HnX1jo-_pad-11"/><use x="2841" y="2241" xlink:href="#r1-HnX1jo-_pad-11"/><use x="3916" y="2666" xlink:href="#r1-HnX1jo-_pad-12"/><use x="3916" y="566" xlink:href="#r1-HnX1jo-_pad-12"/><use x="1516" y="566" xlink:href="#r1-HnX1jo-_pad-12"/><use x="1516" y="2666" xlink:href="#r1-HnX1jo-_pad-12"/><path fill="none" stroke-width="12" d="M1443 2624.41V607.59l15.88 21.85 30.74 17.75 35.3 3.71 33.76-10.97 26.39-23.75 14.43-32.43v-35.5l-14.43-32.43-25.35-22.82h2315.71l-16.55 9.56-20.87 28.72-7.38 34.72 7.38 34.72 20.87 28.72 30.74 17.75 35.3 3.71 33.76-10.97 26.39-23.75 3.93-8.84v2017.32l-3.93-8.84-26.38-23.75-33.77-10.97-35.3 3.71-30.74 17.75-20.87 28.72-7.38 34.72 7.38 34.72 20.87 28.72 16.55 9.56H1559.72l25.35-22.82 14.43-32.43v-35.5l-14.43-32.43-26.38-23.75-33.77-10.97-35.3 3.71-30.74 17.75-15.88 21.85m0-1.09h.79m-.79-11.98h9.5m-9.5-11.99h21.43m20.76-11.98H1443m0-11.99h2546m0 11.99h-44.79m22.56 11.98H3989m0 11.99h-8.92m8.32 11.98h.6m0-59.93H2239.67m2.95-2.95l-7.18 7.18-9.37 3.88h-10.14l-9.37-3.88-5.56-5.56-.56.56-9.37 3.88h-10.14l-9.37-3.88-3.06-3.06-3.06 3.06-9.37 3.88h-10.14l-9.37-3.88-7.18-7.18-2.61-6.3-5.7 2.36h-10.14l-1.43-.59-1.88 4.53-7.18 7.18-9.37 3.88h-10.14l-9.37-3.88-7.18-7.18-3.88-9.37v-10.14l3.88-9.37 5.62-5.62v-13.31l-45.63-45.63-9.37-9.37v-207.76l-3.93 1.63h-10.14l-9.37-3.88-7.18-7.18-3.88-9.37v-1.4l-4.43 1.83h-10.14l-9.37-3.88-7.18-7.18-3.88-9.37v-10.14l3.88-9.37 7.18-7.18 9.37-3.88h7.94l11.13-11.13v-111.74l-1.13-1.13h-7.94l-9.37-3.88-7.18-7.18-3.88-9.37v-10.14l3.88-9.37 7.18-7.18 9.37-3.88h4.57v-4.57l3.88-9.37 7.18-7.18 9.37-3.88h10.14l3.93 1.63v-96.01l-3-1.25v37.76l-9.37 9.37-60.63 60.63v276.74l40 40v170l35 35v16.57l5.62 5.62 3.88 9.37v10.14l-3.88 9.37-7.18 7.18-9.37 3.88h-10.14l-9.37-3.88-7.18-7.18-3.7-8.94h-9.36l-3.7 8.94-7.18 7.18-9.37 3.88h-10.14l-9.37-3.88-7.18-7.18-3.7-8.94h-9.75l-9.37-3.88-7.18-7.18-3.88-9.37v-8.51l-5.06 5.06-9.37 3.88h-3.51l.06.06 3.88 9.37v10.14l-3.88 9.37-7.18 7.18-9.37 3.88h-10.14l-9.37-3.88-7.18-7.18-3.88-9.37v-6.4l-4.43 1.83h-4.57v4.57l-3.88 9.37-7.18 7.18-9.37 3.88h-10.14l-9.37-3.88-7.18-7.18-3.88-9.37v-7.94l-6.13-6.13h-60l-195-195-9.37-9.37v-718.26l30.5-30.5v-7.94l3.88-9.37 7.18-7.18 9.37-3.88h10.14l9.37 3.88 7.18 7.18 3.88 9.37v10.14l-3.88 9.37-3.06 3.06 3.06 3.06 3.88 9.37v10.14l-3.88 9.37-3.06 3.06 3.06 3.06 3.88 9.37v10.14l-3.88 9.37-7.18 7.18-8.44 3.5v633.25L1717.63 2475h105l9.37 9.37 10.86 10.86 1.52-3.67 5.62-5.62v-246.07l-3.93 1.63h-10.14l-1.43-.59-1.88 4.53-7.18 7.18-9.37 3.88h-10.14l-1.43-.59-1.88 4.53-7.18 7.18-9.37 3.88h-10.14l-1.43-.59-1.88 4.53-7.18 7.18-9.37 3.88h-10.14l-1.43-.59-1.88 4.53-7.18 7.18-9.37 3.88h-10.14l-9.37-3.88-7.18-7.18-3.88-9.37v-10.14l3.88-9.37 5.62-5.62v-21.57l50-50v-149.74l-14.95 14.95-2.43 5.86-7.18 7.18-9.37 3.88h-10.14l-9.37-3.88-7.18-7.18-3.88-9.37v-9.75l-8.94-3.7-7.18-7.18-3.88-9.37v-9.75l-8.94-3.7-7.18-7.18-3.88-9.37v-10.14l3.09-7.47-2.03-.84-7.18-7.18-3.88-9.37v-10.14l3.09-7.47-2.03-.84-7.18-7.18-3.88-9.37v-10.14l1.27-3.08-4.77 4.78v18.31l5.62 5.62 3.88 9.37v10.14l-3.88 9.37-7.18 7.18-9.37 3.88h-10.14l-9.37-3.88-7.18-7.18-3.7-8.94h-9.75l-9.37-3.88-7.18-7.18-3.88-9.37v-10.14l3.88-9.37 5.62-5.62v-6.57l45-45v-398.25l-8.44-3.5-7.18-7.18-3.88-9.37v-10.14l3.88-9.37 7.18-7.18 9.37-3.88h10.14l9.37 3.88 7.18 7.18 3.88 9.37v6.4l4.43-1.83h10.14l9.37 3.88 7.18 7.18 3.88 9.37v10.14l-3.88 9.37-7.18 7.18-8.44 3.5v396.51l-9.15 9.14 3.08-1.27h7.94l21.13-21.13v-485l25-25 9.37-9.37h169.83l-3.7-8.93v-10.14l3.7-8.93h-12.87l-14.82 11.12-3.88 3.88h-1.3l-1.03.78-5.44-.78h-23.8l-.62.62-9.37 3.88h-10.14l-9.37-3.88-7.18-7.18-3.88-9.37v-10.14l3.88-9.37 7.18-7.18 9.37-3.88h4.57v-4.57l3.88-9.37 7.18-7.18 9.37-3.88h4.57v-4.57l3.88-9.37 7.18-7.18 9.37-3.88h10.14l9.37 3.88 7.18 7.18 3.5 8.44h56.51l9.37 9.37 150 150v95l50.63 50.63h115l9.37 9.37 125 125v401.57l5.62 5.62 3.88 9.37v10.14l-3.88 9.37-7.18 7.18-9.37 3.88h-10.14l-9.37-3.88-7.18-7.18-1.88-4.53-1.43.59h-10.14l-1.43-.59-1.88 4.53-7.18 7.18-9.37 3.88h-10.14l-9.05-3.75-75.38 75.38v7.94l-3.88 9.37-7.18 7.18-6.95 2.88h2.58l9.37 3.88 7.18 7.18 3.88 9.37v10.14l-3.88 9.37-7.18 7.18-9.37 3.88h-10.14l-9.37-3.88-7.18-7.18-3.88-9.37v-7.94l-13.5-13.5v1.31l5.62 5.62 3.88 9.37v10.14l-3.88 9.37-7.18 7.18-9.37 3.88h-10.14l-9.37-3.88-3.06-3.06-3.06 3.06-9.37 3.88h-10.14l-8.93-3.7v106.57l122.58 122.58 5.86 2.43 7.18 7.18 3.88 9.37v10.14l-3.88 9.37m3.74-9.03H3989m0-11.99H2245.88m-7.38-11.98h562.88m-2-2l-3.88-9.37v-7.94l-10.5-10.5v-115L2529.37 2127l-9.37-9.37v-240l-105-105V1631.5h-4.07l-9.37-3.88-7.18-7.18-3.88-9.37v-10.14l3.88-9.37 5.56-5.56-.56-.56-3.88-9.37v-10.14l3.88-9.37 7.18-7.18 9.37-3.88h10.14l9.37 3.88 7.18 7.18 3.88 9.37v7.94l6.13 6.13 9.37 9.37v52.76l3.93-1.63h4.57v-4.57l3.88-9.37 7.18-7.18 9.37-3.88h10.14l9.37 3.88 7.18 7.18 3.88 9.37v10.14l-.82 1.98 52.18 52.18 1.52-3.67 7.18-7.18 9.37-3.88h10.14l9.37 3.88 7.18 7.18 3.88 9.37v10.14l-3.88 9.37-5.62 5.62v16.07l3.93-1.63h10.14l9.37 3.88 7.18 7.18 3.88 9.37v10.14l-3.88 9.37-7.18 7.18-8.44 3.5v208.25l35.63 35.63h78.25l3.5-8.44 7.18-7.18 9.37-3.88h10.14l9.37 3.88 7.18 7.18 3.5 8.44h36.25l-62.37-62.37v-355L2624.37 1482h-183.31l-5.62 5.62-9.37 3.88h-10.14l-9.37-3.88-7.18-7.18-3.88-9.37v-10.14l3.88-9.37 7.18-7.18 1.24-.51-3.42-3.43-3.88-9.37v-10.14l3.88-9.37 7.18-7.18 9.37-3.88h10.14l9.37 3.88 3.62 3.62h239.4l10.54 10.54 6.96 6.96h5.11l9.37 3.88 7.18 7.18 3.88 9.37v10.14l-3.88 9.37-7.18 7.18-9.37 3.88h-10.14l-9.37-3.88-7.18-7.18-3.88-9.37v-5.11l-6.96-6.96h-224.48l-3.62 3.62-1.24.51 1.86 1.87h196.57l150 150 9.37 9.37v355l60.63 60.63h185l62.37 62.37v-472.5l-3.93 1.63h-10.14l-9.37-3.88-7.18-7.18-3.88-9.37v-10.14l3.88-9.37 7.18-7.18 1.44-.6v-195.24l187.3-187.3-8.74-3.62-5.62-5.62h-11.57l-105.5-105.5h-7.94l-9.37-3.88-7.18-7.18-3.88-9.37v-10.14l3.88-9.37 7.18-7.18 9.37-3.88h10.14l9.37 3.88 7.18 7.18 3.88 9.37v7.94l95.28 95.29 4.78-4.78 9.37-3.88h10.14l9.37 3.88 7.18 7.18 3.62 8.74 183.3-183.3h-828.42l-3.5 8.44-7.18 7.18-9.37 3.88h-10.14l-9.37-3.88-7.18-7.18-3.88-9.37v-10.14l3.88-9.37 7.18-7.18 9.37-3.88h7.94l.5-.5h943l-38-38H2397.63l-13.5 13.5h6.94l9.37 3.88 7.18 7.18 3.88 9.37v10.14l-3.88 9.37-5.62 5.62v116.57l-50.5 50.5v7.94l-3.88 9.37-7.18 7.18-9.37 3.88h-10.14l-9.37-3.88-7.18-7.18-.88-2.13-.88 2.13-7.18 7.18-9.37 3.88h-10.14l-9.37-3.88-7.18-7.18-3.88-9.37v-10.14l3.88-9.37 5.62-5.62v-6.57l9.37-9.37 55.63-55.63v-115l9.37-9.37 28-28h-52.5l1.63 3.93v10.14l-3.88 9.37-7.18 7.18-9.37 3.88h-10.14l-9.05-3.75-39.88 39.88v125.33l3.44 1.42 7.18 7.18 3.88 9.37v10.14l-3.88 9.37-7.18 7.18-9.37 3.88h-10.14l-9.37-3.88-5.56-5.56-5.56 5.56-4.53 1.88.59 1.43v10.14l-3.88 9.37-7.18 7.18-9.37 3.88h-10.14l-9.37-3.88-3.06-3.06-3.06 3.06-9.37 3.88h-10.14l-9.37-3.88-3.06-3.06-3.06 3.06-9.37 3.88h-10.14l-9.37-3.88-7.18-7.18-3.88-9.37v-10.14l3.88-9.37 7.18-7.18 9.37-3.88h7.94l1.13-1.13v-48.31l-5.62-5.62-3.88-9.37v-10.14l3.88-9.37 7.18-7.18 9.37-3.88h10.14l3.93 1.63v-77.76l1.32-1.32-.82-1.98v-10.14l3.88-9.37 7.18-7.18 9.37-3.88h10.14l9.37 3.88 7.18 7.18 3.88 9.37v10.14l-3.88 9.37-7.18 7.18-8.44 3.5v21.01l3.93-1.63h10.14l9.37 3.88 4.56 4.56v-44.57l9.37-9.37 58-58h-189.74l-59.78 59.77 3.08-1.27h10.14l9.37 3.88 7.18 7.18 3.88 9.37v10.14l-3.88 9.37-5.62 5.62v146.57l-.5.5v7.94l-3.88 9.37-7.18 7.18-9.37 3.88h-10.14l-9.37-3.88-7.18-7.18-3.88-9.37v-10.14l3.88-9.37 7.18-7.18 8.44-3.5v-33.08l-8.93 3.7h-10.14l-9.37-3.88-7.18-7.18-3.88-9.37v-10.14l3.88-9.37.62-.62v-1.31l-13.5 13.5v7.94l-3.88 9.37-7.18 7.18-9.37 3.88h-10.14l-9.37-3.88-7.18-7.18-3.88-9.37v-10.14l3.88-9.37 7.18-7.18 9.37-3.88h7.94l21.13-21.13v-75l9.37-9.37 73-73h-64.74l-73.5 73.5h6.94l9.37 3.88 7.18 7.18 3.88 9.37v10.14l-3.88 9.37-7.18 7.18-9.37 3.88H1897v132.87l.63.63 9.37 9.37v6.57l5.62 5.62 3.88 9.37v10.14l-3.88 9.37-7.18 7.18-9.37 3.88h-10.14l-9.37-3.88-7.18-7.18-1.88-4.53-1.43.59h-10.14l-9.37-3.88-3.06-3.06-3.06 3.06-9.37 3.88h-10.14l-9.37-3.88-6.96-6.96-1.98 4.78-7.18 7.18-9.37 3.88h-10.14l-9.37-3.88-7.18-7.18-3.88-9.37v-10.14l3.88-9.37 7.18-7.18 9.37-3.88h7.94l11.13-11.13v-140l9.37-9.37 145-145h317.76l-1.63-3.93v-10.14l3.88-9.37 7.18-7.18 9.37-3.88h7.94l215.5-215.5h1211.57l5.62-5.62 9.37-3.88h10.14l9.37 3.88 7.18 7.18 3.88 9.37v10.14l-3.88 9.37-7.18 7.18-9.37 3.88h-10.14l-9.37-3.88-5.62-5.62h-16.07l1.63 3.93v10.14l-3.88 9.37-7.18 7.18-9.37 3.88h-10.14l-9.37-3.88-7.18-7.18-3.5-8.44H2527.63l-179.88 179.88 3.75 9.05v10.14l-1.63 3.93h1307.76l6.32 6.32 1.98-.82h10.14l9.37 3.88 7.18 7.18 3.88 9.37v10.14l-3.88 9.37-3.06 3.06 3.06 3.06 3.88 9.37v10.14l-3.88 9.37-2.44 2.44 5.75-2.38h10.14l9.37 3.88 7.18 7.18 3.88 9.37v10.14l-3.88 9.37-7.18 7.18-9.37 3.88h-10.14l-9.37-3.88-.06-.06v8.51l-.59 1.43 4.53 1.88 7.18 7.18 1.52 3.67.86-.86 9.37-9.37h26.57l5.62-5.62 9.37-3.88h10.14l9.37 3.88 7.18 7.18 3.62 8.74 15.53-15.52-5.21-2.16-7.18-7.18-3.88-9.37v-10.14l3.88-9.37 7.18-7.18 9.37-3.88h10.14l9.37 3.88 2.56 2.56v-173.4l5.95-5.95.43-1.03 7.18-7.18 9.37-3.88h10.14l9.37 3.88 7.18 7.18 3.88 9.37v10.14l-3.88 9.37-7.18 7.18-6.44 2.67v143.08l6.93-2.87h10.14l9.37 3.88 7.18 7.18 3.88 9.37v10.14l-3.88 9.37-7.18 7.18-9.37 3.88h-5.11l-177.5 177.5h-80l-50 50h148.48l4.62-4.62 9.37-3.88h10.14l9.37 3.88 7.18 7.18 3.88 9.37v10.14l-3.88 9.37-7.18 7.18-9.37 3.88h-10.14l-9.37-3.88-4.62-4.62h-143.9l-26.54 26.54v6.53l-3.88 9.37-7.18 7.18-9.37 3.88h-10.14l-9.37-3.88-7.18-7.18-.38-.92v39.02L3598.46 1383l10.54 10.54v164.92l-10.54 10.54-46.96 46.96v5.11l-3.88 9.37-7.18 7.18-9.37 3.88h-10.14l-9.37-3.88-7.18-7.18-2.38-5.75v22.94l-55 55-9.37 9.37h-230l-10.63 10.63v119.5l3.93-1.63h10.14l9.37 3.88 7.18 7.18 3.88 9.37v10.14l-3.88 9.37-7.18 7.18-8.44 3.5v118.25l76.13 76.13h7.94l9.37 3.88 7.18 7.18 3.88 9.37v10.14l-3.88 9.37-7.18 7.18-9.37 3.88h-10.14l-9.37-3.88-7.18-7.18-3.88-9.37v-7.94l-68.5-68.5v19.74L3337.63 2200l9.37 9.37v106.57l5.62 5.62 3.88 9.37v10.14l-3.88 9.37-7.18 7.18-9.37 3.88h-10.14l-3.93-1.63v125.63h4.07l9.37 3.88 7.18 7.18 3.88 9.37v10.14l-3.88 9.37-7.18 7.18-9.37 3.88h-10.14l-9.37-3.88-7.18-7.18-3.88-9.37v-7.94l-5.5-5.5v-285l-43-43v141.31l5.62 5.62 3.88 9.37v10.14l-3.88 9.37-7.18 7.18-9.37 3.88h-10.14l-3.93-1.63v125.63h4.07l9.37 3.88 7.18 7.18 3.88 9.37v10.14l-3.88 9.37-7.18 7.18-9.37 3.88h-10.14l-9.37-3.88-7.18-7.18-3.88-9.37v-7.94l-5.5-5.5v-345l-53-53v206.25l8.44 3.5 7.18 7.18 3.88 9.37v10.14l-3.88 9.37-7.18 7.18-9.37 3.88h-10.14l-3.93-1.63v125.63h4.07l9.37 3.88 7.18 7.18 3.88 9.37v10.14l-3.88 9.37-7.18 7.18-9.37 3.88h-10.14l-9.37-3.88-7.18-7.18-3.88-9.37v-7.94l-5.5-5.5v-385l-60.63-60.63h-69.74l87.37 87.37v171.57l5.62 5.62 3.88 9.37v10.14l-3.88 9.37-7.18 7.18-9.37 3.88h-10.14l-3.93-1.63v125.63h4.07l9.37 3.88 7.18 7.18 3.88 9.37v10.14l-3.88 9.37-7.18 7.18-9.37 3.88h-10.14l-9.37-3.88-7.18-7.18-3.88-9.37v-7.94l-5.5-5.5v-350l-65.63-65.63h-84.74l98 98 9.37 9.37v121.57l5.62 5.62 3.88 9.37v10.14l-3.88 9.37-7.18 7.18-9.37 3.88h-10.14l-3.93-1.63v125.63h4.07l9.37 3.88 7.18 7.18 3.88 9.37v10.14l-3.88 9.37-7.18 7.18-9.37 3.88h-10.14l-9.37-3.88-7.18-7.18-3.88-9.37v-7.94l-5.5-5.5v-300l-85.63-85.63h-96.74l-31.13 31.13v7.94l-3.88 9.37-7.18 7.18-9.37 3.88h-10.14l-3.08-1.27 180.28 180.27h7.94l9.37 3.88 7.18 7.18 3.88 9.37v10.14l-3.88 9.37-7.18 7.18-9.37 3.88h-10.14l-3.93-1.63v79.5l1.13 1.13h7.94l9.37 3.88 7.18 7.18 3.88 9.37v10.14l-3.88 9.37-7.18 7.18-9.37 3.88h-10.14l-9.37-3.88-7.18-7.18m-3.88-9.99h-572.42m-11.98-11.98h579.74m-5.84-11.99h-585.89m-11.98-11.98H2785m0-11.99h-609.86m-11.98-11.98H2785m0-11.99h-633.83m-11.98-11.98H2785m0-11.99h-657.8m-11.98-11.98H2785m0-11.99h-678m0-11.98h678m-10.99-11.99H2107m0-11.98h655.02m-11.98-11.99H2107m0-11.98h631.05m-11.98-11.99H2107m0-11.98h607.08m-11.98-11.99H2107m68.33-11.98h21.51m-9.4-11.99h-5.94m-.9-11.98h4.9m-11.35-11.99h-1.31m42.34-11.98h426.99m11.98 11.98h-421.44m3.79 11.99h429.64m11.98 11.98h-443.56m-9.4 11.99h464.95m29.3-35.96H2890m0-11.98h-182.58m-11.98-11.99H2890m0-11.98h-206.55m-11.98-11.99H2890m-10.77-11.98h-219.75m-11.98-11.99h219.74m-11.98-11.98h-185.08m6.32-11.99h166.77m-11.98-11.98h-150.58m11.99-11.99h126.6m-11.98-11.98h-102.64m37.84-83.9h-83.84m-11.99-11.99h105.63m27.36 0h31.76m-11.99-11.98h-164.74m-7.71-11.99h160.47m-11.99-11.98H2627m0-11.99h138m0-11.98h-138m0-11.99h138m0-11.98h-138m0-11.99h138m0-11.98h-138m0-11.99h138m0-11.98h-138m0-11.99h138m0-11.98h-138m0-11.99h138m0-11.98h-138m0-11.99h138m0-11.98h-138m0-11.99h138m0-11.98h-138m16.07-11.99H2765m0-11.98h-118.5m-2.29-11.99H2765m0-11.98h-131.91m-21.09-11.99h153m0-11.98h-146.96m3.46-11.99H2765m0-11.98h-145.76m-10.97-11.99H2765m0-11.98h-215.88m-11.98-11.99H2765m0-11.98h-239.85m-3.65-11.99H2765m0-11.98h-246.55m-14.79-11.99h255.28m-11.98-11.98H2462m0 11.98h26.34m-14.79 11.99H2462m0 11.98h3.83m-3.83-47.94h272.97m-11.98-11.98h-269.75m-6.74-11.99H2711m-11.98-11.98h-256.37m-43.31 0h-255.07m-11.98-11.99h554.74m-11.98-11.98H2120.3m-11.98-11.99h554.74m-11.98-11.99H2097m0-11.98h542.09m-11.98-11.99h-188.78m-34.66 0H2097m0-11.98h299.19m-.62-11.99H2097m0-11.98h305.16m.71-11.99H2097m0-11.98h303.5m3.36-11.99h-308.41m-11.98-11.98h336.64m11.78 0H3083m0 11.98h-394.72m11.98 11.99H3083m0 11.98h-360.28m3.78 11.99H3083m0 11.98h-358.44m-9.43 11.99H3083m0 11.98h-410.64m-11.98-11.98h26.49m-9.43-11.99h-29.05m24.93-11.98h-233.48M2426 1426h250l25 25m-16.65 45.72H3083m0 11.98h-386.67m11.99 11.99H3083m0 11.99h-362.7m11.99 11.98H3083m0 11.99h-338.73m11.99 11.98H3083m-10.3 11.99h-304.46m11.99 11.98h290.27m3.53 11.99h-281.82M2797 1616.57h308m0 11.99h-308m0 11.98h308m0 11.99h-308m0 11.98h308m0 11.99h-308m0 11.98h308m0 11.99h-308m0 11.98h308m0 11.99h-308m0 11.98h308m0 11.99h-308m0 11.98h308m0 11.99h-308m0 11.98h308m0 11.99h-308m0 11.98h308m0 11.99h-308m0 11.98h308m0 11.99h-308m0 11.98h308m0 11.99h-308m0 11.98h308m0 11.99h-308m0 11.98h308m0 11.99h-308m0 11.98h308m0 11.99h-308m0 11.98h308m0 11.99h-308m11.75 11.98H3105m0 11.99h-284.26m11.98 11.98H3105m0 11.99h-260.29m11.98 11.98H3105m0 11.99h-51.32m11.98 11.98H3105m0 11.99h-27.35m11.98 11.99H3105m0 11.98h-3.38m-21.29 23.97h-69.74m11.98 11.99H3090m0 11.98h-55.44m11.98 11.99H3090m0 11.98h-43m0 11.99h43m0 11.98h-43m0 11.99h43m0 11.98h-43m0 11.99h43m0 11.98h-43m0 11.99h43m0 11.98h-43m0 11.99h43m0 11.98h-43m0 11.99h43m0 11.98h-43m0 11.99h43m0 11.98h-36.5m3 11.99h33.5m0 11.98h-36.23m-13.23 11.99H3090m0 11.98h-68m0 11.99h68m0 11.98h-68m0 11.99h68m0 11.98h-68m0 11.99h68m0 11.98h-68m0 11.99h68m0 11.98h-68m0 11.99h68m0 11.98h-52.45m7.93 11.99h45.36m4.66 11.98h-49m-5.88 11.99h60.76m39.24 0h60.76m-5.88-11.99h-49m-1.02-11.98h45.36m-.84-11.99h-52.45M3122 2479.5h68m0-11.99h-68m0-11.98h68m0-11.99h-68m0-11.98h68m0-11.99h-68m0-11.98h68m0-11.99h-68m0-11.98h68m0-11.99h-68m18.54-11.98H3190m0-11.99h-36.23m2.73-11.98h33.5m0-11.99h-36.5m-14.51-11.98H3190m0-11.99h-53m0-11.98h53m0-11.99h-53m0-11.98h53m0-11.99h-53m0-11.98h53m0-11.99h-53m0-11.98h53m0-11.99h-53m0-11.98h53m0-11.99h-53m0-11.98h53m-1.73-11.99H3137m0-11.98h39.29m-11.99-11.99H3137m0-11.98h15.32m-11.99-11.99H3137m-68.65-11.98h-69.75m-11.98-11.99h69.74m-11.98-11.98h-69.75m-11.98-11.99h69.74m-63.09 71.91h-84.74m11.98 11.99h84.75m8.71 11.98h-81.47m11.98 11.99H2990m0 11.98h-57.5m11.98 11.99H2990m0 11.98h-43m0 11.99h43m0 11.98h-43m0 11.99h43m0 11.98h-43m0 11.99h43m0 11.98h-43m0 11.99h43m0 11.98h-43m0 11.99h43m0 11.98h-36.5m3 11.99h33.5m0 11.98h-36.23m-13.23 11.99H2990m0 11.98h-68m0 11.99h68m0 11.98h-68m0 11.99h68m0 11.98h-68m0 11.99h68m0 11.98h-68m0 11.99h68m0 11.98h-68m0 11.99h68m0 11.98h-52.45m7.93 11.99h45.36m4.66 11.98h-49m-5.88 11.99h60.76m-100 0h-60.76m5.88-11.99h49m-4.66-11.98h-45.36m-7.93-11.99H2890m0-11.98h-73m0-11.99h73m0-11.98h-73m0-11.99h73m0-11.98h-73m0-11.99h73m0-11.98h-73m30.46-11.99H2890m0-11.98h-38.5m-1.78-11.99H2890m0-11.98h-49.29m-25.42-11.99H2890m0-11.98h-86.7m-11.98-11.99H2890m0-11.98h-110.67m-11.98-11.99H2890m0-11.98h-134.64m-11.98-11.99H2890m0-11.98h-158.61m-101.21-35.96h-401.47m2.79-11.98h386.7m-11.99-11.99h-365.42m11.98-11.98h341.46m-11.99-11.99h-317.48m11.98-11.98h293.52m-11.99-11.99h-269.54m11.98-11.98h245.58m-11.99-11.99h-133.17m5.37-11.98h115.82M2520 2107.96h-114.73m-8.23-11.98H2520m0-11.99h-123m0-11.98h123m0-11.99h-123m0-11.99h123m0-11.98h-123m0-11.99h123m0-11.98h-123m0-11.99h123m0-11.98h-123m0-11.99h123m0-11.98h-123m0-11.99h123m0-11.98h-123m0-11.99h123m0-11.98h-123m0-11.99h123m0-11.98h-123m0-11.99h123m-9.37-11.98H2397m0-11.99h101.65m-11.99-11.98H2397m0-11.99h77.68m-11.99-11.98H2397m0-11.99h53.71m-11.99-11.98H2397m0-11.99h29.74m-11.74-11.98h-18m0-11.99h18m0-11.98h-18m0-11.99h18m0-11.98h-18m0-11.99h18m0-11.98h-18m-5.89-11.99H2415m0-11.98h-35.88m-11.98-11.99H2415m0-11.98h-59.85m-11.98-11.99H2415m-11.18-11.98h-72.64m-11.98-11.99h73.58m-2.28-11.98h-83.29m-11.98-11.99h98.72m3.43-11.98h-114.14m-11.98-11.99h124.24m-101.63 107.87h-46.31m.06.06l3.88 9.37v6.4l4.43-1.83h10.14l9.37 3.88 7.18 7.18 3.88 9.37v9.57h4.57l9.37 3.88 7.18 7.18 3.88 9.37v2.94l.5.5v112.13h14.87l8.13 4.69v-143.56l-95.63-95.63h-115l-9.37-9.37-70.63-70.63-9.37-9.37v-95l-3.5-3.5v1.94l-3.88 9.37-5.62 5.62v6.57l-9.37 9.37-10 10h-230l-.63.63v109.74l3.5-3.5v-7.94l3.88-9.37 7.18-7.18 9.37-3.88h10.14l9.37 3.88 7.18 7.18 3.88 9.37v10.14l-.59 1.43 4.53 1.88 7.18 7.18 3.88 9.37v4.57h4.57l9.37 3.88 7.18 7.18 3.88 9.37v4.57h4.57l9.37 3.88 7.18 7.18 3.88 9.37v10.14l-3.7 8.93h66.57l45-45h80.49l5.44-.78 1.03.78h1.3l3.88 3.88 14.6 10.95 5.45-5.45 9.37-3.88h10.14l9.37 3.88 7.18 7.18 3.88 9.37v9.57h4.57l9.37 3.88 3.06 3.06 3.06-3.06 9.37-3.88h10.14l9.37 3.88 5.56 5.56 5.56-5.56 9.37-3.88h10.14l9.37 3.88 7.18 7.18m3.88 11.92h54.35m11.99 11.99h-36.31m4.97 11.98h43.32m5.18 11.99h-34.5m9.13 11.98H2335m0 11.99h-23m0 11.98h23m0 11.99h-23m0 11.98h23m0 11.99h-23m0 11.98h23m0 11.99h-23m0 11.98h23m0 11.99h-23m0 11.98h23m127-101.9l88 88v-99.74l-59.78-59.79-4.78 4.78-9.37 3.88h-10.14l-3.93-1.63v64.5m0-5.96h88m0 11.98h-81.98m11.98 11.99h70m0 11.98h-58.01m11.98 11.99H2550m0 11.98h-34.04m11.99 11.99H2550m0 11.98h-10.07m3.86-95.88H2462m0-11.98h69.81m-11.99-11.99H2462m0-11.98h45.84m-11.99-11.99h-12.49m77.75 0h22.62m-301.85-23.97H2151.5m-1.41-11.98h119.81m-11.99-11.99H2141.6m-31.2 0h-10.01m18.55-23.97h-261.31m7.89 11.99h380.41m-138.97-23.97h-266.02m-7.28-11.99h261.31m-11.98-11.98H1826.5m-3.02-11.99H2071m-11.98-11.98h-250.18m-15.68 0H1772m0 11.98h6.52m-3.02 11.99h-3.5m0-35.96h275.03m-11.98-11.98H1772m0-11.99h263m0-11.99h-263m0-11.98h263m0-11.99h-263m-92 0h-23m0 11.99h23m0 11.98h-23m0 11.99h23m0 11.99h-23m0 11.98h23m0 11.99h-23m0 11.98h23m0 11.99h-23m0 11.98h23m0 11.99h-23m0 11.98h23m0 11.99h-23m0 11.98h23m0 11.99h-23m0 11.98h23m0 11.99h-23m0 11.98h23m0 11.99h-23m0 11.98h23m0 11.99h-23m0 11.98h23m0 11.99h-23m0 11.98h23m0 11.99h-23m0 11.98h23m0 11.99h-23m0 11.98h23m0 11.99h-23m0 11.98h23m0 11.99h-23m0 11.98h23m-3.89 11.99H1657m-2.62 11.98h9.75m-32.92 23.97h-.8m.14 11.99H1627m2.25 11.98h7.87m-.93 11.99h4.62m.14 11.98h-4.9m-7.13 11.99h19.16m2.42 11.98H1552m0-11.98h41.08m-7.13-11.99H1552m0-11.98h7.27m-3.77-11.99h-3.5m0-11.98h5.46m-5.46-11.99h13m7.14-11.98H1552m0-11.99h32.13m11.98-11.98H1552m0-11.99h56.1m1.9-11.98h-58m0-11.99h58m0-11.98h-58m0-11.99h58m0-11.98h-58m0-11.99h58m0-11.98h-58m0-11.99h58m0-11.98h-58m0-11.99h58m0-11.98h-58m0-11.99h58m0-11.98h-58m0-11.99h58m0-11.98h-58m16-11.99h42m0-11.98h-38.5m-2.23-11.99H1610m0-11.98h-41.6m3.1-11.99h38.5m0-11.98h-41.13m-.07-11.99h41.2m0-11.98h-38.5m-3.02-11.99H1610m0-11.98h-56.16m-15.68 0H1443m0 11.98h80.52m-3.02 11.99H1443m0 11.98h68.77m-11.98 11.99H1443m0 11.98h47m0 11.99h-47m0 11.98h47m0 11.99h-47m0 11.98h47m0 11.99h-47m0 11.98h47m0 11.99h-47m0 11.98h47m0 11.99h-47m0 11.98h47m0 11.99h-47m0 11.98h47m0 11.99h-47m0 11.98h47m0 11.99h-47m0 11.98h47m0 11.99h-47m0 11.98h47m0 11.99h-47m0 11.98h47m0 11.99h-47m0 11.98h47m0 11.99h-47m0 11.98h47m0 11.99h-47m0 11.98h47m0 11.99h-47m0 11.98h47m0 11.99h-47m0 11.98h47m0 11.99h-47m0 11.98h47m0 11.99h-47m0 11.98h47m0 11.99h-47m0 11.98h47m0 11.99h-47m0 11.99h47m0 11.98h-47m0 11.99h47m0 11.98h-47m0 11.99h47m0 11.98h-47m0 11.99h47m0 11.98h-47m0 11.99h47m0 11.98h-47m0 11.99h47m0 11.98h-47m0 11.99h47m0 11.98h-47m0 11.99h47m0 11.98h-47m0 11.99h47m0 11.98h-47m0 11.99h47m0 11.98h-47m0 11.99h47m0 11.98h-47m0 11.99h50.05m11.99 11.98H1443m0 11.99h74.02m11.99 11.98H1443m0 11.99h97.99m11.99 11.98H1443m0 11.99h121.96m11.99 11.98H1443m0 11.99h145.93m11.99 11.98H1443m0 11.99h169.9m11.99 11.98H1443m0 11.99h193.87m11.99 11.98H1443m0 11.99h217.84m11.99 11.98H1443m0 11.99h241.81m25.33-59.93H1850m0-11.98h-151.84m-11.99-11.99H1850m0-11.98h-175.81m-11.99-11.99H1850m0-11.98h-199.78m-11.99-11.99H1850m0-11.98h-223.75m-11.99-11.99H1850m0-11.98h-247.72m-11.99-11.99H1850m0-11.98h-271.7m-11.98-11.99H1850m0-11.98h-295.67m-2.33-11.99h159.64m-13.38-11.98H1552m0-11.99h143.5m2.97-11.98H1552m0-11.99h153m0-11.98h-153m0-11.99h159.56m11.99-11.98H1552m0-11.99h183.53m11.99-11.98H1552m0-11.99h203m0-11.98h-203m0-11.99h203m0-11.98h-203m0-11.99h203m0-11.98h-203m0-11.99h203m0-11.98h-203m0-11.99h203m0-11.98h-203m0-11.99h146.96m-7.65-11.99H1552m0-11.98h137.84m-16.03-11.99H1552m0-11.98h118.5m-11.47-11.99H1552m0-11.98h99.34m90.25 59.92H1755m0-11.98h-1.42m1.42 23.97h-21.96M1862 1934.37l14 14 59-59v-96.74l-20.63-20.63-9.37-9.37v-6.57l-1.5-1.5-1.5 1.5v141.57l-5.5 5.5v7.94l-3.88 9.37-7.18 7.18-9.37 3.88h-10.14l-3.93-1.63v4.5m5.8 5.8h16.4m-.12-11.99h12.11m-1.81-11.98h13.79m-11.67-11.99h23.66m11.98-11.98H1902m0-11.99h33m0-11.98h-33m0-11.99h33m0-11.98h-33m0-11.99h33m0-11.98h-33m0-11.99h33m0-11.98h-33m0-11.99h24.74m-11.99-11.98H1902m0-11.99h3M1891.5 1664.51h73.36m11.99-11.98h-86.76m-8.49-11.99h107.23m18.05-167.79H2035m0-11.99h-16.14m5.42-11.98H2035m-.83-11.99h-2.97m40.28-47.94H3083m0-11.98H2059.5m-11.99-11.99h1044.15m11.99-11.98H2035.53m-11.99-11.99h1092.09m11.99-11.98H2011.56m-11.99-11.99H3139.6m11.99-11.98h-1164m-11.99-11.99h1187.97m11.99-11.98H1963.62m-11.99-11.99h1235.91m11.99-11.98H1939.64m-63.55-11.99h1335.42m11.99-11.98H1443m0 11.98h392.91m-5.41 11.99H1443m0 11.98h368.93m-6.43 11.99H1443m0 11.98h344.96m-7.06 11.99H1443m0 11.98h337.86m7.01 11.99H1443m0 11.98h439.51m-2.01-11.98h-24.8m-149.23 23.97H1443m0 11.98h251.49m-11.99 11.99H1443m0 11.98h237m0 11.99h-237m0 11.98h155.11m-7.15 11.99H1443m0 11.98h147.8m6.92 11.99H1443m0 11.98h167m0 11.99h-167m0 11.98h167m0 11.99h-167m0 11.98h167m0 11.99h-167m0 11.99h167m0 11.98h-167m198.04-119.85H1680m0 11.98h-12.14m7.75 11.99h4.39m0 11.98h-3.5m3.5 11.99h-9.69m9.69-59.93h-46.11M1443 1221.06h1792.48m11.99-11.98H1443m0-11.99h1816.45m8.11-11.98H1443m0-11.99h1797.49m-11.98-11.98H2176.95m-11.9 0h-23.1m-11.9 0h-23.1m-11.9 0h-198.1m-11.9 0H1443m0-11.99h327.26m-12.24-11.98H1443m0-11.99h312.5m3.2-11.98H1443m0-11.99h331.21m20.79-11.98h-352m0-11.99h352m0-11.98h-352m0-11.99h352m0-11.98h-352m0-11.99h352m0-11.98h-352m0-11.99h352m0-11.99h-352m0-11.98h352m0-11.99h-352m0-11.98h352m3.97-11.99H1443m0-11.98h367.95m11.99-11.99H1443m0-11.98h391.92m11.99-11.99H1443m0-11.98h415.89m11.99-11.99H1443m0-11.98h439.86m11.99-11.99H1443m0-11.98h463.83m11.99-11.99H1443m0-11.98h487.8m11.99-11.99H1443m0-11.98h822.5m1.37-11.99H1443m0-11.98h832.31m25.42-11.99H1443m0-11.98h869.71m11.99-11.99H1443m0-11.98h893.69m11.98-11.99H1443m0-11.98h917.66m11.98-11.99H1443m0-11.98h941.63m11.98-11.99H1443m0-11.98h44.17m-20.76-11.99H1443m0-11.98h10.33m-8.71-11.99H1443m97.7 35.96h867.9m11.98-11.99h-855.07m13.31-11.98h853.75m11.98-11.99H1587.9m5.33-11.98h863.31m11.98-11.99h-869.95m.93-11.98h881.01m11.98-11.99H1599.5m0-11.98h904.98m17.31 47.94H3658.3m13.58 11.98H2509.81m-11.99 11.99h1355.51m-8.71-11.99h-154.5m13.58-11.98h133.7m-2.55-11.99h-87.21m-13.28 0h-27.86m23.61-47.94H1594.9m-5.34-11.98H3841.9m-5.3 11.98h-84.71M3764 549.9h70.05m-2.54 11.98h-65.01m-3.23 11.99h69.03m34.11 59.92H2485.84m-11.99 11.99h1413.32m53.53 0h48.3m0 11.98H2461.87m-11.99 11.99H3989m0 11.98H2437.9m-11.99 11.99H3989m0 11.98h-117.24m4.74 11.99H3989m0 11.98h-113.99m-8.61 11.99H3989m0 11.98h-130m0 11.99h130m0 11.98h-130m0 11.99h130m0 11.98h-130m0 11.99h130m0 11.98h-130m0 11.99h130m0 11.98h-130m0 11.99h130m0 11.98h-130m0 11.99h130m0 11.98h-96.01m3.51 11.99h92.5m0 11.98h-94.72m-10.77 11.99H3989m0 11.98h-126.95m-11.98 11.99H3989m0 11.98h-150.92m-11.98 11.99H3989m0 11.98h-174.89m-11.98 11.99H3989m0 11.99h-198.86m-11.98 11.98H3989m0 11.99h-222.83m-11.98 11.98H3989m0 11.99h-246.8m-11.99 11.98H3989m0 11.99h-270.77m-11.99 11.98H3989m0 11.99h-294.74M3686 1096l185-185m-30 0l-160 160h-80l-155 155v60l115 115v40m-18-18.06v-14.48l-74.38-74.38v152.52l-7.02 7.02h-166.2l-7.02-7.02v-166.2l7.02-7.02h152.52l-9.38-9.38-10.54-10.54v-74.92l155-155 10.54-10.54h80l76.76-76.76-8.74-3.62-5.62-5.62h-13.31l-55 55h-160L3287 1242.63v75l-9.37 9.37-70 70h-11.57l-5.62 5.62-8.94 3.7v1.01l4.43-1.83h10.14l9.37 3.88 7.18 7.18 3.88 9.37v10.14l-3.88 9.37-7.18 7.18-9.37 3.88h-9.92l-19.15 16.76v214.11l67.37-67.37h170l6.13-6.13v-7.94l3.88-9.37 7.18-7.18 9.37-3.88h10.14l9.37 3.88 7.18 7.18 3.88 9.37v10.14l-3.88 9.37-7.18 7.18-9.37 3.88h-7.94l-6.13 6.13-9.37 9.37h-170l-28 28h204.74l45.63-45.63v-33.31l-5.62-5.62-3.88-9.37v-10.14l3.88-9.37 7.18-7.18 9.37-3.88h10.14l9.37 3.88 7.18 7.18 3.88 9.37v10.14l-3.88 9.37-5.62 5.62v6.25l2.38-5.75 7.18-7.18 9.37-3.88h5.11l46.96-46.96v-79.91l-6.93 2.87h-10.14l-9.37-3.88-7.18-7.18-3.88-9.37v-10.14l3.88-9.37 3.62-3.62m-1.87 1.87h-72.51m0 11.98h66.88m1.12 11.99h-68m0 11.98h76.08m28.3 11.99h-104.38m0 11.98H3573m0 11.99h-406m0 11.98h406m0 11.99h-406m0 11.99h406m-1.12 11.98H3167m0 11.99h311.16m15.68 0h66.06m-11.99 11.98h-39.43m3.02 11.99h24.43m-20.07 11.98h-7.06m-5.67 11.99H3502m0 23.97h1.6m-1.6 11.98h16.61m14.78 0H3989m0-11.98h-440.6m3.1-11.99H3989m0-11.98h-426.13m11.99-11.99H3989m0-11.98h-402.16m11.99-11.99H3989m0-11.98h-380m0-11.99h380m0-11.98h-380m0-11.99h380m0-11.99h-380m0-11.98h380m0-11.99h-380m0-11.98h380m0-11.99h-380m0-11.98h380m0-11.99h-380m0-11.98h380m0-11.99h-380m0-11.98h380m0-11.99h-384.69m-11.99-11.98H3989m0-11.99h-408.66m-11.99-11.98h43.49m-2.46-2.46l-3.88-9.37v-6.53l-16.54-16.54h-13.9l-4.62 4.62-9.37 3.88h-10.14l-9.37-3.88-7.18-7.18-3.88-9.37v-10.14l3.88-9.37 7.18-7.18 9.37-3.88h10.14l9.37 3.88 4.62 4.62h27.98l26.5 26.5h6.53l9.37 3.88 7.18 7.18 3.88 9.37v10.14l-3.88 9.37-7.18 7.18-9.37 3.88h-10.14l-9.37-3.88-7.18-7.18m-3.88-9.53h-49.13m-11.99-11.98h55.51m24.11-23.97h365m0 11.98h-340.99m7.66 11.99H3989m0 11.98h-332.5m-6.34 11.99H3989m0-59.93h-376.99m-39.96-11.98H3989m0-11.99h-495m0-11.98h495m0-11.99h-455.97m7.65-11.98H3989m0-11.99h-444.02m11.98-11.98H3989m0-11.99h-238.03m5.53-11.98H3989m0-11.99h-233.66m-8.14-11.98H3989m0-11.99h-410.7m-11.98 11.99h148.48M3686 1096h-80l-130 130v60l115 115v150l-65 65m-28.9 36.53H3989m0 11.98h-503.88m-11.99 11.99H3989m0 11.98h-527.85m-11.99 11.99H3989m0 11.98h-781.82m-10.18 11.99h792m0 11.98h-792m0 11.99h792m0 11.98h-792m0 11.99h792m0 11.98h-792m0 11.99h792m0 11.98h-792m0 11.99h792m0 11.98h-792m23.22 11.99H3989m0 11.98h-759.43m1.93 11.99H3989m0 11.98h-761.3m-15.7 11.99h777m0 11.98h-777m0 11.99h777m0 11.98h-777m0 11.99h777m0 11.98h-777m0 11.99h777m0 11.98h-777m0 11.99h777m0 11.98h-777m2.71 11.99H3989m0 11.98h-762.31m11.99 11.99h62.96m3.42-1.42l-9.37 3.89-7.17 7.17-3.89 9.37v10.15l3.89 9.37 7.17 7.17 9.37 3.88h5.12l43.36 43.37h284.4l3.62 3.62 9.37 3.88h10.14l9.37-3.88 7.18-7.18 3.88-9.37v-10.14l-3.88-9.37-7.18-7.18-9.37-3.88h-10.14l-9.37 3.88-3.62 3.62h-269.48l-32.83-32.82v-5.12l-3.88-9.37-7.17-7.17-9.37-3.89h-10.15m13.56 1.42H3989m0 11.98h-656.28m2.91 11.99H3989m0 11.99h-641.54m11.99 11.98H3989m0 11.99h-311.96m4.46 11.98H3989m0 11.99h-309.1m-8.77 11.98H3989m0 11.99h-707.46m-5.67-11.99h-6.31m-2.46-11.98h-9.53m7.76-11.99h-19.74m7.76-11.98h-19.75m7.76-11.99h-19.74m7.76-11.98h-19.75m7.76-11.99h-19.74m-.65-11.99h8.41m45.25 0h36.88m-2.91 11.99h-21.98m11.98 11.99h12.82m-.83 11.98h14.47m10.95 11.99h8.48m-4.02 11.98h16m11.99 11.99h-29.59m-8.77 11.98h334.74M3656 2111h-295l-50.87-50.87m-16.6 95.77H3989m0 11.99h-683.49m11.99 11.98H3989m0 11.99h-211.08m-2.48-2.48l7.18 7.18 3.88 9.37v10.14l-3.88 9.37-7.18 7.18-9.37 3.88h-7.94l-70.5 70.5h-96.57l-5.62 5.62-9.37 3.88h-10.14l-9.37-3.88-7.18-7.18-3.88-9.37v-10.14l3.88-9.37 7.18-7.18 9.37-3.88h10.14l9.37 3.88 5.62 5.62h83.31l61.13-61.13v-7.94l3.88-9.37 7.18-7.18 9.37-3.88h10.14l9.37 3.88m10.2 14.46H3989m0 11.99h-202.5m-6.25 11.98H3989m0 11.99h-234.17m-11.98 11.98H3989m0 11.99h-258.14m-11.98 11.98H3989m0 11.99h-282.11m-11.99 11.98H3989m0 11.99h-402.65m-30.7 0H3347m0-11.99h200.01m-1.51-11.98H3347m0-11.99h203.19m135.42-11.98H3347m0-11.99h350.59m11.99-11.98H3347m0-11.99h374.56m11.99-11.98H3347m-5.53-11.99h394.89m7.72-11.98h-414.6m-41.28 23.97H3247m0 11.98h43m0 11.99h-43m0 11.98h43m0 11.99h-43m0 11.98h43m0 11.99h-43m0 11.98h43m0 11.99h-43m6.5 11.98h36.5m0 11.99h-33.5m-2.73 11.98H3290m0 11.99h-49.46m-18.54 11.98h68m0 11.99h-68m0 11.98h68m0 11.99h-68m0 11.98h68m0 11.99h-68m0 11.98h68m0 11.99h-68m0 11.98h68m0 11.99h-68m15.55 11.98H3290m.84 11.99h-45.36m1.02 11.98h49m5.88 11.99h-60.76m81.38-47.94h667m0 11.98h-651.45m7.93 11.99H3989m0 11.98h-642.5m-5.88 11.99H3989m0-59.93h-667m0-11.98h667m0-11.99h-667m0-11.98h667m0-11.99h-667m0-11.98h667m0-11.99h-667m0-11.98h667m0-11.99h-667m18.54-11.98H3989m0-11.99h-635.23m2.73-11.98H3989m0-11.99h-635.5m-77.29-119.85H3247m0-11.98h17.23m-11.99-11.99H3247m-289.68-59.92h-84.75m-11.98-11.99h84.74m-11.98-11.98h-84.75m-25.18-59.93h-33.94M3167 1676.5h10.88m-10.88-11.99h22.86m11.99-11.98H3167m0-11.99h46.83m11.99-11.98H3167m0-11.99h240.8m3.26-11.98H3167m0-11.99h251.34m35.32 0h9.54m-2.26 11.99h9.06m0 11.98h-8.71m-6.78 11.99H3470m-6.17 11.98h-34.74m22.76 11.99H3247.1m-11.98 11.98h204.74m-11.98 11.99h-204.75m-56.13-95.88h293.5m3.02-11.99H3167m-66 17.37v-205l405-405h60l5 5m-.21-47.58H2410.46m1.04 11.98h204.03m-8.56 11.99h-201.3m-3.67 11.98h203.5m4.8 11.99H2402m0 11.98h1061.2m11.98-11.98H2651.7m-249.7 23.97h1049.21m-11.98 11.99H2402m0 11.98h714.64m-6.14 11.99H2402m0 11.98h709.41m7.78 11.99H2402m0 11.98h742.61m11.99 11.99h-766.2m-11.98 11.98h790.16m11.99 11.99h-814.14m-11.98 11.98h838.1m11.99 11.99h-853.49m-7.14 11.98h872.61m21.29-23.97h93.55m-11.98 11.99h-34.28m13.59 11.98h8.7m-40.49-11.98h-17.11m-23.97-23.97h117.53m11.98-11.99h-141.49m-11.99-11.98h165.47m11.98-11.99h-189.43m-11.99-11.98h213.41m11.98-11.99H3165.9m-4.4-11.98h253.76m11.98-11.99h-271.88m177.18 167.79h116.91m-11.98 11.99h-116.92m-11.98 11.98H3428m0 11.99h-131.42m-9.58 11.98h141m0 11.99h-141m0 11.98h141m0 11.99h-141m0 11.98h141m11.5 11.99H3287m0 11.98h4.84m-3.46 11.99h-12.68m-11.99 11.98h24.67m0 11.99h-36.65m-11.99 11.98h48.64m0 11.99h-60.62m-11.99 11.98h72.61m0 11.99h-96.16m16.67 11.98h79.49m0 11.99h-72.34m.16 11.98h72.18m0 11.99h-79.1m-28 11.98h107.1m0 11.99h-120.8m-.58 11.98h121.38m180.24-71.91H3543m-7.62-11.98h-66.76m0-11.99h54.78m-11.99-11.98h-42.79m0-11.99h30.81m-11.99-11.98h-18.82m0-11.99h6.84m44.95-35.95h10.09m1.22-11.99h-23.29m-11.99-11.98h43.51m-4.07 35.95h-3.48m-33.43-71.91H3494m-32.56-59.92h-116.92m11.99-11.99h116.91m11.99-11.98h-116.92m11.99-11.99h116.91m11.99-11.98h-116.92m11.99-11.99h116.91m11.99-11.98h-116.92m11.99-11.99h116.91m11.99-11.98H3440.4m11.99-11.99h116.91m11.99-11.98h-116.92m11.99-11.99h116.91m9 71.91H3989m0 11.99h-398.71m94.97-95.88h-196.92m11.99-11.99h196.91m11.99-11.98h-36.92m11.99-11.99h36.91m11.99-11.99h-36.92m11.99-11.98h36.91m-6.87-11.99h-18.06m17.27-35.95h-49.4m28.51-11.99h68.74m-4.87-11.98h-55.4m1.4-11.99h55.43m8.53-11.98h-68.92m-28.11-11.99H3823m0-11.98h-126.5m-2.65-11.99H3823m0-11.98h-129.18m2.68-11.99H3823m0-11.98h-129.55m-14.76-11.99H3823m0-11.98H2351.5m-1.37-11.99H3823m0-11.98H2354m11.98-11.99H3823m0-11.98H2377.97m11.98-11.99H3823m0-11.98H2401.94m11.98-11.99h1416.32M3841 721h10m-10 0v190m-18-25.52h-1.46m-28.42 47.94h-18.64m-215.67-11.99H2402.5m-12.32-11.98h1156.64m303.79-395.51H1582.98m-13.31-11.98h2290.25m127.98 107.86h1.1m0 11.99h-10.18m10.18 11.98h-23.49M3101 1586l-5 5m-735.13 540.93h-19.74M2200 2119.37v-14.5l-3.93 1.63h-10.14l-9.37-3.88-5.62-5.62h-61.57l-2.37-2.37v117.74l93-93m-.57.58H2107m0 11.98h80.44m-11.98 11.99H2107m0 11.98h56.47m-11.98 11.99H2107m0 11.98h32.5m-11.98 11.99H2107m0 11.98h8.53m-8.53-95.88h93m-91.65-11.98H2107m-122 0h-43m0 11.98h43m0 11.99h-43m0 11.98h43m0 11.99h-43m0 11.98h43m-3.51 11.99H1942m0 11.98h14.07m-8.88 11.99H1942m0 11.98h3.5m-3.5 11.99h7.76m-7.76 11.98h39.22m7.51 11.99H1942m0 11.98h73m0 11.99h-73m11.38 11.98H2015m0 11.99h-49.64m11.99 11.98H2015m0 11.99h-33m0 11.98h33m0 11.99h-33m0 11.98h33m0 11.99h-33m0 11.98h33m0 11.99h-33m0 11.98h33m0 11.99h-33m0 11.98h33m0 11.99h-33m0 11.98h33m2.9 11.99H1982m0 11.98h47.89m11.98 11.99h-54.74m11.98 11.98h54.75m11.98 11.99h-54.74m5.9 11.98h53m-5.98 11.99h-45.52m7.38 11.98h34.62m2.21 11.99h-36.35m-6.69 11.98h53.76m25.14 0h39.86m-10.72-11.98h-6.42m-10.58 0h-1.42m54.28 11.98h9.86m25.14 0h3.76m-220 0h-22.66m-37.34 0h-57.66m6.69-11.98h34.35m-16.75-11.99h-18.08m9.74-11.98h4.88m-41.05-35.96h-5.34m10.89-11.98h-22.87m-6.49 71.91h-9.28m-6.69 11.98h22.66m-60 0H1443m0-11.98h317.64m-3.84-11.99H1443m101.21 47.95h2340.98m-20.76 11.98H1566.77m13.31 11.99H3852.5m-8.71 11.98h-303.94m3.66 1.51l13.66 13.66 7.39 17.85v19.32l-7.39 17.85-13.66 13.66-17.85 7.39h-19.32l-17.85-7.39-13.66-13.66-7.39-17.85v-19.32l7.39-17.85 13.66-13.66 17.85-7.39h19.32l17.85 7.39m10.47 10.48h283.17m-2.54 11.98h-273.8m3.75 11.99h267.5m-.31 11.98h-267.19m-3.14 11.99h272.88m2.54 11.98h-281.4m-12.05 11.99h299.34m8.71 11.98H1581.71m7.35-11.98h1299.55m-.12-.05l-13.66-13.66-7.39-17.85v-19.32l7.39-17.85 13.66-13.66 17.85-7.39h19.32l17.85 7.39 13.66 13.66 7.39 17.85v19.32l-7.39 17.85-13.66 13.66-17.85 7.39h-19.32l-17.85-7.39m-11.93-11.94H1594.39m5.11-11.98h1271.08m-3.14-11.99H1599.5m0-11.98h1267.94m3.75-11.99H1599.08m-5.34-11.98h1284.28m14.13-11.99H1588.4m-20 107.87h2293.5m-373.29-23.97h-545.22m12.05-11.99h521.12m-5.98-11.98h-509.16m3.14-11.99h502.88m0-11.98h-502.88m-3.75-11.99h510.38m6.83-11.98h-524.04m-14.13-11.99h552.3M1985 2083.99h-43m0-11.98h43m0-11.99h-43m0-11.99h25.56m-10-11.98H1942m0-11.99h13.5m3.66-11.98H1942m0-11.99h38.5m3.24-11.98H1942m11.5-11.99h45.92m13.16 0h2.42m0-11.98h-49.51m11.98-11.99H2015m0-11.98h-25.54m11.98-11.99H2015m0-11.98h-3m0-11.99h3m0-11.98h-3m0-11.99h.89M1850 2251.78h-23.72m23.72 11.99h-50.7m-26.99 11.98H1850m0 11.99h-106.26m-13.38 11.98H1850m18.85-1150.57h-77.11m12.24-11.98h2.12m92.74-35.96h100.37m.79-11.98h-103m0-11.99h103m32 0h73m0-11.98h-73m0-11.99h66.48m-2.98-11.98H2032m0-11.99h66.25m13.3-11.98H2032m0-11.99h98m0-11.99h-98m0-11.98h98m0-11.99h-91.94m3.44-11.98h88.5m0-11.99h-90.79m-11.09-11.98h102.38m1.86-11.99h-114.17m11.99-11.98h111.31m29.02 0h49.41m-11.98 11.98h-28.3m1.86 11.99h14.45M2190 945.4h-12.37m12.37 11.99h-28m0 11.98h28m0 11.99h-2.58m49.58 0h93m0 11.98h-93m0 11.99h93m0 11.99h-93m0 11.98h93m-1.91 11.99H2237m0 11.98h79.1m-11.98 11.99H2237m0 11.98h55.13m-11.98 11.99h-34.86m6.21 11.98h16.66m-5.42 11.99h-12.12m5.19 11.98h-12.93m13.07 11.99h-59.45m-3.35 11.98h69.94m35.82 0h9.18m-98.97-23.97h-6.24m-97.88-23.97h-73m0-11.98h73m-15.58 23.97H2032m-.5 11.98h46.38m-2.38 11.99h-46.52m-12.24 11.98h62.11m-83.59 0h-82.11m3.35-11.98h66.52m-2.52-11.99h-66.38m-7.12-11.98h76.7m-14.51-47.94h-26.38m7.78-11.99h10.82m-.91-11.98h-7.16m-21.28-23.97H1897m0 11.98h9.64m-6.14 11.99h-3.5m0 11.98h4.41m-4.41 11.99h12.19m-12.19-59.93h47.04m5.96-11.99h-53m0-11.98h53m0-11.99h-53m18.67-11.98H1950m0-11.99h-28.5m-1.04-11.98H1950m2.94-11.99h-40.44m-12.32-11.98h64.74m11.99-11.99h-64.75m11.99-11.98h64.74m11.99-11.99h-64.75m11.99-11.98h64.74m11.99-11.99h-64.75m82.06 47.94h189.75m11.98-11.98h-189.74m11.98-11.99h189.75m17.31 47.94h12.58m10.46 0h36.71m-2.94 11.99h-68.79m-11.99 11.98H2330m0 11.99h-92.76m-.24 11.98h93m14.92-59.92h-31.89m3.47-11.99h40.41"/><path fill="none" stroke-width="8" d="M2346 931v115l-65 65v20m45 0l60-60V941m-40-10l45-45h1155l55 55h45l15-15m-10-25l-25 25h-20l-55-55H2281l-75 75v140l-20 20m-15 25v5m0-5l-10-10v-110l10-10m-25-55v180l-10 10m-15-20l-20 20m20-20v-75m25-95l10-10v-5m65 20v150l5 5m-5-155l55-55h15m0-110l225-225h1225m-60 25h-5l-10-10H2521l-195 195v15m-265 70l-80 80v105l5 5m-20-40l-40 40m40-40v-75l90-90h1545l20 20h10m-20 20l-25-25H2061m-100-30l-100 100v195m20-15l10 10v20m-10-30V956l15-15m-60 25v145l-10 10m-15-25l-30 30m30-30V956l145-145h1695l15 15h5m0 35l-35-35H1961m55 130v160l-10 10m-75 145h-65l-10-10m-25 25h95l140 140v95l70 70h115l115 115v380l-15 15m-30-10l30-30v-350l-105-105h-115l-80-80v-95l-130-130h-55l-20 15h-35l-5-5m-65 75h180l10-10v-20m-25-5l-10 10h-175l-25 25v485l-40 40m10 35l45-50v-480l30-30m5 25l-20 20v500l-50 50m20 30h5l40-40v-520l15-15h215l10-10v-20m-25-5v-20m0 20l-10 10h-200m20 50l-10 10v540l-30 30h-10m-105-95v-45l30-30v-405l10-10m-25-15l-10-10m10 10v420l-45 45v20m265 15v-75l10-10m30 35l-15 15m15-15v-155m-30-10v25m0-25l35-35h70l45-45h75l20 15v65l35 35v230l-30 30v50l10 10h75m25 45v-405l-30-30m-15 30l5 10 25 30v235l-10 10m-25 10v-265l-20-20v-35l5-5m-25-30l-10 10v50l35 35v240l-15 15v40m25-25l5-10m-45-30v-220l-35-35v-30l-30-30m0 50l-10 5v715l70 70v15m-30 15v-40l-55-55v-585l-10-5m-25 55v-140l25-25m-35 0l-5 5v155l-70 70v300l40 40v190l20 20m30-10l-35-35v-170l-40-40v-290l70-70m-30-10v-125l-10-10v-35m-35 5v20l30 30v110l-70 70v320l40 40v195l-5 5h-5m25 15v-220l-40-40v-310l70-70m40 100l10 10v200l-10 10m-35-20l30-30v-125l-20-20m110-10l30-30m-30 30v390l130 130v10m-35-5l-110-110v-495l10-10m175-2.1v-8.45l.02-.67.06-.67.09-.66.14-.65.17-.65.21-.63.25-.62.28-.61.32-.59.35-.57.39-.55.41-.52.45-.5.47-.47.5-.45.52-.41.55-.39.57-.35.59-.32.61-.28.62-.25.63-.21.65-.17.65-.14.66-.09.67-.06.67-.02h47l.67-.02.67-.06.66-.09.65-.14.65-.17.63-.21.62-.25.61-.28.59-.32.57-.35.55-.39.52-.41.5-.45.47-.47.45-.5.41-.52.39-.55.35-.57.32-.59.28-.61.25-.62.21-.63.17-.65.14-.65.09-.66.06-.67.02-.67V1884l-.02-.67-.06-.67-.09-.66-.14-.65-.17-.65-.21-.63-.25-.62-.28-.61-.32-.59-.35-.57-.39-.55-.41-.52-.45-.5-.47-.47-.5-.45-.52-.41-.55-.39-.57-.35-.59-.32-.61-.28-.62-.25-.63-.21-.65-.17-.65-.14-.66-.09-.67-.06-.67-.02h-12l-.67-.02-.67-.06-.66-.09-.65-.14-.65-.17-.63-.21-.62-.25-.61-.28-.59-.32-.57-.35-.55-.39-.52-.41-.5-.45-.47-.47-.45-.5-.41-.52-.39-.55-.35-.57-.32-.59-.28-.61-.25-.62-.21-.63-.17-.65-.14-.65-.09-.66-.06-.67-.02-.67v-110l-5-5h-5m-25-30l-15 15v405l-65 65v35l30 30m-5-50l90-90v-84.75l.02-.67.06-.67.09-.66.14-.65.17-.65.21-.63.25-.62.28-.61.32-.59.35-.57.39-.55.41-.52.45-.5.47-.47.5-.45.52-.41.55-.39.57-.35.59-.32.61-.28.62-.25.63-.21.65-.17.65-.14.66-.09.67-.06.67-.02h12l.67-.02.67-.06.66-.09.65-.14.65-.17.63-.21.62-.25.61-.28.59-.32.57-.35.55-.39.52-.41.5-.45.47-.47.45-.5.41-.52.39-.55.35-.57.32-.59.28-.61.25-.62.21-.63.17-.65.14-.65.09-.66.06-.67.02-.67v-8.45l-.02-.67-.06-.67-.09-.66-.14-.65-.17-.65-.21-.63-.25-.62-.28-.61-.32-.59-.35-.57-.39-.55-.41-.52-.45-.5-.47-.47-.5-.45-.52-.41-.55-.39-.57-.35-.59-.32-.61-.28-.62-.25-.63-.21-.65-.17-.65-.14-.66-.09-.67-.06-.67-.02h-47l-.67-.02-.67-.06-.66-.09-.65-.14-.65-.17-.63-.21-.62-.25-.61-.28-.59-.32-.57-.35-.55-.39-.52-.41-.5-.45-.47-.47-.45-.5-.41-.52-.39-.55-.35-.57-.32-.59-.28-.61-.25-.62-.21-.63-.17-.65-.14-.65-.09-.66-.06-.67-.02-.67v-8.45l.02-.67.06-.67.09-.66.14-.65.17-.65.21-.63.25-.62.28-.61.32-.59.35-.57.39-.55.41-.52.45-.5.47-.47.5-.45.52-.41.55-.39.57-.35.59-.32.61-.28.62-.25.63-.21.65-.17.65-.14.66-.09.67-.06.67-.02h47l.67-.02.67-.06.66-.09.65-.14.65-.17.63-.21.62-.25.61-.28.59-.32.57-.35.55-.39.52-.41.5-.45.47-.47.45-.5.41-.52.39-.55.35-.57.32-.59.28-.61.25-.62.21-.63.17-.65.14-.65.09-.66.06-.67.02-.67v-8.45l-.02-.67-.06-.67-.09-.66-.14-.65-.17-.65-.21-.63-.25-.62-.28-.61-.32-.59-.35-.57-.39-.55-.41-.52-.45-.5-.47-.47-.5-.45-.52-.41-.55-.39-.57-.35-.59-.32-.61-.28-.62-.25-.63-.21-.65-.17-.65-.14-.66-.09-.67-.06-.67-.02h-47l-.67-.02-.67-.06-.66-.09-.65-.14-.65-.17-.63-.21-.62-.25-.61-.28-.59-.32-.57-.35-.55-.39-.52-.41-.5-.45-.47-.47-.45-.5-.41-.52-.39-.55-.35-.57-.32-.59-.28-.61-.25-.62-.21-.63-.17-.65-.14-.65-.09-.66-.06-.67-.02-.67m60 167.1v25m60 0v-415l-125-125h-115l-60-60v-95l-150-150m-25 60v20m95.94 80.94l4.06-.94v20l-10 10h-230m35 120l-30 30v580l-50 50v35m30-15v-30l35-35v-570l15-15h15m5 25h20m-20 0l-20 20v545l-20 20v25m30-15v-20l5-5v-530l15-15h35m-25 25l-10 10v510l10 10m220 220l90 90v15m-90-105v-675l10-10m155-60l5 5v435l-75 75v65m-35 0v-50l95-95m320-15v-240l-105-105v-145l-15-15m30-10l-25-25m25 25v165l105 105v240l275 275m-25-5v115l20 20m85-15l15 15m-15-15v-300l-95-95h-110l-50 50h-35l-50-50v-365l-70-70h-25m25-20l85 85v350l10 10h5l5-5h215l115 115v135m100 0v-185l-95-95h-155l-10-10h-5l-15 10h-95l-45-45v-230l10-10m-25-60v340l10 10 10 10h315l75 75v350l15 15m85-15l15 15m-15-15v-385l-70-70h-185l-70-70v-355l-150-150h-210m75 175v5m40 465l265 265m320-60l10 20m-10-20v-925l40-40h35m5 30l70-70v-75l230-230h160l55-55h40m50-45l5 5h30m-140-10h-50m-40-5v-15m65 75H2641l-10 10m505 80l115 115h25m-75 220h-25m-20 30l-20 20v650l70 70v345l15 15m85-15l15 15m-15-15v-285l-140-140v-360l75-75h170l25-25m50-30v60l-55 55h-230l-20 20v350l150 150v120m-100 0v-180l-80-80v-610l40-35m15 435l-10 10v140l95 95m280 180h110l80-80m-1760 305v30m-60 0l-5-5m-70-35v-545l-20-20m-300-290l-10 10v655l175 175h105l30 30v25m-35-25v-5l-10-10h-95l-185-185v-680l25-25m0-35l-40 40v705l195 195h60l25 25"/><path fill="none" stroke-width="10" d="M3516 1226l45-45h170m-135 120l35 35m-35-35h-40"/></g><g id="pcb-stackup_bottom_ss"><path fill="none" stroke-width="6" d="M1645.43 2649v64.05l32.03-32.02h-42.71m64.46 10.67v10.68l10.67 10.67h21.36l10.67-10.67m21.75-21.35h42.71m21.75 10.67l10.67-10.67h21.36l10.67 10.67v10.68l-10.67 10.67h-21.36l-10.67-10.67v-10.68m10.67-10.67l-10.67-10.68v-10.67l10.67-10.68h21.36l10.67 10.68v10.67l-10.67 10.68m32.42 21.35v-42.7l10.68-10.68h21.35l10.68 10.68-42.71 42.7 10.68 10.67h21.35l10.68-10.67v-42.7m21.75 21.35h42.7m21.75-10.68l10.68 10.68h32.03v-21.35l-10.68-10.68h-21.35l-10.68 10.68v10.67m21.36 32.03l-21.36 10.67m21.36-10.67l21.35-21.35m21.75-32.03h42.7m-21.35 0v64.05l21.35-21.35m21.75 10.68l42.71-42.7-10.68-10.68h-21.35l-10.68 10.68v42.7l10.68 10.67h21.35l10.68-10.67v-42.7m21.75-10.68h42.7l-42.7 42.7v10.68l10.67 10.67h21.36l10.67-10.67m86.21 0v-42.7l10.67-10.68h21.36l10.67 10.68-42.7 42.7 10.67 10.67h21.36l10.67-10.67v-42.7m86.21 32.02l21.35-42.7 21.35 42.7m21.75-10.67v-10.68h42.71m0-10.67v21.35l-10.68 10.67h-21.35l-10.68-10.67m10.68-32.03h21.35l10.68 10.68m21.68 32.02h10.68l21.35-21.35m0-21.35v42.7m-891.63-42.7l-42.7 42.7m0-42.7h42.7"/></g><g id="pcb-stackup_bottom_sm"><use x="1516" y="566" xlink:href="#ry7H2QJosW_pad-10"/><use x="1516" y="2666" xlink:href="#ry7H2QJosW_pad-10"/><use x="3916" y="2666" xlink:href="#ry7H2QJosW_pad-10"/><use x="3916" y="566" xlink:href="#ry7H2QJosW_pad-10"/><use x="3516" y="2666" xlink:href="#ry7H2QJosW_pad-11"/><use x="2916" y="2666" xlink:href="#ry7H2QJosW_pad-11"/><use x="2921" y="2511" xlink:href="#ry7H2QJosW_pad-12"/><use x="2821" y="2511" xlink:href="#ry7H2QJosW_pad-12"/><use x="2766" y="2421" xlink:href="#ry7H2QJosW_pad-12"/><use x="2826" y="2381" xlink:href="#ry7H2QJosW_pad-12"/><use x="2931" y="2336" xlink:href="#ry7H2QJosW_pad-12"/><use x="3031" y="2336" xlink:href="#ry7H2QJosW_pad-12"/><use x="3131" y="2336" xlink:href="#ry7H2QJosW_pad-12"/><use x="3231" y="2336" xlink:href="#ry7H2QJosW_pad-12"/><use x="3331" y="2336" xlink:href="#ry7H2QJosW_pad-12"/><use x="3261" y="2211" xlink:href="#ry7H2QJosW_pad-12"/><use x="3311" y="2156" xlink:href="#ry7H2QJosW_pad-12"/><use x="3291" y="2111" xlink:href="#ry7H2QJosW_pad-12"/><use x="3310.13" y="2060.13" xlink:href="#ry7H2QJosW_pad-12"/><use x="3316" y="2016" xlink:href="#ry7H2QJosW_pad-12"/><use x="3206" y="1866" xlink:href="#ry7H2QJosW_pad-12"/><use x="3076" y="1901" xlink:href="#ry7H2QJosW_pad-12"/><use x="2891" y="1691" xlink:href="#ry7H2QJosW_pad-12"/><use x="3026" y="1636" xlink:href="#ry7H2QJosW_pad-12"/><use x="3096" y="1591" xlink:href="#ry7H2QJosW_pad-12"/><use x="3191" y="1431" xlink:href="#ry7H2QJosW_pad-12"/><use x="3156" y="1411" xlink:href="#ry7H2QJosW_pad-12"/><use x="3176" y="1381" xlink:href="#ry7H2QJosW_pad-12"/><use x="3196" y="1351" xlink:href="#ry7H2QJosW_pad-12"/><use x="3016" y="1411" xlink:href="#ry7H2QJosW_pad-12"/><use x="2896" y="1271" xlink:href="#ry7H2QJosW_pad-12"/><use x="2716" y="1411" xlink:href="#ry7H2QJosW_pad-12"/><use x="2701" y="1451" xlink:href="#ry7H2QJosW_pad-12"/><use x="2596" y="1376" xlink:href="#ry7H2QJosW_pad-12"/><use x="2426" y="1426" xlink:href="#ry7H2QJosW_pad-12"/><use x="2421" y="1466" xlink:href="#ry7H2QJosW_pad-12"/><use x="2421" y="1571" xlink:href="#ry7H2QJosW_pad-12"/><use x="2416" y="1606" xlink:href="#ry7H2QJosW_pad-12"/><use x="2471" y="1666" xlink:href="#ry7H2QJosW_pad-12"/><use x="2496" y="1641" xlink:href="#ry7H2QJosW_pad-12"/><use x="2596" y="1711" xlink:href="#ry7H2QJosW_pad-12"/><use x="2631" y="1731" xlink:href="#ry7H2QJosW_pad-12"/><use x="2621" y="1771" xlink:href="#ry7H2QJosW_pad-12"/><use x="2541" y="1821" xlink:href="#ry7H2QJosW_pad-12"/><use x="2456" y="1861" xlink:href="#ry7H2QJosW_pad-12"/><use x="2411" y="1931" xlink:href="#ry7H2QJosW_pad-12"/><use x="2326" y="1816" xlink:href="#ry7H2QJosW_pad-12"/><use x="2286" y="1746" xlink:href="#ry7H2QJosW_pad-12"/><use x="2261" y="1716" xlink:href="#ry7H2QJosW_pad-12"/><use x="2226" y="1691" xlink:href="#ry7H2QJosW_pad-12"/><use x="2186" y="1691" xlink:href="#ry7H2QJosW_pad-12"/><use x="2171" y="1721" xlink:href="#ry7H2QJosW_pad-12"/><use x="2151" y="1691" xlink:href="#ry7H2QJosW_pad-12"/><use x="2126" y="1661" xlink:href="#ry7H2QJosW_pad-12"/><use x="2056" y="1671" xlink:href="#ry7H2QJosW_pad-12"/><use x="2056" y="1721" xlink:href="#ry7H2QJosW_pad-12"/><use x="2071" y="1751" xlink:href="#ry7H2QJosW_pad-12"/><use x="2021" y="1746" xlink:href="#ry7H2QJosW_pad-12"/><use x="1986" y="1746" xlink:href="#ry7H2QJosW_pad-12"/><use x="1956" y="1731" xlink:href="#ry7H2QJosW_pad-12"/><use x="1921" y="1736" xlink:href="#ry7H2QJosW_pad-12"/><use x="1886" y="1736" xlink:href="#ry7H2QJosW_pad-12"/><use x="1856" y="1751" xlink:href="#ry7H2QJosW_pad-12"/><use x="1841" y="1686" xlink:href="#ry7H2QJosW_pad-12"/><use x="1866" y="1661" xlink:href="#ry7H2QJosW_pad-12"/><use x="1841" y="1636" xlink:href="#ry7H2QJosW_pad-12"/><use x="1816" y="1611" xlink:href="#ry7H2QJosW_pad-12"/><use x="1801" y="1581" xlink:href="#ry7H2QJosW_pad-12"/><use x="1671" y="1616" xlink:href="#ry7H2QJosW_pad-12"/><use x="1546" y="1616" xlink:href="#ry7H2QJosW_pad-12"/><use x="1546" y="1581" xlink:href="#ry7H2QJosW_pad-12"/><use x="1546" y="1651" xlink:href="#ry7H2QJosW_pad-12"/><use x="1566" y="1766" xlink:href="#ry7H2QJosW_pad-12"/><use x="1656" y="1911" xlink:href="#ry7H2QJosW_pad-12"/><use x="1666" y="1946" xlink:href="#ry7H2QJosW_pad-12"/><use x="1676" y="1981" xlink:href="#ry7H2QJosW_pad-12"/><use x="1696" y="2011" xlink:href="#ry7H2QJosW_pad-12"/><use x="1716" y="2041" xlink:href="#ry7H2QJosW_pad-12"/><use x="1611" y="1946" xlink:href="#ry7H2QJosW_pad-12"/><use x="1581" y="1926" xlink:href="#ry7H2QJosW_pad-12"/><use x="1666" y="2196" xlink:href="#ry7H2QJosW_pad-12"/><use x="1721" y="2276" xlink:href="#ry7H2QJosW_pad-12"/><use x="1751" y="2261" xlink:href="#ry7H2QJosW_pad-12"/><use x="1781" y="2246" xlink:href="#ry7H2QJosW_pad-12"/><use x="1811" y="2231" xlink:href="#ry7H2QJosW_pad-12"/><use x="1841" y="2216" xlink:href="#ry7H2QJosW_pad-12"/><use x="1961" y="2246" xlink:href="#ry7H2QJosW_pad-12"/><use x="1971" y="2201" xlink:href="#ry7H2QJosW_pad-12"/><use x="2006" y="2221" xlink:href="#ry7H2QJosW_pad-12"/><use x="1961" y="2116" xlink:href="#ry7H2QJosW_pad-12"/><use x="1981" y="2026" xlink:href="#ry7H2QJosW_pad-12"/><use x="2006" y="2001" xlink:href="#ry7H2QJosW_pad-12"/><use x="2006" y="1961" xlink:href="#ry7H2QJosW_pad-12"/><use x="2086" y="1926" xlink:href="#ry7H2QJosW_pad-12"/><use x="2021" y="1856" xlink:href="#ry7H2QJosW_pad-12"/><use x="1921" y="1856" xlink:href="#ry7H2QJosW_pad-12"/><use x="1906" y="1906" xlink:href="#ry7H2QJosW_pad-12"/><use x="1871" y="1906" xlink:href="#ry7H2QJosW_pad-12"/><use x="1856" y="1856" xlink:href="#ry7H2QJosW_pad-12"/><use x="1966" y="1641" xlink:href="#ry7H2QJosW_pad-12"/><use x="2006" y="1431" xlink:href="#ry7H2QJosW_pad-12"/><use x="1981" y="1406" xlink:href="#ry7H2QJosW_pad-12"/><use x="1956" y="1381" xlink:href="#ry7H2QJosW_pad-12"/><use x="1931" y="1356" xlink:href="#ry7H2QJosW_pad-12"/><use x="1906" y="1331" xlink:href="#ry7H2QJosW_pad-12"/><use x="1831" y="1286" xlink:href="#ry7H2QJosW_pad-12"/><use x="1806" y="1311" xlink:href="#ry7H2QJosW_pad-12"/><use x="1856" y="1261" xlink:href="#ry7H2QJosW_pad-12"/><use x="1941" y="1246" xlink:href="#ry7H2QJosW_pad-12"/><use x="1891" y="1136" xlink:href="#ry7H2QJosW_pad-12"/><use x="1861" y="1121" xlink:href="#ry7H2QJosW_pad-12"/><use x="1826" y="1121" xlink:href="#ry7H2QJosW_pad-12"/><use x="1781" y="1126" xlink:href="#ry7H2QJosW_pad-12"/><use x="1926" y="1046" xlink:href="#ry7H2QJosW_pad-12"/><use x="1986" y="1046" xlink:href="#ry7H2QJosW_pad-12"/><use x="2006" y="1126" xlink:href="#ry7H2QJosW_pad-12"/><use x="2101" y="1136" xlink:href="#ry7H2QJosW_pad-12"/><use x="2136" y="1136" xlink:href="#ry7H2QJosW_pad-12"/><use x="2171" y="1136" xlink:href="#ry7H2QJosW_pad-12"/><use x="2186" y="1106" xlink:href="#ry7H2QJosW_pad-12"/><use x="2226" y="1106" xlink:href="#ry7H2QJosW_pad-12"/><use x="2281" y="1131" xlink:href="#ry7H2QJosW_pad-12"/><use x="2326" y="1131" xlink:href="#ry7H2QJosW_pad-12"/><use x="2331" y="1196" xlink:href="#ry7H2QJosW_pad-12"/><use x="2156" y="1241" xlink:href="#ry7H2QJosW_pad-12"/><use x="2281" y="1386" xlink:href="#ry7H2QJosW_pad-12"/><use x="2131" y="1436" xlink:href="#ry7H2QJosW_pad-12"/><use x="2276" y="1551" xlink:href="#ry7H2QJosW_pad-12"/><use x="2231" y="1636" xlink:href="#ry7H2QJosW_pad-12"/><use x="2191" y="2006" xlink:href="#ry7H2QJosW_pad-12"/><use x="2161" y="2026" xlink:href="#ry7H2QJosW_pad-12"/><use x="2136" y="2051" xlink:href="#ry7H2QJosW_pad-12"/><use x="2191" y="2081" xlink:href="#ry7H2QJosW_pad-12"/><use x="2121" y="2116" xlink:href="#ry7H2QJosW_pad-12"/><use x="2206" y="2216" xlink:href="#ry7H2QJosW_pad-12"/><use x="2211" y="2266" xlink:href="#ry7H2QJosW_pad-12"/><use x="2156" y="2271" xlink:href="#ry7H2QJosW_pad-12"/><use x="2121" y="2271" xlink:href="#ry7H2QJosW_pad-12"/><use x="2121" y="2346" xlink:href="#ry7H2QJosW_pad-12"/><use x="2116" y="2526" xlink:href="#ry7H2QJosW_pad-12"/><use x="2086" y="2541" xlink:href="#ry7H2QJosW_pad-12"/><use x="2041" y="2531" xlink:href="#ry7H2QJosW_pad-12"/><use x="2001" y="2546" xlink:href="#ry7H2QJosW_pad-12"/><use x="1971" y="2526" xlink:href="#ry7H2QJosW_pad-12"/><use x="1941" y="2546" xlink:href="#ry7H2QJosW_pad-12"/><use x="1911" y="2526" xlink:href="#ry7H2QJosW_pad-12"/><use x="1866" y="2506" xlink:href="#ry7H2QJosW_pad-12"/><use x="1846" y="2546" xlink:href="#ry7H2QJosW_pad-12"/><use x="1811" y="2521" xlink:href="#ry7H2QJosW_pad-12"/><use x="1786" y="2546" xlink:href="#ry7H2QJosW_pad-12"/><use x="2151" y="2541" xlink:href="#ry7H2QJosW_pad-12"/><use x="2186" y="2541" xlink:href="#ry7H2QJosW_pad-12"/><use x="2221" y="2546" xlink:href="#ry7H2QJosW_pad-12"/><use x="2461" y="2396" xlink:href="#ry7H2QJosW_pad-12"/><use x="2496" y="2256" xlink:href="#ry7H2QJosW_pad-12"/><use x="2381" y="2116" xlink:href="#ry7H2QJosW_pad-12"/><use x="2351" y="2101" xlink:href="#ry7H2QJosW_pad-12"/><use x="2321" y="2116" xlink:href="#ry7H2QJosW_pad-12"/><use x="2261" y="2206" xlink:href="#ry7H2QJosW_pad-12"/><use x="2591" y="2091" xlink:href="#ry7H2QJosW_pad-12"/><use x="2606" y="2061" xlink:href="#ry7H2QJosW_pad-12"/><use x="2651" y="2151" xlink:href="#ry7H2QJosW_pad-12"/><use x="2766" y="2046" xlink:href="#ry7H2QJosW_pad-12"/><use x="2806" y="1896" xlink:href="#ry7H2QJosW_pad-12"/><use x="2841" y="2241" xlink:href="#ry7H2QJosW_pad-12"/><use x="3066" y="2236" xlink:href="#ry7H2QJosW_pad-12"/><use x="3021" y="2511" xlink:href="#ry7H2QJosW_pad-12"/><use x="3121" y="2511" xlink:href="#ry7H2QJosW_pad-12"/><use x="3221" y="2511" xlink:href="#ry7H2QJosW_pad-12"/><use x="3321" y="2511" xlink:href="#ry7H2QJosW_pad-12"/><use x="3571" y="2291" xlink:href="#ry7H2QJosW_pad-12"/><use x="3656" y="2111" xlink:href="#ry7H2QJosW_pad-12"/><use x="3656" y="2016" xlink:href="#ry7H2QJosW_pad-12"/><use x="3761" y="2211" xlink:href="#ry7H2QJosW_pad-12"/><use x="3776" y="2426" xlink:href="#ry7H2QJosW_pad-12"/><use x="3956" y="2306" xlink:href="#ry7H2QJosW_pad-12"/><use x="3526" y="1831" xlink:href="#ry7H2QJosW_pad-12"/><use x="3426" y="1661" xlink:href="#ry7H2QJosW_pad-12"/><use x="3436" y="1611" xlink:href="#ry7H2QJosW_pad-12"/><use x="3396" y="1596" xlink:href="#ry7H2QJosW_pad-12"/><use x="3486" y="1581" xlink:href="#ry7H2QJosW_pad-12"/><use x="3526" y="1551" xlink:href="#ry7H2QJosW_pad-12"/><use x="3526" y="1616" xlink:href="#ry7H2QJosW_pad-12"/><use x="3561" y="1441" xlink:href="#ry7H2QJosW_pad-12"/><use x="3601" y="1366" xlink:href="#ry7H2QJosW_pad-12"/><use x="3631" y="1336" xlink:href="#ry7H2QJosW_pad-12"/><use x="3581" y="1271" xlink:href="#ry7H2QJosW_pad-12"/><use x="3556" y="1301" xlink:href="#ry7H2QJosW_pad-12"/><use x="3516" y="1226" xlink:href="#ry7H2QJosW_pad-12"/><use x="3416" y="1166" xlink:href="#ry7H2QJosW_pad-12"/><use x="3311" y="1111" xlink:href="#ry7H2QJosW_pad-12"/><use x="3276" y="1161" xlink:href="#ry7H2QJosW_pad-12"/><use x="3136" y="1046" xlink:href="#ry7H2QJosW_pad-12"/><use x="3016" y="1001" xlink:href="#ry7H2QJosW_pad-12"/><use x="2631" y="966" xlink:href="#ry7H2QJosW_pad-12"/><use x="2581" y="1201" xlink:href="#ry7H2QJosW_pad-12"/><use x="2386" y="941" xlink:href="#ry7H2QJosW_pad-12"/><use x="2306" y="961" xlink:href="#ry7H2QJosW_pad-12"/><use x="2291" y="896" xlink:href="#ry7H2QJosW_pad-12"/><use x="2171" y="1001" xlink:href="#ry7H2QJosW_pad-12"/><use x="2121" y="1041" xlink:href="#ry7H2QJosW_pad-12"/><use x="2056" y="961" xlink:href="#ry7H2QJosW_pad-12"/><use x="2016" y="956" xlink:href="#ry7H2QJosW_pad-12"/><use x="1911" y="971" xlink:href="#ry7H2QJosW_pad-12"/><use x="1896" y="941" xlink:href="#ry7H2QJosW_pad-12"/><use x="1836" y="966" xlink:href="#ry7H2QJosW_pad-12"/><use x="1701" y="941" xlink:href="#ry7H2QJosW_pad-12"/><use x="1691" y="1301" xlink:href="#ry7H2QJosW_pad-12"/><use x="1616" y="1431" xlink:href="#ry7H2QJosW_pad-12"/><use x="1651" y="1456" xlink:href="#ry7H2QJosW_pad-12"/><use x="1531" y="1386" xlink:href="#ry7H2QJosW_pad-12"/><use x="2156" y="931" xlink:href="#ry7H2QJosW_pad-12"/><use x="2291" y="786" xlink:href="#ry7H2QJosW_pad-12"/><use x="2326" y="786" xlink:href="#ry7H2QJosW_pad-12"/><use x="3281" y="1591" xlink:href="#ry7H2QJosW_pad-12"/><use x="3736" y="1401" xlink:href="#ry7H2QJosW_pad-12"/><use x="3731" y="1181" xlink:href="#ry7H2QJosW_pad-12"/><use x="3526" y="1106" xlink:href="#ry7H2QJosW_pad-12"/><use x="3571" y="981" xlink:href="#ry7H2QJosW_pad-12"/><use x="3611" y="896" xlink:href="#ry7H2QJosW_pad-12"/><use x="3631" y="861" xlink:href="#ry7H2QJosW_pad-12"/><use x="3671" y="861" xlink:href="#ry7H2QJosW_pad-12"/><use x="3671" y="826" xlink:href="#ry7H2QJosW_pad-12"/><use x="3701" y="901" xlink:href="#ry7H2QJosW_pad-12"/><use x="3661" y="926" xlink:href="#ry7H2QJosW_pad-12"/><use x="3676" y="956" xlink:href="#ry7H2QJosW_pad-12"/><use x="3721" y="981" xlink:href="#ry7H2QJosW_pad-12"/><use x="3756" y="951" xlink:href="#ry7H2QJosW_pad-12"/><use x="3806" y="906" xlink:href="#ry7H2QJosW_pad-12"/><use x="3871" y="911" xlink:href="#ry7H2QJosW_pad-12"/><use x="3851" y="721" xlink:href="#ry7H2QJosW_pad-12"/><use x="3746" y="601" xlink:href="#ry7H2QJosW_pad-12"/><use x="3741" y="561" xlink:href="#ry7H2QJosW_pad-12"/><use x="3681" y="586" xlink:href="#ry7H2QJosW_pad-12"/><use x="3421" y="786" xlink:href="#ry7H2QJosW_pad-12"/></g><g id="pcb-stackup_bottom_drl1"><use x="1531" y="1386" xlink:href="#r14S3m1jsW_pad-1"/><use x="1616" y="1431" xlink:href="#r14S3m1jsW_pad-1"/><use x="1651" y="1456" xlink:href="#r14S3m1jsW_pad-1"/><use x="1546" y="1581" xlink:href="#r14S3m1jsW_pad-1"/><use x="1546" y="1616" xlink:href="#r14S3m1jsW_pad-1"/><use x="1546" y="1651" xlink:href="#r14S3m1jsW_pad-1"/><use x="1566" y="1766" xlink:href="#r14S3m1jsW_pad-1"/><use x="1656" y="1911" xlink:href="#r14S3m1jsW_pad-1"/><use x="1666" y="1946" xlink:href="#r14S3m1jsW_pad-1"/><use x="1676" y="1981" xlink:href="#r14S3m1jsW_pad-1"/><use x="1696" y="2011" xlink:href="#r14S3m1jsW_pad-1"/><use x="1716" y="2041" xlink:href="#r14S3m1jsW_pad-1"/><use x="1611" y="1946" xlink:href="#r14S3m1jsW_pad-1"/><use x="1581" y="1926" xlink:href="#r14S3m1jsW_pad-1"/><use x="1666" y="2196" xlink:href="#r14S3m1jsW_pad-1"/><use x="1721" y="2276" xlink:href="#r14S3m1jsW_pad-1"/><use x="1751" y="2261" xlink:href="#r14S3m1jsW_pad-1"/><use x="1781" y="2246" xlink:href="#r14S3m1jsW_pad-1"/><use x="1811" y="2231" xlink:href="#r14S3m1jsW_pad-1"/><use x="1841" y="2216" xlink:href="#r14S3m1jsW_pad-1"/><use x="1961" y="2246" xlink:href="#r14S3m1jsW_pad-1"/><use x="1971" y="2201" xlink:href="#r14S3m1jsW_pad-1"/><use x="2006" y="2221" xlink:href="#r14S3m1jsW_pad-1"/><use x="1961" y="2116" xlink:href="#r14S3m1jsW_pad-1"/><use x="1981" y="2026" xlink:href="#r14S3m1jsW_pad-1"/><use x="2006" y="2001" xlink:href="#r14S3m1jsW_pad-1"/><use x="2006" y="1961" xlink:href="#r14S3m1jsW_pad-1"/><use x="2086" y="1926" xlink:href="#r14S3m1jsW_pad-1"/><use x="2021" y="1856" xlink:href="#r14S3m1jsW_pad-1"/><use x="1921" y="1856" xlink:href="#r14S3m1jsW_pad-1"/><use x="1906" y="1906" xlink:href="#r14S3m1jsW_pad-1"/><use x="1871" y="1906" xlink:href="#r14S3m1jsW_pad-1"/><use x="1856" y="1856" xlink:href="#r14S3m1jsW_pad-1"/><use x="1856" y="1751" xlink:href="#r14S3m1jsW_pad-1"/><use x="1886" y="1736" xlink:href="#r14S3m1jsW_pad-1"/><use x="1921" y="1736" xlink:href="#r14S3m1jsW_pad-1"/><use x="1956" y="1731" xlink:href="#r14S3m1jsW_pad-1"/><use x="1986" y="1746" xlink:href="#r14S3m1jsW_pad-1"/><use x="2021" y="1746" xlink:href="#r14S3m1jsW_pad-1"/><use x="2056" y="1721" xlink:href="#r14S3m1jsW_pad-1"/><use x="2071" y="1751" xlink:href="#r14S3m1jsW_pad-1"/><use x="2056" y="1671" xlink:href="#r14S3m1jsW_pad-1"/><use x="2126" y="1661" xlink:href="#r14S3m1jsW_pad-1"/><use x="2151" y="1691" xlink:href="#r14S3m1jsW_pad-1"/><use x="2186" y="1691" xlink:href="#r14S3m1jsW_pad-1"/><use x="2171" y="1721" xlink:href="#r14S3m1jsW_pad-1"/><use x="2226" y="1691" xlink:href="#r14S3m1jsW_pad-1"/><use x="2261" y="1716" xlink:href="#r14S3m1jsW_pad-1"/><use x="2286" y="1746" xlink:href="#r14S3m1jsW_pad-1"/><use x="2326" y="1816" xlink:href="#r14S3m1jsW_pad-1"/><use x="2456" y="1861" xlink:href="#r14S3m1jsW_pad-1"/><use x="2411" y="1931" xlink:href="#r14S3m1jsW_pad-1"/><use x="2541" y="1821" xlink:href="#r14S3m1jsW_pad-1"/><use x="2621" y="1771" xlink:href="#r14S3m1jsW_pad-1"/><use x="2631" y="1731" xlink:href="#r14S3m1jsW_pad-1"/><use x="2596" y="1711" xlink:href="#r14S3m1jsW_pad-1"/><use x="2496" y="1641" xlink:href="#r14S3m1jsW_pad-1"/><use x="2471" y="1666" xlink:href="#r14S3m1jsW_pad-1"/><use x="2416" y="1606" xlink:href="#r14S3m1jsW_pad-1"/><use x="2421" y="1571" xlink:href="#r14S3m1jsW_pad-1"/><use x="2421" y="1466" xlink:href="#r14S3m1jsW_pad-1"/><use x="2426" y="1426" xlink:href="#r14S3m1jsW_pad-1"/><use x="2281" y="1386" xlink:href="#r14S3m1jsW_pad-1"/><use x="2131" y="1436" xlink:href="#r14S3m1jsW_pad-1"/><use x="2006" y="1431" xlink:href="#r14S3m1jsW_pad-1"/><use x="1981" y="1406" xlink:href="#r14S3m1jsW_pad-1"/><use x="1956" y="1381" xlink:href="#r14S3m1jsW_pad-1"/><use x="1931" y="1356" xlink:href="#r14S3m1jsW_pad-1"/><use x="1906" y="1331" xlink:href="#r14S3m1jsW_pad-1"/><use x="1831" y="1286" xlink:href="#r14S3m1jsW_pad-1"/><use x="1806" y="1311" xlink:href="#r14S3m1jsW_pad-1"/><use x="1856" y="1261" xlink:href="#r14S3m1jsW_pad-1"/><use x="1941" y="1246" xlink:href="#r14S3m1jsW_pad-1"/><use x="1891" y="1136" xlink:href="#r14S3m1jsW_pad-1"/><use x="1861" y="1121" xlink:href="#r14S3m1jsW_pad-1"/><use x="1826" y="1121" xlink:href="#r14S3m1jsW_pad-1"/><use x="1781" y="1126" xlink:href="#r14S3m1jsW_pad-1"/><use x="1926" y="1046" xlink:href="#r14S3m1jsW_pad-1"/><use x="1986" y="1046" xlink:href="#r14S3m1jsW_pad-1"/><use x="2006" y="1126" xlink:href="#r14S3m1jsW_pad-1"/><use x="2101" y="1136" xlink:href="#r14S3m1jsW_pad-1"/><use x="2136" y="1136" xlink:href="#r14S3m1jsW_pad-1"/><use x="2171" y="1136" xlink:href="#r14S3m1jsW_pad-1"/><use x="2186" y="1106" xlink:href="#r14S3m1jsW_pad-1"/><use x="2226" y="1106" xlink:href="#r14S3m1jsW_pad-1"/><use x="2281" y="1131" xlink:href="#r14S3m1jsW_pad-1"/><use x="2326" y="1131" xlink:href="#r14S3m1jsW_pad-1"/><use x="2331" y="1196" xlink:href="#r14S3m1jsW_pad-1"/><use x="2156" y="1241" xlink:href="#r14S3m1jsW_pad-1"/><use x="2121" y="1041" xlink:href="#r14S3m1jsW_pad-1"/><use x="2171" y="1001" xlink:href="#r14S3m1jsW_pad-1"/><use x="2156" y="931" xlink:href="#r14S3m1jsW_pad-1"/><use x="2056" y="961" xlink:href="#r14S3m1jsW_pad-1"/><use x="2016" y="956" xlink:href="#r14S3m1jsW_pad-1"/><use x="1911" y="971" xlink:href="#r14S3m1jsW_pad-1"/><use x="1896" y="941" xlink:href="#r14S3m1jsW_pad-1"/><use x="1836" y="966" xlink:href="#r14S3m1jsW_pad-1"/><use x="1701" y="941" xlink:href="#r14S3m1jsW_pad-1"/><use x="1691" y="1301" xlink:href="#r14S3m1jsW_pad-1"/><use x="1801" y="1581" xlink:href="#r14S3m1jsW_pad-1"/><use x="1816" y="1611" xlink:href="#r14S3m1jsW_pad-1"/><use x="1841" y="1636" xlink:href="#r14S3m1jsW_pad-1"/><use x="1866" y="1661" xlink:href="#r14S3m1jsW_pad-1"/><use x="1841" y="1686" xlink:href="#r14S3m1jsW_pad-1"/><use x="1966" y="1641" xlink:href="#r14S3m1jsW_pad-1"/><use x="2231" y="1636" xlink:href="#r14S3m1jsW_pad-1"/><use x="2276" y="1551" xlink:href="#r14S3m1jsW_pad-1"/><use x="2596" y="1376" xlink:href="#r14S3m1jsW_pad-1"/><use x="2701" y="1451" xlink:href="#r14S3m1jsW_pad-1"/><use x="2716" y="1411" xlink:href="#r14S3m1jsW_pad-1"/><use x="2896" y="1271" xlink:href="#r14S3m1jsW_pad-1"/><use x="3016" y="1411" xlink:href="#r14S3m1jsW_pad-1"/><use x="3156" y="1411" xlink:href="#r14S3m1jsW_pad-1"/><use x="3176" y="1381" xlink:href="#r14S3m1jsW_pad-1"/><use x="3196" y="1351" xlink:href="#r14S3m1jsW_pad-1"/><use x="3191" y="1431" xlink:href="#r14S3m1jsW_pad-1"/><use x="3319.4" y="1423.2" xlink:href="#r14S3m1jsW_pad-1"/><use x="3319.4" y="1462.6" xlink:href="#r14S3m1jsW_pad-1"/><use x="3358.8" y="1462.6" xlink:href="#r14S3m1jsW_pad-1"/><use x="3398.2" y="1462.6" xlink:href="#r14S3m1jsW_pad-1"/><use x="3437.6" y="1462.6" xlink:href="#r14S3m1jsW_pad-1"/><use x="3437.6" y="1423.2" xlink:href="#r14S3m1jsW_pad-1"/><use x="3437.6" y="1383.8" xlink:href="#r14S3m1jsW_pad-1"/><use x="3437.6" y="1344.4" xlink:href="#r14S3m1jsW_pad-1"/><use x="3398.2" y="1344.4" xlink:href="#r14S3m1jsW_pad-1"/><use x="3358.8" y="1344.4" xlink:href="#r14S3m1jsW_pad-1"/><use x="3319.4" y="1344.4" xlink:href="#r14S3m1jsW_pad-1"/><use x="3319.4" y="1383.8" xlink:href="#r14S3m1jsW_pad-1"/><use x="3358.8" y="1383.8" xlink:href="#r14S3m1jsW_pad-1"/><use x="3398.2" y="1383.8" xlink:href="#r14S3m1jsW_pad-1"/><use x="3398.2" y="1423.2" xlink:href="#r14S3m1jsW_pad-1"/><use x="3358.8" y="1423.2" xlink:href="#r14S3m1jsW_pad-1"/><use x="3281" y="1591" xlink:href="#r14S3m1jsW_pad-1"/><use x="3396" y="1596" xlink:href="#r14S3m1jsW_pad-1"/><use x="3436" y="1611" xlink:href="#r14S3m1jsW_pad-1"/><use x="3426" y="1661" xlink:href="#r14S3m1jsW_pad-1"/><use x="3486" y="1581" xlink:href="#r14S3m1jsW_pad-1"/><use x="3526" y="1551" xlink:href="#r14S3m1jsW_pad-1"/><use x="3526" y="1616" xlink:href="#r14S3m1jsW_pad-1"/><use x="3561" y="1441" xlink:href="#r14S3m1jsW_pad-1"/><use x="3601" y="1366" xlink:href="#r14S3m1jsW_pad-1"/><use x="3631" y="1336" xlink:href="#r14S3m1jsW_pad-1"/><use x="3581" y="1271" xlink:href="#r14S3m1jsW_pad-1"/><use x="3556" y="1301" xlink:href="#r14S3m1jsW_pad-1"/><use x="3516" y="1226" xlink:href="#r14S3m1jsW_pad-1"/><use x="3416" y="1166" xlink:href="#r14S3m1jsW_pad-1"/><use x="3311" y="1111" xlink:href="#r14S3m1jsW_pad-1"/><use x="3276" y="1161" xlink:href="#r14S3m1jsW_pad-1"/><use x="3136" y="1046" xlink:href="#r14S3m1jsW_pad-1"/><use x="3016" y="1001" xlink:href="#r14S3m1jsW_pad-1"/><use x="2631" y="966" xlink:href="#r14S3m1jsW_pad-1"/><use x="2581" y="1201" xlink:href="#r14S3m1jsW_pad-1"/><use x="2386" y="941" xlink:href="#r14S3m1jsW_pad-1"/><use x="2306" y="961" xlink:href="#r14S3m1jsW_pad-1"/><use x="2291" y="896" xlink:href="#r14S3m1jsW_pad-1"/><use x="2291" y="786" xlink:href="#r14S3m1jsW_pad-1"/><use x="2326" y="786" xlink:href="#r14S3m1jsW_pad-1"/><use x="3096" y="1591" xlink:href="#r14S3m1jsW_pad-1"/><use x="3026" y="1636" xlink:href="#r14S3m1jsW_pad-1"/><use x="2891" y="1691" xlink:href="#r14S3m1jsW_pad-1"/><use x="2806" y="1896" xlink:href="#r14S3m1jsW_pad-1"/><use x="2766" y="2046" xlink:href="#r14S3m1jsW_pad-1"/><use x="2651" y="2151" xlink:href="#r14S3m1jsW_pad-1"/><use x="2591" y="2091" xlink:href="#r14S3m1jsW_pad-1"/><use x="2606" y="2061" xlink:href="#r14S3m1jsW_pad-1"/><use x="2496" y="2256" xlink:href="#r14S3m1jsW_pad-1"/><use x="2461" y="2396" xlink:href="#r14S3m1jsW_pad-1"/><use x="2261" y="2206" xlink:href="#r14S3m1jsW_pad-1"/><use x="2206" y="2216" xlink:href="#r14S3m1jsW_pad-1"/><use x="2211" y="2266" xlink:href="#r14S3m1jsW_pad-1"/><use x="2156" y="2271" xlink:href="#r14S3m1jsW_pad-1"/><use x="2121" y="2271" xlink:href="#r14S3m1jsW_pad-1"/><use x="2121" y="2346" xlink:href="#r14S3m1jsW_pad-1"/><use x="2116" y="2526" xlink:href="#r14S3m1jsW_pad-1"/><use x="2086" y="2541" xlink:href="#r14S3m1jsW_pad-1"/><use x="2041" y="2531" xlink:href="#r14S3m1jsW_pad-1"/><use x="2001" y="2546" xlink:href="#r14S3m1jsW_pad-1"/><use x="1971" y="2526" xlink:href="#r14S3m1jsW_pad-1"/><use x="1941" y="2546" xlink:href="#r14S3m1jsW_pad-1"/><use x="1911" y="2526" xlink:href="#r14S3m1jsW_pad-1"/><use x="1866" y="2506" xlink:href="#r14S3m1jsW_pad-1"/><use x="1846" y="2546" xlink:href="#r14S3m1jsW_pad-1"/><use x="1811" y="2521" xlink:href="#r14S3m1jsW_pad-1"/><use x="1786" y="2546" xlink:href="#r14S3m1jsW_pad-1"/><use x="2151" y="2541" xlink:href="#r14S3m1jsW_pad-1"/><use x="2186" y="2541" xlink:href="#r14S3m1jsW_pad-1"/><use x="2221" y="2546" xlink:href="#r14S3m1jsW_pad-1"/><use x="2121" y="2116" xlink:href="#r14S3m1jsW_pad-1"/><use x="2191" y="2081" xlink:href="#r14S3m1jsW_pad-1"/><use x="2161" y="2026" xlink:href="#r14S3m1jsW_pad-1"/><use x="2136" y="2051" xlink:href="#r14S3m1jsW_pad-1"/><use x="2191" y="2006" xlink:href="#r14S3m1jsW_pad-1"/><use x="2321" y="2116" xlink:href="#r14S3m1jsW_pad-1"/><use x="2351" y="2101" xlink:href="#r14S3m1jsW_pad-1"/><use x="2381" y="2116" xlink:href="#r14S3m1jsW_pad-1"/><use x="2766" y="2421" xlink:href="#r14S3m1jsW_pad-1"/><use x="2826" y="2381" xlink:href="#r14S3m1jsW_pad-1"/><use x="2931" y="2336" xlink:href="#r14S3m1jsW_pad-1"/><use x="3031" y="2336" xlink:href="#r14S3m1jsW_pad-1"/><use x="3131" y="2336" xlink:href="#r14S3m1jsW_pad-1"/><use x="3231" y="2336" xlink:href="#r14S3m1jsW_pad-1"/><use x="3331" y="2336" xlink:href="#r14S3m1jsW_pad-1"/><use x="3261" y="2211" xlink:href="#r14S3m1jsW_pad-1"/><use x="3311" y="2156" xlink:href="#r14S3m1jsW_pad-1"/><use x="3291" y="2111" xlink:href="#r14S3m1jsW_pad-1"/><use x="3310.1" y="2060.1" xlink:href="#r14S3m1jsW_pad-1"/><use x="3316" y="2016" xlink:href="#r14S3m1jsW_pad-1"/><use x="3206" y="1866" xlink:href="#r14S3m1jsW_pad-1"/><use x="3076" y="1901" xlink:href="#r14S3m1jsW_pad-1"/><use x="3066" y="2236" xlink:href="#r14S3m1jsW_pad-1"/><use x="2841" y="2241" xlink:href="#r14S3m1jsW_pad-1"/><use x="2821" y="2511" xlink:href="#r14S3m1jsW_pad-1"/><use x="2921" y="2511" xlink:href="#r14S3m1jsW_pad-1"/><use x="3021" y="2511" xlink:href="#r14S3m1jsW_pad-1"/><use x="3121" y="2511" xlink:href="#r14S3m1jsW_pad-1"/><use x="3221" y="2511" xlink:href="#r14S3m1jsW_pad-1"/><use x="3321" y="2511" xlink:href="#r14S3m1jsW_pad-1"/><use x="3571" y="2291" xlink:href="#r14S3m1jsW_pad-1"/><use x="3656" y="2111" xlink:href="#r14S3m1jsW_pad-1"/><use x="3656" y="2016" xlink:href="#r14S3m1jsW_pad-1"/><use x="3761" y="2211" xlink:href="#r14S3m1jsW_pad-1"/><use x="3776" y="2426" xlink:href="#r14S3m1jsW_pad-1"/><use x="3956" y="2306" xlink:href="#r14S3m1jsW_pad-1"/><use x="3526" y="1831" xlink:href="#r14S3m1jsW_pad-1"/><use x="3736" y="1401" xlink:href="#r14S3m1jsW_pad-1"/><use x="3731" y="1181" xlink:href="#r14S3m1jsW_pad-1"/><use x="3526" y="1106" xlink:href="#r14S3m1jsW_pad-1"/><use x="3571" y="981" xlink:href="#r14S3m1jsW_pad-1"/><use x="3611" y="896" xlink:href="#r14S3m1jsW_pad-1"/><use x="3631" y="861" xlink:href="#r14S3m1jsW_pad-1"/><use x="3671" y="861" xlink:href="#r14S3m1jsW_pad-1"/><use x="3671" y="826" xlink:href="#r14S3m1jsW_pad-1"/><use x="3701" y="901" xlink:href="#r14S3m1jsW_pad-1"/><use x="3661" y="926" xlink:href="#r14S3m1jsW_pad-1"/><use x="3676" y="956" xlink:href="#r14S3m1jsW_pad-1"/><use x="3721" y="981" xlink:href="#r14S3m1jsW_pad-1"/><use x="3756" y="951" xlink:href="#r14S3m1jsW_pad-1"/><use x="3806" y="906" xlink:href="#r14S3m1jsW_pad-1"/><use x="3871" y="911" xlink:href="#r14S3m1jsW_pad-1"/><use x="3851" y="721" xlink:href="#r14S3m1jsW_pad-1"/><use x="3746" y="601" xlink:href="#r14S3m1jsW_pad-1"/><use x="3741" y="561" xlink:href="#r14S3m1jsW_pad-1"/><use x="3681" y="586" xlink:href="#r14S3m1jsW_pad-1"/><use x="3421" y="786" xlink:href="#r14S3m1jsW_pad-1"/><use x="1671" y="1616" xlink:href="#r14S3m1jsW_pad-1"/><use x="2916" y="2666" xlink:href="#r14S3m1jsW_pad-2"/><use x="3516" y="2666" xlink:href="#r14S3m1jsW_pad-2"/><use x="1516" y="566" xlink:href="#r14S3m1jsW_pad-3"/><use x="1516" y="2666" xlink:href="#r14S3m1jsW_pad-3"/><use x="3916" y="2666" xlink:href="#r14S3m1jsW_pad-3"/><use x="3916" y="566" xlink:href="#r14S3m1jsW_pad-3"/></g><clipPath id="pcb-stackup_bottom_out"><path fill="none" stroke-width="12" d="M1416 466h2600v2300H1416V466m2600 0l275.59.17m-118.11 3.87l-15.85 153.53 31.5.02-15.65-153.55-1.57 2472.44-15.65-153.56 31.49.02-15.84 153.54m118.11 4.01l-275.59-.18m180.43-1219.19l-4.84-4.84 4.84-14.51m-4.84-10.12l4.84-9.67 9.68-9.68-14.52 19.35m29.03-14.51l-14.51-4.84m-9.68 9.68l14.51 9.67 9.68-14.51m-4.84 24.63l4.84 4.83-4.84 14.52h-19.35l9.68-9.68M3488.44 2666l.02 1.05 2.81 11.11 7.08 9.01 10.14 5.35 11.43.76 10.76-3.95 8.22-7.99 4.26-10.64-.44-11.45-5.06-10.29-8.8-7.33-11.02-3.13-11.35 1.63-9.7 6.11-8.35 19.76m-600 0l.02 1.05 2.81 11.11 7.08 9.01 10.14 5.35 11.43.76 10.76-3.95 8.22-7.99 4.26-10.64-.44-11.45-5.06-10.29-8.8-7.33-11.02-3.13-11.35 1.63-9.7 6.11-8.35 19.76"/></clipPath><mask id="pcb-stackup_bottom_mech-mask"><g stroke="#000"><path fill="#fff" d="M1416 466h2875.59v2480.49H1416z"/><use xlink:href="#pcb-stackup_bottom_drl1"/></g></mask><mask id="pcb-stackup_bottom_cf-mask"><g fill="#fff" stroke="#fff"><use xlink:href="#pcb-stackup_bottom_sm"/></g></mask><mask id="pcb-stackup_bottom_sm-mask"><g stroke="#000"><path fill="#fff" d="M1416 466h2875.59v2480.49H1416z"/><use xlink:href="#pcb-stackup_bottom_sm"/></g></mask></defs><g><g mask="url(#pcb-stackup_bottom_mech-mask)" clip-path="url(#pcb-stackup_bottom_out)" transform="rotate(180 2853.795 1706.245)"><path fill="currentColor" d="M1416 466h2875.59v2480.49H1416z" class="pcb-stackup_fr4"/><use fill="currentColor" stroke="currentColor" xlink:href="#pcb-stackup_bottom_cu" class="pcb-stackup_cu"/><use fill="currentColor" stroke="currentColor" xlink:href="#pcb-stackup_bottom_cu" class="pcb-stackup_cf" mask="url(#pcb-stackup_bottom_cf-mask)"/><g mask="url(#pcb-stackup_bottom_sm-mask)"><path fill="currentColor" d="M1416 466h2875.59v2480.49H1416z" class="pcb-stackup_sm"/><use fill="currentColor" stroke="currentColor" xlink:href="#pcb-stackup_bottom_ss" class="pcb-stackup_ss"/></g><use fill="currentColor" stroke="currentColor" xlink:href="#pcb-stackup_bottom_sp" class="pcb-stackup_sp"/></g></g></svg>