<svg xmlns="http://www.w3.org/2000/svg" id="pcb-stackup_bottom" fill-rule="evenodd" stroke-width="0" stroke-linecap="round" stroke-linejoin="round" xmlns:xlink="http://www.w3.org/1999/xlink" clip-rule="evenodd" viewBox="514 614 1400 600"><defs><style>.pcb-stackup_fr4 {color: #4D542C;} .pcb-stackup_cu {color: lightgrey;} .pcb-stackup_cf {color: goldenrod;} .pcb-stackup_sm {color: #2E0051; opacity: 0.9;} .pcb-stackup_ss {color: white;} .pcb-stackup_sp {color: #000000; opacity: 0;} .pcb-stackup_out {color: black;}</style><circle id="B1ZJ6Xkis-_pad-10" r="75"/><circle id="B1ZJ6Xkis-_pad-12" r="33"/><circle id="B1ZJ6Xkis-_pad-14" r="13.5"/><circle id="B1ZJ6Xkis-_pad-10" r="75"/><circle id="B1ZJ6Xkis-_pad-12" r="33"/><circle id="B1ZJ6Xkis-_pad-14" r="13.5"/><circle id="B1ZJ6Xkis-_pad-10" r="75"/><circle id="B1ZJ6Xkis-_pad-12" r="33"/><circle id="B1ZJ6Xkis-_pad-14" r="13.5"/><circle id="B1ZJ6Xkis-_pad-10" r="75"/><circle id="B1ZJ6Xkis-_pad-12" r="33"/><circle id="B1ZJ6Xkis-_pad-14" r="13.5"/><circle id="rJ7JpQJos-_pad-10" r="78"/><circle id="rJ7JpQJos-_pad-12" r="36"/><circle id="rJ7JpQJos-_pad-13" r="16.5"/><circle id="B1ZJ6Xkis-_pad-10" r="75"/><circle id="B1ZJ6Xkis-_pad-12" r="33"/><circle id="B1ZJ6Xkis-_pad-14" r="13.5"/><circle id="B1ZJ6Xkis-_pad-10" r="75"/><circle id="B1ZJ6Xkis-_pad-12" r="33"/><circle id="B1ZJ6Xkis-_pad-14" r="13.5"/><circle id="B1ZJ6Xkis-_pad-10" r="75"/><circle id="B1ZJ6Xkis-_pad-12" r="33"/><circle id="B1ZJ6Xkis-_pad-14" r="13.5"/><circle id="B1ZJ6Xkis-_pad-10" r="75"/><circle id="B1ZJ6Xkis-_pad-12" r="33"/><circle id="B1ZJ6Xkis-_pad-14" r="13.5"/><circle id="rJ7JpQJos-_pad-10" r="78"/><circle id="rJ7JpQJos-_pad-12" r="36"/><circle id="rJ7JpQJos-_pad-13" r="16.5"/><circle id="ryHJp7yijb_pad-1" r="6.5"/><circle id="ryHJp7yijb_pad-2" r="13.8"/><circle id="ryHJp7yijb_pad-3" r="19.7"/><circle id="ryHJp7yijb_pad-4" r="39.35"/><circle id="B1ZJ6Xkis-_pad-10" r="75"/><circle id="B1ZJ6Xkis-_pad-12" r="33"/><circle id="B1ZJ6Xkis-_pad-14" r="13.5"/><circle id="B1ZJ6Xkis-_pad-10" r="75"/><circle id="B1ZJ6Xkis-_pad-12" r="33"/><circle id="B1ZJ6Xkis-_pad-14" r="13.5"/><circle id="B1ZJ6Xkis-_pad-10" r="75"/><circle id="B1ZJ6Xkis-_pad-12" r="33"/><circle id="B1ZJ6Xkis-_pad-14" r="13.5"/><circle id="B1ZJ6Xkis-_pad-10" r="75"/><circle id="B1ZJ6Xkis-_pad-12" r="33"/><circle id="B1ZJ6Xkis-_pad-14" r="13.5"/><circle id="rJ7JpQJos-_pad-10" r="78"/><circle id="rJ7JpQJos-_pad-12" r="36"/><circle id="rJ7JpQJos-_pad-13" r="16.5"/><circle id="B1ZJ6Xkis-_pad-10" r="75"/><circle id="B1ZJ6Xkis-_pad-12" r="33"/><circle id="B1ZJ6Xkis-_pad-14" r="13.5"/><circle id="B1ZJ6Xkis-_pad-10" r="75"/><circle id="B1ZJ6Xkis-_pad-12" r="33"/><circle id="B1ZJ6Xkis-_pad-14" r="13.5"/><circle id="B1ZJ6Xkis-_pad-10" r="75"/><circle id="B1ZJ6Xkis-_pad-12" r="33"/><circle id="B1ZJ6Xkis-_pad-14" r="13.5"/><circle id="B1ZJ6Xkis-_pad-10" r="75"/><circle id="B1ZJ6Xkis-_pad-12" r="33"/><circle id="B1ZJ6Xkis-_pad-14" r="13.5"/><circle id="rJ7JpQJos-_pad-10" r="78"/><circle id="rJ7JpQJos-_pad-12" r="36"/><circle id="rJ7JpQJos-_pad-13" r="16.5"/><circle id="ryHJp7yijb_pad-1" r="6.5"/><circle id="ryHJp7yijb_pad-2" r="13.8"/><circle id="ryHJp7yijb_pad-3" r="19.7"/><circle id="ryHJp7yijb_pad-4" r="39.35"/><g id="pcb-stackup_bottom_cu"><use x="693.92" y="770.3" xlink:href="#B1ZJ6Xkis-_pad-10"/><use x="693.92" y="1057.7" xlink:href="#B1ZJ6Xkis-_pad-10"/><path fill="none" stroke-width="41.56" d="M803.94 945.5h41.56m51.18 31.49h41.56m0-62.99h-41.56m-51.18-31.5h-41.56m92.74-31.49h41.56"/><use x="964" y="664" xlink:href="#B1ZJ6Xkis-_pad-12"/><use x="1064" y="664" xlink:href="#B1ZJ6Xkis-_pad-12"/><use x="1164" y="664" xlink:href="#B1ZJ6Xkis-_pad-12"/><use x="1264" y="664" xlink:href="#B1ZJ6Xkis-_pad-12"/><use x="1364" y="664" xlink:href="#B1ZJ6Xkis-_pad-12"/><use x="1464" y="664" xlink:href="#B1ZJ6Xkis-_pad-12"/><use x="1564" y="664" xlink:href="#B1ZJ6Xkis-_pad-12"/><use x="1664" y="664" xlink:href="#B1ZJ6Xkis-_pad-12"/><use x="1764" y="664" xlink:href="#B1ZJ6Xkis-_pad-12"/><use x="1864" y="664" xlink:href="#B1ZJ6Xkis-_pad-12"/><use x="1864" y="1164" xlink:href="#B1ZJ6Xkis-_pad-12"/><use x="1764" y="1164" xlink:href="#B1ZJ6Xkis-_pad-12"/><use x="1664" y="1164" xlink:href="#B1ZJ6Xkis-_pad-12"/><use x="1564" y="1164" xlink:href="#B1ZJ6Xkis-_pad-12"/><use x="1464" y="1164" xlink:href="#B1ZJ6Xkis-_pad-12"/><use x="1364" y="1164" xlink:href="#B1ZJ6Xkis-_pad-12"/><use x="1264" y="1164" xlink:href="#B1ZJ6Xkis-_pad-12"/><use x="1164" y="1164" xlink:href="#B1ZJ6Xkis-_pad-12"/><use x="1064" y="1164" xlink:href="#B1ZJ6Xkis-_pad-12"/><use x="964" y="1164" xlink:href="#B1ZJ6Xkis-_pad-12"/><path fill="none" stroke-width="8" d="M533 1195V633h401.19l-6.64 6.64-6.55 15.81v17.1l6.55 15.81 12.09 12.09 15.81 6.55h17.1l15.81-6.55 12.09-12.09 6.55-15.81v-17.1l-6.55-15.81-6.64-6.64h40.38l-6.64 6.64-6.55 15.81v17.1l6.55 15.81 12.09 12.09 15.81 6.55h17.1l15.81-6.55 12.09-12.09 6.55-15.81v-17.1l-6.55-15.81-6.64-6.64h40.38l-6.64 6.64-6.55 15.81v17.1l6.55 15.81 12.09 12.09 15.81 6.55h17.1l10.36-4.29L1235 754.8l8.2 8.2h103.57l-11.27 11.27v19.46l13.77 13.77h19.46l13.77-13.77V780.3l17.3-17.3h204.97l9.5 9.5h19.46l13.77-13.77v-19.46l-13.77-13.77h-19.46l-9.5 9.5H1254.8l-52.09-52.09 4.29-10.36v-17.1l-6.55-15.81-6.64-6.64h40.38l-6.64 6.64-6.55 15.81v17.1l6.55 15.81 12.09 12.09 15.81 6.55h17.1l15.81-6.55 12.09-12.09 6.55-15.81v-17.1l-6.55-15.81-6.64-6.64h40.38l-6.64 6.64-6.55 15.81v17.1l6.55 15.81 12.09 12.09 15.81 6.55h17.1l15.81-6.55 12.09-12.09 6.55-15.81v-17.1l-6.55-15.81-6.64-6.64h40.38l-6.64 6.64-6.55 15.81v17.1l6.55 15.81 12.09 12.09 15.81 6.55h17.1l15.81-6.55 12.09-12.09 6.55-15.81v-17.1l-6.55-15.81-6.64-6.64h40.38l-6.64 6.64-6.55 15.81v17.1l6.55 15.81 12.09 12.09 15.81 6.55h17.1l15.81-6.55 12.09-12.09 6.55-15.81v-17.1l-6.55-15.81-6.64-6.64h40.38l-6.64 6.64-6.55 15.81v17.1l6.55 15.81 12.09 12.09 15.81 6.55h17.1l15.81-6.55 8.65-8.65 58.65 58.66v18.12l13.76 13.76h19.47l13.77-13.76v-19.47l-13.77-13.77h-8.75l-30.92-30.92 6.23 2.58h17.1l15.81-6.55 12.09-12.09 6.55-15.81v-17.1l-6.55-15.81-6.64-6.64h40.38l-6.64 6.64-6.55 15.81v17.1l6.55 15.81 12.09 12.09 15.81 6.55h17.1l15.81-6.55 6.64-6.64v434.72l-.38-.38-5.99-4.35-6.59-3.36-7.03-2.28-7.01-1.11V1160h-8v-42.95l-7.01 1.11-7.03 2.28-6.59 3.36-5.99 4.35-5.23 5.23-4.35 5.99-3.36 6.59-2.28 7.03-1.11 7.01H1860v8h-42.95l1.11 7.01 2.28 7.03 3.36 6.59 4.35 5.99.38.38h-34.72l6.64-6.64 6.55-15.81v-17.1l-6.55-15.81-12.09-12.09-15.81-6.55h-17.1l-15.81 6.55-12.09 12.09-6.55 15.81v17.1l6.55 15.81 6.64 6.64h-40.38l6.64-6.64 6.55-15.81v-17.1l-6.55-15.81-12.09-12.09-15.81-6.55h-17.1l-15.81 6.55-12.09 12.09-6.55 15.81v17.1l6.55 15.81 6.64 6.64h-40.38l6.64-6.64 6.55-15.81v-17.1l-6.55-15.81-12.09-12.09-15.81-6.55h-17.1l-15.81 6.55-12.09 12.09-6.55 15.81v17.1l6.55 15.81 6.64 6.64h-40.38l6.64-6.64 6.55-15.81v-17.1l-6.55-15.81-12.09-12.09-15.81-6.55h-17.1l-15.81 6.55-12.09 12.09-6.55 15.81v17.1l6.55 15.81 6.64 6.64h-40.38l6.64-6.64 6.55-15.81v-17.1l-6.55-15.81-12.09-12.09-15.81-6.55h-17.1l-15.81 6.55-12.09 12.09-6.55 15.81v17.1l6.55 15.81 6.64 6.64h-40.38l6.64-6.64 6.55-15.81v-17.1l-6.55-15.81-12.09-12.09-15.81-6.55h-17.1l-15.81 6.55-12.09 12.09-6.55 15.81v17.1l6.55 15.81 6.64 6.64h-40.38l6.64-6.64 6.55-15.81v-17.1l-6.55-15.81-12.09-12.09-15.81-6.55h-17.1l-15.81 6.55-12.09 12.09-6.55 15.81v17.1l6.55 15.81 6.64 6.64h-34.72l.38-.38 4.35-5.99 3.36-6.59 2.28-7.03 1.11-7.01H1068v-8h42.95l-1.11-7.01-2.28-7.03-3.36-6.59-4.35-5.99-5.23-5.23-5.99-4.35-6.59-3.36-7.03-2.28-7.01-1.11V1160h-8v-42.95l-7.01 1.11-7.03 2.28-6.59 3.36-5.99 4.35-5.23 5.23-4.35 5.99-3.36 6.59-2.28 7.03-1.11 7.01H1060v8h-42.95l1.11 7.01 2.28 7.03 3.36 6.59 4.35 5.99.38.38h-34.72l6.64-6.64 6.55-15.81v-17.1l-6.55-15.81-12.09-12.09-15.81-6.55h-17.1l-15.81 6.55-12.09 12.09-6.55 15.81v17.1l6.55 15.81 6.64 6.64H533m0-6.07h395.12m-3.64-7.99H533m0-7.98h388.17m-.17-7.99H533m0-7.98h388m2.67-7.99H533m0-7.98h139.95m4.06 1.68l-31.24-12.94-23.91-23.91-12.94-31.24v-33.82l12.94-31.24 23.91-23.91 31.24-12.94h33.82l31.24 12.94 23.91 23.91 12.94 31.24v33.82l-12.94 31.24-23.91 23.91-31.24 12.94h-33.82m-23.34-9.67H533m0-7.98h108.06m-7.99-7.99H533m0-7.98h92.09m-5.2-7.99H533m0-7.98h83.58m-3.3-7.99H533m0-7.98h76.97m-1.05-7.99H533m0-7.98h75.92m0-7.99H533m0-7.98h75.92m1.49-7.99H533m0-7.98h80.71m3.31-7.99H533m0-7.98h87.33m5.81-7.99H533m0-7.98h101.13m7.98-7.99H533m0-7.98h123.22m19.27-7.99H533m0-7.99h247.26m-2.42-2.41l-4.68-11.31v-12.25l4.68-11.31 8.66-8.66 11.31-4.68h53.81l11.31 4.68 4.56 4.56-1.59-3.84v-12.24l1.59-3.84-4.56 4.56-11.31 4.68h-53.81l-11.31-4.68-8.66-8.66-4.68-11.31v-12.25l4.68-11.31 8.66-8.66 11.31-4.69h53.81l10.61 4.4-.33-1.69v-.53h31.89v-5.78h5.78v5.78h73.45v.53l-1.34 6.72-2.62 6.33-3.81 5.7-4.84 4.84-5.7 3.81-6.33 2.62-.71.14 8 3.32 8.66 8.65 4.69 11.32v12.24l-4.69 11.32-8.66 8.65-11.31 4.69h-53.81l-11.31-4.69-4.55-4.55 1.59 3.83v12.25l-1.59 3.83 4.55-4.55 11.31-4.69h53.81l11.31 4.69 8.66 8.66 4.69 11.31v12.24l-4.69 11.32-8.66 8.66-11.31 4.68h-53.81l-11.31-4.68-8.66-8.66-4.68-11.32v-12.24l1.59-3.84-4.56 4.56-11.31 4.69h-53.81l-11.31-4.69-8.66-8.66m-2.3-5.57H533m0-7.99h240.16m0-7.98H533m0-7.99h242.63m4.85-7.98H533m0-7.99h258.25m-2.69-7.98H533m0-7.99h246.37m-4.2-7.98H533m0-7.99h240.16m0-7.98H533m0-7.99h243m5.37-7.98H533m0-7.99h139.8m4.21 1.75l-31.24-12.94-23.91-23.91-12.94-31.24v-33.82l12.94-31.24 23.91-23.91 31.24-12.94h33.82l31.24 12.94 23.91 23.91 12.94 31.24v33.82l-12.94 31.24-23.91 23.91-31.24 12.94h-33.82m-23.49-9.73H533m0-7.99h108m-7.99-7.98H533m0-7.99h92.03m-5.16-7.98H533m0-7.99h83.56m-3.31-7.98H533m0-7.99h76.94m-1.02-7.98H533m0-7.99h75.92m0-7.98H533m0-7.99h75.92m1.51-7.98H533m0-7.99h80.74m3.31-7.98H533m0-7.99h87.35m5.86-7.98H533m0-7.99h101.19m7.99-7.98H533m0-7.99h123.37m19.28-7.98H533m0-7.99h390.21M921 669.9H533m0-7.99h388m.63-7.98H533m0-7.99h391.94m4.29-7.98H533m179.2 47.91h214.31m6.53 7.98H731.47m14.2 7.99h197.31m42.04 0h57.96m-9.94-7.99h-38.08m6.53-7.98h25.02m-3.3-7.99h-18.42m2.21-7.98h14m0-7.99h-14m-.63-7.98h15.26m3.31-7.99h-21.88m-4.29-7.98h30.46m69.54 0h30.46m-4.29 7.98h-21.88m3.31 7.99h15.26m-.63 7.98h-14m0 7.99h14m2.21 7.98h-18.42m-3.3 7.99h25.02m6.53 7.98h-38.08m-9.94 7.99h57.96M1164 664l85 85h145l-35 35m23.5-2.31h386.27m-7.99-7.99H1389.1m7.98-7.98h210.4M1624 749h-230m-8.98-47.16h57.96m-9.94-7.99h-38.08m6.53-7.98h25.02m-3.3-7.99h-18.42m2.21-7.98h14m0-7.99h-14m-.63-7.98h15.26m3.31-7.99h-21.88m-4.29-7.98h30.46m69.54 0h30.46m-4.29 7.98h-21.88m3.31 7.99h15.26m-.63 7.98h-14m0 7.99h14m2.21 7.98h-18.42m-3.3 7.99h25.02m6.53 7.98h-38.08m-9.94 7.99h57.96m42.04 0h57.96m-9.94-7.99h-38.08m6.53-7.98h25.02m-3.3-7.99h-18.42m2.21-7.98h14m0-7.99h-14m-.63-7.98h15.26m3.31-7.99h-21.88m-4.29-7.98h30.46M1664 664h25l90.16 90.16v4.68m16.15-17.08H1895m0-7.98h-116.42m-7.99-7.99H1895m0-7.98h-132.39m-7.99-7.99H1895m0-7.98h-9.98m9.94-7.99h.04m-52.02 7.99h-57.96m9.94-7.99h38.08m-6.53-7.98h-25.02m3.3-7.99h18.42m-2.21-7.98h-14m0-7.99h14m.63-7.98h-15.26m-3.31-7.99h21.88m4.29-7.98h-30.46m-83.75 71.86h-485.4m-7.98-7.98h21.34m-9.94-7.99h-19.39m-7.99-7.98h20.85m-3.3-7.99h-18.42m2.21-7.98h14m0-7.99h-14m-.63-7.98h15.26m3.31-7.99h-21.88m-4.29-7.98h30.46m69.54 0h30.46m-4.29 7.98h-21.88m3.31 7.99h15.26m-.63 7.98h-14m0 7.99h14m2.21 7.98h-18.42m-3.3 7.99h25.02m6.53 7.98h-38.08m-9.94 7.99h57.96m1.07 63.88H778.92m0 7.98h557.14m-.56 7.99H778.92m-1.02 7.98h557.6m3.92 7.99H774.59m-3.31 7.98h576.13m23.18 0H1895m0-7.98h-516.42m3.92-7.99H1895m0-7.98h-105.45m7.98-7.99H1895m0-7.98h-92.34m0-7.99H1895m0-7.98h-92.34m-47 7.98H1647.5m0-7.98h107.45m-7.99-7.99h-99.46m-5.49-7.98h96.97m-7.99-7.99h-96.96m-20.06 0h-368.38m-7.98-7.98h485.4m-15.97-15.97h-22.02m9.94-7.99h4.09m-93.06 39.93h-352.41m-23.63 15.97H777.41m1.51 7.98h459.01m-15.97-15.97H774.1m-3.3-7.98h443.18m-7.99-7.99h-438.5m-5.85-7.98h436.37m-7.99-7.99H753.65m14.33 103.81H1895m0 7.98H956.84m-2.13-1.42l5.7 3.8 4.84 4.85 3.81 5.69 2.62 6.33 1.34 6.72v.54h-73.45v-31.89h42.09l6.72 1.33 6.33 2.63m11.05 9.41H1895m0 7.98H970.32m2.29 7.99H1895m0 7.98H899.57m-5.78 0h-37.76m5.87-5.43v-.54l1.33-6.72 2.63-6.33 3.8-5.69 4.85-4.85 5.69-3.8 6.33-2.63 6.72-1.33h.54v31.89H861.9m.4-2.55H734.32m12.53-7.99h117.74m4.56-7.98H754.83m7.99-7.99h115.25m15.72 0h5.78m0 7.99h-5.78m0 7.98h5.78m0 7.99h-5.78m56.06 39.92H1895m0-7.98H960.92m6.77-7.99H1895m0-7.98H971.52m-10.28 31.94h55.05m2.98-2.98h19.46l9.5 9.5h201.57l50.5 50.5h13.43l13.77 13.77v19.46l-13.77 13.77h-19.46l-13.77-13.77V970.3l-23-23v6.43l-13.77 13.77h-19.46l-9.5-9.5h-186.54l-9.5 9.5h-19.46l-13.77-13.77v-19.46l13.77-13.77h6.23v-16.23l13.77-13.77m-10.97 10.96h-41.94m2.66 7.99h36.48m0 7.98h-36.48m-2.2 7.99h27.53m-7.99 7.98h-24m-9.82 7.99h32.96m0 7.98h-33.51m10.14 7.99h27m7.98 7.98h-30.38m2.29 7.99h311.48m0 7.99H969.02m-2.57 7.98h319.62m7.98 7.99H961.47m-11.07 7.98H1895m0-7.98h-581.05m7.98-7.99H1895m0-7.98h-567.5m0-7.99H1895m0-7.99h-567.5m-6.91-7.98H1895m0-7.99h-595.83m-7.98-7.98H1895m0-7.99h-611.8m-7.98-7.98H1895m0-7.99h-627.77m-7.98-7.98H1895m0-7.99h-643.74M1244 914l60 60m-28.45-8.66h-29.66m7.98-7.98h13.69m-7.98-7.99h-2.08M1234 944h-225m11.89 21.34h201.22M1244 914h-215m12.71-20.52H1895m0 119.78H767.51m3.31 7.98H1895m0 7.99H774.13m3.31 7.98H1895m0 7.99H778.92m0 7.98H1895m0 7.99H778.92m0 7.98H1895m0 7.99H777.87m-3.3 7.98H1895m0 7.99H771.26m-3.31 7.98H1895m0 7.99H762.75m-7.98 7.98h305.14m.09 0h8m.09 0h791.82m.09 0h8m.09 0H1895m0 7.99h-4.65m-22.35 0h-8m0 7.98h8m0 7.99h-8m0 7.98h8m0 7.99h-8m0 7.98h-53m0-7.98h10.52m1.93-7.99h-15.12m-3.31-7.98h21.94m5.54-7.99h-34.66m-11.52-7.98h55.33m-19.82 47.91h-11m-3.31 7.98h16.57m3.93 7.99h-24.14m-71.76 0h-28.24m3.64-7.99h20.96m-3.31-7.98h-14.34m.17-7.99h14m0-7.98h-14m-2.67-7.99h19.34m3.31-7.98h-25.96m-7.18-7.99h40.32m11.52-7.98h-63.36m-36.64 0h-63.36m11.52 7.98h40.32m-7.18 7.99h-25.96m3.31 7.98h19.34m-2.67 7.99h-14m0 7.98h14m.17 7.99h-14.34m-3.31 7.98h20.96m3.64 7.99h-28.24m-71.76 0h-28.24m3.64-7.99h20.96m-3.31-7.98h-14.34m.17-7.99h14m0-7.98h-14m-2.67-7.99h19.34m3.31-7.98h-25.96m-7.18-7.99h40.32m11.52-7.98h-63.36m-36.64 0h-63.36m11.52 7.98h40.32m-7.18 7.99h-25.96m3.31 7.98h19.34m-2.67 7.99h-14m0 7.98h14m.17 7.99h-14.34m-3.31 7.98h20.96m3.64 7.99h-28.24m-71.76 0h-28.24m3.64-7.99h20.96m-3.31-7.98h-14.34m.17-7.99h14m0-7.98h-14m-2.67-7.99h19.34m3.31-7.98h-25.96m-7.18-7.99h40.32m11.52-7.98h-63.36m-36.64 0h-63.36m11.52 7.98h40.32m-7.18 7.99h-25.96m3.31 7.98h19.34m-2.67 7.99h-14m0 7.98h14m.17 7.99h-14.34m-3.31 7.98h20.96m3.64 7.99h-28.24m-71.76 0h-24.14m3.93-7.99h16.57m-3.31-7.98h-11m10.83-7.99h-53m0-7.98h-8m0 7.98h-53m0-7.98h10.52m1.93-7.99h-15.12m-3.31-7.98h21.94m5.54-7.99h-34.66m-11.52-7.98h55.33m22.35 0h8m0 7.98h-8m0 7.99h8m0 7.98h-8m30.35-23.95h55.33m-11.52 7.98h-34.66m5.54 7.99h21.94m-3.31 7.98h-15.12m1.93 7.99H1121m-96.98 31.94h-24.14m3.64-7.99h16.57m-2.26-7.98h-11m-61.15-47.91h-198.9m-12.61 7.98h199.99m-7.18 7.99H714.89m46.81-135.75h122.82m-11.08-7.98H753.71m-7.98-7.99h122.73m-2.56-7.98H731.63m-19.28-7.99h78.35m68.03 0h7.17m10.38-23.96h6.64m-.55-7.98h-6.09m-10.38-23.96h-7.72m2.7-7.98h5.02m-72.5-55.9h-78.36m925.48-87.83h115.14"/><use x="1779.16" y="758.84" xlink:href="#B1ZJ6Xkis-_pad-14"/><use x="1854" y="829" xlink:href="#B1ZJ6Xkis-_pad-14"/><use x="1684" y="979" xlink:href="#B1ZJ6Xkis-_pad-14"/><use x="1624" y="749" xlink:href="#B1ZJ6Xkis-_pad-14"/><use x="1359" y="784" xlink:href="#B1ZJ6Xkis-_pad-14"/><use x="1359" y="849" xlink:href="#B1ZJ6Xkis-_pad-14"/><use x="1244" y="779" xlink:href="#B1ZJ6Xkis-_pad-14"/><use x="1029" y="914" xlink:href="#B1ZJ6Xkis-_pad-14"/><use x="1009" y="944" xlink:href="#B1ZJ6Xkis-_pad-14"/><use x="1014" y="1029" xlink:href="#B1ZJ6Xkis-_pad-14"/><use x="1234" y="944" xlink:href="#B1ZJ6Xkis-_pad-14"/><use x="1304" y="974" xlink:href="#B1ZJ6Xkis-_pad-14"/><use x="1024" y="799" xlink:href="#B1ZJ6Xkis-_pad-14"/></g><g id="pcb-stackup_bottom_ss"><path fill="none" stroke-width="3" d="M535.5 635.5h19.35m0 9.67v4.84m0-4.84l-9.68-9.67m0 24.55v19.35h4.84l4.84-4.83v-9.68l-4.84-4.84h-9.67l-4.84 4.84v9.68m19.35 14.95l-19.35 9.67 19.35 9.68m4.84 39.58h-19.35l19.35 19.35h-19.35l-4.84-4.84v-9.67l4.84-4.84m19.35 0l4.83 4.84v9.67l-4.83 4.84m0 39.58l4.83 4.84v9.67l-4.83 4.84h-4.84l-19.35-19.35v19.35m4.84 10.12l19.35 19.35h-19.35l-4.84-4.84v-9.68l4.84-4.83h19.35l4.83 4.83v9.68l-4.83 4.84m-4.84 10.11l9.67 9.68H535.5m0 9.67v-19.35m4.84 29.47l-4.84 4.83v9.68l4.84 4.84h4.83l4.84-4.84v-14.51h-9.67m9.67 0l9.68 9.67 4.83 9.68m-14.51 10.11v19.35m-9.67 10.12l19.35 19.35h-19.35l-4.84-4.84v-9.68l4.84-4.83h19.35l4.83 4.83v9.68l-4.83 4.84m4.83 10.11v19.35h-4.83l-19.35-19.35h-4.84m14.51 29.47v19.35m9.68 10.11l4.83 4.84v9.67l-4.83 4.84h-4.84l-19.35-19.35v19.35m0 10.12h4.84l19.35 19.35h4.83v-19.35"/></g><g id="pcb-stackup_bottom_sm"><use x="693.92" y="770.3" xlink:href="#rJ7JpQJos-_pad-10"/><use x="693.92" y="1057.7" xlink:href="#rJ7JpQJos-_pad-10"/><path fill="none" stroke-width="47.56" d="M803.94 945.5h41.56m51.18 31.49h41.56m0-62.99h-41.56m-51.18-31.5h-41.56m92.74-31.49h41.56"/><use x="964" y="664" xlink:href="#rJ7JpQJos-_pad-12"/><use x="1064" y="664" xlink:href="#rJ7JpQJos-_pad-12"/><use x="1164" y="664" xlink:href="#rJ7JpQJos-_pad-12"/><use x="1264" y="664" xlink:href="#rJ7JpQJos-_pad-12"/><use x="1364" y="664" xlink:href="#rJ7JpQJos-_pad-12"/><use x="1464" y="664" xlink:href="#rJ7JpQJos-_pad-12"/><use x="1564" y="664" xlink:href="#rJ7JpQJos-_pad-12"/><use x="1664" y="664" xlink:href="#rJ7JpQJos-_pad-12"/><use x="1764" y="664" xlink:href="#rJ7JpQJos-_pad-12"/><use x="1864" y="664" xlink:href="#rJ7JpQJos-_pad-12"/><use x="1864" y="1164" xlink:href="#rJ7JpQJos-_pad-12"/><use x="1764" y="1164" xlink:href="#rJ7JpQJos-_pad-12"/><use x="1664" y="1164" xlink:href="#rJ7JpQJos-_pad-12"/><use x="1564" y="1164" xlink:href="#rJ7JpQJos-_pad-12"/><use x="1464" y="1164" xlink:href="#rJ7JpQJos-_pad-12"/><use x="1364" y="1164" xlink:href="#rJ7JpQJos-_pad-12"/><use x="1264" y="1164" xlink:href="#rJ7JpQJos-_pad-12"/><use x="1164" y="1164" xlink:href="#rJ7JpQJos-_pad-12"/><use x="1064" y="1164" xlink:href="#rJ7JpQJos-_pad-12"/><use x="964" y="1164" xlink:href="#rJ7JpQJos-_pad-12"/><use x="1014" y="1029" xlink:href="#rJ7JpQJos-_pad-13"/><use x="1009" y="944" xlink:href="#rJ7JpQJos-_pad-13"/><use x="1029" y="914" xlink:href="#rJ7JpQJos-_pad-13"/><use x="1024" y="799" xlink:href="#rJ7JpQJos-_pad-13"/><use x="1234" y="944" xlink:href="#rJ7JpQJos-_pad-13"/><use x="1304" y="974" xlink:href="#rJ7JpQJos-_pad-13"/><use x="1359" y="849" xlink:href="#rJ7JpQJos-_pad-13"/><use x="1359" y="784" xlink:href="#rJ7JpQJos-_pad-13"/><use x="1244" y="779" xlink:href="#rJ7JpQJos-_pad-13"/><use x="1624" y="749" xlink:href="#rJ7JpQJos-_pad-13"/><use x="1779.16" y="758.84" xlink:href="#rJ7JpQJos-_pad-13"/><use x="1854" y="829" xlink:href="#rJ7JpQJos-_pad-13"/><use x="1684" y="979" xlink:href="#rJ7JpQJos-_pad-13"/></g><g id="pcb-stackup_bottom_drl1"><use x="1024" y="799" xlink:href="#ryHJp7yijb_pad-1"/><use x="1029" y="914" xlink:href="#ryHJp7yijb_pad-1"/><use x="1009" y="944" xlink:href="#ryHJp7yijb_pad-1"/><use x="1014" y="1029" xlink:href="#ryHJp7yijb_pad-1"/><use x="1234" y="944" xlink:href="#ryHJp7yijb_pad-1"/><use x="1304" y="974" xlink:href="#ryHJp7yijb_pad-1"/><use x="1359" y="849" xlink:href="#ryHJp7yijb_pad-1"/><use x="1359" y="784" xlink:href="#ryHJp7yijb_pad-1"/><use x="1244" y="779" xlink:href="#ryHJp7yijb_pad-1"/><use x="1624" y="749" xlink:href="#ryHJp7yijb_pad-1"/><use x="1779.2" y="758.8" xlink:href="#ryHJp7yijb_pad-1"/><use x="1854" y="829" xlink:href="#ryHJp7yijb_pad-1"/><use x="1684" y="979" xlink:href="#ryHJp7yijb_pad-1"/><use x="896.7" y="977" xlink:href="#ryHJp7yijb_pad-2"/><use x="845.5" y="945.5" xlink:href="#ryHJp7yijb_pad-2"/><use x="896.7" y="914" xlink:href="#ryHJp7yijb_pad-2"/><use x="845.5" y="882.5" xlink:href="#ryHJp7yijb_pad-2"/><use x="896.7" y="851" xlink:href="#ryHJp7yijb_pad-2"/><use x="964" y="664" xlink:href="#ryHJp7yijb_pad-3"/><use x="1064" y="664" xlink:href="#ryHJp7yijb_pad-3"/><use x="1164" y="664" xlink:href="#ryHJp7yijb_pad-3"/><use x="1264" y="664" xlink:href="#ryHJp7yijb_pad-3"/><use x="1364" y="664" xlink:href="#ryHJp7yijb_pad-3"/><use x="1464" y="664" xlink:href="#ryHJp7yijb_pad-3"/><use x="1564" y="664" xlink:href="#ryHJp7yijb_pad-3"/><use x="1664" y="664" xlink:href="#ryHJp7yijb_pad-3"/><use x="1764" y="664" xlink:href="#ryHJp7yijb_pad-3"/><use x="1864" y="664" xlink:href="#ryHJp7yijb_pad-3"/><use x="1864" y="1164" xlink:href="#ryHJp7yijb_pad-3"/><use x="1764" y="1164" xlink:href="#ryHJp7yijb_pad-3"/><use x="1664" y="1164" xlink:href="#ryHJp7yijb_pad-3"/><use x="1564" y="1164" xlink:href="#ryHJp7yijb_pad-3"/><use x="1464" y="1164" xlink:href="#ryHJp7yijb_pad-3"/><use x="1364" y="1164" xlink:href="#ryHJp7yijb_pad-3"/><use x="1264" y="1164" xlink:href="#ryHJp7yijb_pad-3"/><use x="1164" y="1164" xlink:href="#ryHJp7yijb_pad-3"/><use x="1064" y="1164" xlink:href="#ryHJp7yijb_pad-3"/><use x="964" y="1164" xlink:href="#ryHJp7yijb_pad-3"/><use x="693.9" y="1057.7" xlink:href="#ryHJp7yijb_pad-4"/><use x="693.9" y="770.3" xlink:href="#ryHJp7yijb_pad-4"/></g><clipPath id="pcb-stackup_bottom_out"><path fill="none" d="M514 614v600h1400V614H514"/></clipPath><mask id="pcb-stackup_bottom_mech-mask"><g stroke="#000"><path fill="#fff" d="M514 614h1400v600H514z"/><use xlink:href="#pcb-stackup_bottom_drl1"/></g></mask><mask id="pcb-stackup_bottom_cf-mask"><g fill="#fff" stroke="#fff"><use xlink:href="#pcb-stackup_bottom_sm"/></g></mask><mask id="pcb-stackup_bottom_sm-mask"><g stroke="#000"><path fill="#fff" d="M514 614h1400v600H514z"/><use xlink:href="#pcb-stackup_bottom_sm"/></g></mask></defs><g><g mask="url(#pcb-stackup_bottom_mech-mask)" clip-path="url(#pcb-stackup_bottom_out)" transform="rotate(180 1214 914)"><path fill="currentColor" d="M514 614h1400v600H514z" class="pcb-stackup_fr4"/><use fill="currentColor" stroke="currentColor" xlink:href="#pcb-stackup_bottom_cu" class="pcb-stackup_cu"/><use fill="currentColor" stroke="currentColor" xlink:href="#pcb-stackup_bottom_cu" class="pcb-stackup_cf" mask="url(#pcb-stackup_bottom_cf-mask)"/><g mask="url(#pcb-stackup_bottom_sm-mask)"><path fill="currentColor" d="M514 614h1400v600H514z" class="pcb-stackup_sm"/><use fill="currentColor" stroke="currentColor" xlink:href="#pcb-stackup_bottom_ss" class="pcb-stackup_ss"/></g><use fill="currentColor" stroke="currentColor" xlink:href="#pcb-stackup_bottom_sp" class="pcb-stackup_sp"/></g></g></svg>