<svg xmlns="http://www.w3.org/2000/svg" id="pcb-stackup_top" fill-rule="evenodd" stroke-width="0" stroke-linecap="round" stroke-linejoin="round" xmlns:xlink="http://www.w3.org/1999/xlink" clip-rule="evenodd" viewBox="514 614 1400 600"><defs><style>.pcb-stackup_fr4 {color: #4D542C;} .pcb-stackup_cu {color: lightgrey;} .pcb-stackup_cf {color: goldenrod;} .pcb-stackup_sm {color: #2E0051; opacity: 0.9;} .pcb-stackup_ss {color: white;} .pcb-stackup_sp {color: #000000; opacity: 0;} .pcb-stackup_out {color: black;}</style><path id="rJLy6Xyjsb_pad-10" d="M-21.26-20.67h42.52v41.34h-42.52z"/><path id="rJLy6Xyjsb_pad-11" d="M-19.685-21.655h39.37v43.31h-39.37z"/><path id="rJLy6Xyjsb_pad-12" d="M-6-19.5H6v39H-6z"/><path id="rJLy6Xyjsb_pad-13" d="M-11-25h22v50h-22z"/><path id="rJLy6Xyjsb_pad-14" d="M-15.75-15.75h31.5v31.5h-31.5z"/><path id="rJLy6Xyjsb_pad-10" d="M-21.26-20.67h42.52v41.34h-42.52z"/><path id="rJLy6Xyjsb_pad-11" d="M-19.685-21.655h39.37v43.31h-39.37z"/><path id="rJLy6Xyjsb_pad-12" d="M-6-19.5H6v39H-6z"/><path id="rJLy6Xyjsb_pad-13" d="M-11-25h22v50h-22z"/><path id="rJLy6Xyjsb_pad-14" d="M-15.75-15.75h31.5v31.5h-31.5z"/><path id="HJPyT7ksi-_pad-10" d="M-21.26-20.67h42.52v41.34h-42.52z"/><path id="HJPyT7ksi-_pad-11" d="M-19.685-21.655h39.37v43.31h-39.37z"/><path id="HJPyT7ksi-_pad-12" d="M-6-19.5H6v39H-6z"/><circle id="HJPyT7ksi-_pad-13" r="75"/><circle id="HJPyT7ksi-_pad-15" r="33"/><path id="HJPyT7ksi-_pad-16" d="M-11-25h22v50h-22z"/><path id="HJPyT7ksi-_pad-17" d="M-15.75-15.75h31.5v31.5h-31.5z"/><circle id="HJPyT7ksi-_pad-19" r="13.5"/><path id="rJLy6Xyjsb_pad-10" d="M-21.26-20.67h42.52v41.34h-42.52z"/><path id="rJLy6Xyjsb_pad-11" d="M-19.685-21.655h39.37v43.31h-39.37z"/><path id="rJLy6Xyjsb_pad-12" d="M-6-19.5H6v39H-6z"/><path id="rJLy6Xyjsb_pad-13" d="M-11-25h22v50h-22z"/><path id="rJLy6Xyjsb_pad-14" d="M-15.75-15.75h31.5v31.5h-31.5z"/><path id="rJLy6Xyjsb_pad-10" d="M-21.26-20.67h42.52v41.34h-42.52z"/><path id="rJLy6Xyjsb_pad-11" d="M-19.685-21.655h39.37v43.31h-39.37z"/><path id="rJLy6Xyjsb_pad-12" d="M-6-19.5H6v39H-6z"/><path id="rJLy6Xyjsb_pad-13" d="M-11-25h22v50h-22z"/><path id="rJLy6Xyjsb_pad-14" d="M-15.75-15.75h31.5v31.5h-31.5z"/><path id="HJPyT7ksi-_pad-10" d="M-21.26-20.67h42.52v41.34h-42.52z"/><path id="HJPyT7ksi-_pad-11" d="M-19.685-21.655h39.37v43.31h-39.37z"/><path id="HJPyT7ksi-_pad-12" d="M-6-19.5H6v39H-6z"/><circle id="HJPyT7ksi-_pad-13" r="75"/><circle id="HJPyT7ksi-_pad-15" r="33"/><path id="HJPyT7ksi-_pad-16" d="M-11-25h22v50h-22z"/><path id="HJPyT7ksi-_pad-17" d="M-15.75-15.75h31.5v31.5h-31.5z"/><circle id="HJPyT7ksi-_pad-19" r="13.5"/><path id="H1_16Xkjs-_pad-16" d="M-5.905-2.955h11.81v5.91h-11.81z"/><path id="H1_16Xkjs-_pad-17" d="M-5.905-5.905h11.81v11.81h-11.81z"/><path id="rJLy6Xyjsb_pad-10" d="M-21.26-20.67h42.52v41.34h-42.52z"/><path id="rJLy6Xyjsb_pad-11" d="M-19.685-21.655h39.37v43.31h-39.37z"/><path id="rJLy6Xyjsb_pad-12" d="M-6-19.5H6v39H-6z"/><path id="rJLy6Xyjsb_pad-13" d="M-11-25h22v50h-22z"/><path id="rJLy6Xyjsb_pad-14" d="M-15.75-15.75h31.5v31.5h-31.5z"/><path id="rJLy6Xyjsb_pad-10" d="M-21.26-20.67h42.52v41.34h-42.52z"/><path id="rJLy6Xyjsb_pad-11" d="M-19.685-21.655h39.37v43.31h-39.37z"/><path id="rJLy6Xyjsb_pad-12" d="M-6-19.5H6v39H-6z"/><path id="rJLy6Xyjsb_pad-13" d="M-11-25h22v50h-22z"/><path id="rJLy6Xyjsb_pad-14" d="M-15.75-15.75h31.5v31.5h-31.5z"/><path id="HJPyT7ksi-_pad-10" d="M-21.26-20.67h42.52v41.34h-42.52z"/><path id="HJPyT7ksi-_pad-11" d="M-19.685-21.655h39.37v43.31h-39.37z"/><path id="HJPyT7ksi-_pad-12" d="M-6-19.5H6v39H-6z"/><circle id="HJPyT7ksi-_pad-13" r="75"/><circle id="HJPyT7ksi-_pad-15" r="33"/><path id="HJPyT7ksi-_pad-16" d="M-11-25h22v50h-22z"/><path id="HJPyT7ksi-_pad-17" d="M-15.75-15.75h31.5v31.5h-31.5z"/><circle id="HJPyT7ksi-_pad-19" r="13.5"/><path id="rJLy6Xyjsb_pad-10" d="M-21.26-20.67h42.52v41.34h-42.52z"/><path id="rJLy6Xyjsb_pad-11" d="M-19.685-21.655h39.37v43.31h-39.37z"/><path id="rJLy6Xyjsb_pad-12" d="M-6-19.5H6v39H-6z"/><path id="rJLy6Xyjsb_pad-13" d="M-11-25h22v50h-22z"/><path id="rJLy6Xyjsb_pad-14" d="M-15.75-15.75h31.5v31.5h-31.5z"/><path id="rJLy6Xyjsb_pad-10" d="M-21.26-20.67h42.52v41.34h-42.52z"/><path id="rJLy6Xyjsb_pad-11" d="M-19.685-21.655h39.37v43.31h-39.37z"/><path id="rJLy6Xyjsb_pad-12" d="M-6-19.5H6v39H-6z"/><path id="rJLy6Xyjsb_pad-13" d="M-11-25h22v50h-22z"/><path id="rJLy6Xyjsb_pad-14" d="M-15.75-15.75h31.5v31.5h-31.5z"/><path id="HJPyT7ksi-_pad-10" d="M-21.26-20.67h42.52v41.34h-42.52z"/><path id="HJPyT7ksi-_pad-11" d="M-19.685-21.655h39.37v43.31h-39.37z"/><path id="HJPyT7ksi-_pad-12" d="M-6-19.5H6v39H-6z"/><circle id="HJPyT7ksi-_pad-13" r="75"/><circle id="HJPyT7ksi-_pad-15" r="33"/><path id="HJPyT7ksi-_pad-16" d="M-11-25h22v50h-22z"/><path id="HJPyT7ksi-_pad-17" d="M-15.75-15.75h31.5v31.5h-31.5z"/><circle id="HJPyT7ksi-_pad-19" r="13.5"/><path id="H1_16Xkjs-_pad-16" d="M-5.905-2.955h11.81v5.91h-11.81z"/><path id="H1_16Xkjs-_pad-17" d="M-5.905-5.905h11.81v11.81h-11.81z"/><path id="H1YJ6mJooW_pad-10" d="M-24.26-23.67h48.52v47.34h-48.52z"/><path id="H1YJ6mJooW_pad-11" d="M-22.685-24.655h45.37v49.31h-45.37z"/><path id="H1YJ6mJooW_pad-12" d="M-9-22.5H9v45H-9z"/><circle id="H1YJ6mJooW_pad-13" r="78"/><circle id="H1YJ6mJooW_pad-15" r="36"/><path id="H1YJ6mJooW_pad-16" d="M-14-28h28v56h-28z"/><path id="H1YJ6mJooW_pad-17" d="M-18.75-18.75h37.5v37.5h-37.5z"/><circle id="H1YJ6mJooW_pad-18" r="16.5"/><path id="rJLy6Xyjsb_pad-10" d="M-21.26-20.67h42.52v41.34h-42.52z"/><path id="rJLy6Xyjsb_pad-11" d="M-19.685-21.655h39.37v43.31h-39.37z"/><path id="rJLy6Xyjsb_pad-12" d="M-6-19.5H6v39H-6z"/><path id="rJLy6Xyjsb_pad-13" d="M-11-25h22v50h-22z"/><path id="rJLy6Xyjsb_pad-14" d="M-15.75-15.75h31.5v31.5h-31.5z"/><path id="rJLy6Xyjsb_pad-10" d="M-21.26-20.67h42.52v41.34h-42.52z"/><path id="rJLy6Xyjsb_pad-11" d="M-19.685-21.655h39.37v43.31h-39.37z"/><path id="rJLy6Xyjsb_pad-12" d="M-6-19.5H6v39H-6z"/><path id="rJLy6Xyjsb_pad-13" d="M-11-25h22v50h-22z"/><path id="rJLy6Xyjsb_pad-14" d="M-15.75-15.75h31.5v31.5h-31.5z"/><path id="HJPyT7ksi-_pad-10" d="M-21.26-20.67h42.52v41.34h-42.52z"/><path id="HJPyT7ksi-_pad-11" d="M-19.685-21.655h39.37v43.31h-39.37z"/><path id="HJPyT7ksi-_pad-12" d="M-6-19.5H6v39H-6z"/><circle id="HJPyT7ksi-_pad-13" r="75"/><circle id="HJPyT7ksi-_pad-15" r="33"/><path id="HJPyT7ksi-_pad-16" d="M-11-25h22v50h-22z"/><path id="HJPyT7ksi-_pad-17" d="M-15.75-15.75h31.5v31.5h-31.5z"/><circle id="HJPyT7ksi-_pad-19" r="13.5"/><path id="rJLy6Xyjsb_pad-10" d="M-21.26-20.67h42.52v41.34h-42.52z"/><path id="rJLy6Xyjsb_pad-11" d="M-19.685-21.655h39.37v43.31h-39.37z"/><path id="rJLy6Xyjsb_pad-12" d="M-6-19.5H6v39H-6z"/><path id="rJLy6Xyjsb_pad-13" d="M-11-25h22v50h-22z"/><path id="rJLy6Xyjsb_pad-14" d="M-15.75-15.75h31.5v31.5h-31.5z"/><path id="rJLy6Xyjsb_pad-10" d="M-21.26-20.67h42.52v41.34h-42.52z"/><path id="rJLy6Xyjsb_pad-11" d="M-19.685-21.655h39.37v43.31h-39.37z"/><path id="rJLy6Xyjsb_pad-12" d="M-6-19.5H6v39H-6z"/><path id="rJLy6Xyjsb_pad-13" d="M-11-25h22v50h-22z"/><path id="rJLy6Xyjsb_pad-14" d="M-15.75-15.75h31.5v31.5h-31.5z"/><path id="HJPyT7ksi-_pad-10" d="M-21.26-20.67h42.52v41.34h-42.52z"/><path id="HJPyT7ksi-_pad-11" d="M-19.685-21.655h39.37v43.31h-39.37z"/><path id="HJPyT7ksi-_pad-12" d="M-6-19.5H6v39H-6z"/><circle id="HJPyT7ksi-_pad-13" r="75"/><circle id="HJPyT7ksi-_pad-15" r="33"/><path id="HJPyT7ksi-_pad-16" d="M-11-25h22v50h-22z"/><path id="HJPyT7ksi-_pad-17" d="M-15.75-15.75h31.5v31.5h-31.5z"/><circle id="HJPyT7ksi-_pad-19" r="13.5"/><path id="H1_16Xkjs-_pad-16" d="M-5.905-2.955h11.81v5.91h-11.81z"/><path id="H1_16Xkjs-_pad-17" d="M-5.905-5.905h11.81v11.81h-11.81z"/><path id="rJLy6Xyjsb_pad-10" d="M-21.26-20.67h42.52v41.34h-42.52z"/><path id="rJLy6Xyjsb_pad-11" d="M-19.685-21.655h39.37v43.31h-39.37z"/><path id="rJLy6Xyjsb_pad-12" d="M-6-19.5H6v39H-6z"/><path id="rJLy6Xyjsb_pad-13" d="M-11-25h22v50h-22z"/><path id="rJLy6Xyjsb_pad-14" d="M-15.75-15.75h31.5v31.5h-31.5z"/><path id="rJLy6Xyjsb_pad-10" d="M-21.26-20.67h42.52v41.34h-42.52z"/><path id="rJLy6Xyjsb_pad-11" d="M-19.685-21.655h39.37v43.31h-39.37z"/><path id="rJLy6Xyjsb_pad-12" d="M-6-19.5H6v39H-6z"/><path id="rJLy6Xyjsb_pad-13" d="M-11-25h22v50h-22z"/><path id="rJLy6Xyjsb_pad-14" d="M-15.75-15.75h31.5v31.5h-31.5z"/><path id="HJPyT7ksi-_pad-10" d="M-21.26-20.67h42.52v41.34h-42.52z"/><path id="HJPyT7ksi-_pad-11" d="M-19.685-21.655h39.37v43.31h-39.37z"/><path id="HJPyT7ksi-_pad-12" d="M-6-19.5H6v39H-6z"/><circle id="HJPyT7ksi-_pad-13" r="75"/><circle id="HJPyT7ksi-_pad-15" r="33"/><path id="HJPyT7ksi-_pad-16" d="M-11-25h22v50h-22z"/><path id="HJPyT7ksi-_pad-17" d="M-15.75-15.75h31.5v31.5h-31.5z"/><circle id="HJPyT7ksi-_pad-19" r="13.5"/><path id="rJLy6Xyjsb_pad-10" d="M-21.26-20.67h42.52v41.34h-42.52z"/><path id="rJLy6Xyjsb_pad-11" d="M-19.685-21.655h39.37v43.31h-39.37z"/><path id="rJLy6Xyjsb_pad-12" d="M-6-19.5H6v39H-6z"/><path id="rJLy6Xyjsb_pad-13" d="M-11-25h22v50h-22z"/><path id="rJLy6Xyjsb_pad-14" d="M-15.75-15.75h31.5v31.5h-31.5z"/><path id="rJLy6Xyjsb_pad-10" d="M-21.26-20.67h42.52v41.34h-42.52z"/><path id="rJLy6Xyjsb_pad-11" d="M-19.685-21.655h39.37v43.31h-39.37z"/><path id="rJLy6Xyjsb_pad-12" d="M-6-19.5H6v39H-6z"/><path id="rJLy6Xyjsb_pad-13" d="M-11-25h22v50h-22z"/><path id="rJLy6Xyjsb_pad-14" d="M-15.75-15.75h31.5v31.5h-31.5z"/><path id="HJPyT7ksi-_pad-10" d="M-21.26-20.67h42.52v41.34h-42.52z"/><path id="HJPyT7ksi-_pad-11" d="M-19.685-21.655h39.37v43.31h-39.37z"/><path id="HJPyT7ksi-_pad-12" d="M-6-19.5H6v39H-6z"/><circle id="HJPyT7ksi-_pad-13" r="75"/><circle id="HJPyT7ksi-_pad-15" r="33"/><path id="HJPyT7ksi-_pad-16" d="M-11-25h22v50h-22z"/><path id="HJPyT7ksi-_pad-17" d="M-15.75-15.75h31.5v31.5h-31.5z"/><circle id="HJPyT7ksi-_pad-19" r="13.5"/><path id="H1_16Xkjs-_pad-16" d="M-5.905-2.955h11.81v5.91h-11.81z"/><path id="H1_16Xkjs-_pad-17" d="M-5.905-5.905h11.81v11.81h-11.81z"/><path id="H1YJ6mJooW_pad-10" d="M-24.26-23.67h48.52v47.34h-48.52z"/><path id="H1YJ6mJooW_pad-11" d="M-22.685-24.655h45.37v49.31h-45.37z"/><path id="H1YJ6mJooW_pad-12" d="M-9-22.5H9v45H-9z"/><circle id="H1YJ6mJooW_pad-13" r="78"/><circle id="H1YJ6mJooW_pad-15" r="36"/><path id="H1YJ6mJooW_pad-16" d="M-14-28h28v56h-28z"/><path id="H1YJ6mJooW_pad-17" d="M-18.75-18.75h37.5v37.5h-37.5z"/><circle id="H1YJ6mJooW_pad-18" r="16.5"/><circle id="ryHJp7yijb_pad-1" r="6.5"/><circle id="ryHJp7yijb_pad-2" r="13.8"/><circle id="ryHJp7yijb_pad-3" r="19.7"/><circle id="ryHJp7yijb_pad-4" r="39.35"/><path id="rJLy6Xyjsb_pad-10" d="M-21.26-20.67h42.52v41.34h-42.52z"/><path id="rJLy6Xyjsb_pad-11" d="M-19.685-21.655h39.37v43.31h-39.37z"/><path id="rJLy6Xyjsb_pad-12" d="M-6-19.5H6v39H-6z"/><path id="rJLy6Xyjsb_pad-13" d="M-11-25h22v50h-22z"/><path id="rJLy6Xyjsb_pad-14" d="M-15.75-15.75h31.5v31.5h-31.5z"/><path id="rJLy6Xyjsb_pad-10" d="M-21.26-20.67h42.52v41.34h-42.52z"/><path id="rJLy6Xyjsb_pad-11" d="M-19.685-21.655h39.37v43.31h-39.37z"/><path id="rJLy6Xyjsb_pad-12" d="M-6-19.5H6v39H-6z"/><path id="rJLy6Xyjsb_pad-13" d="M-11-25h22v50h-22z"/><path id="rJLy6Xyjsb_pad-14" d="M-15.75-15.75h31.5v31.5h-31.5z"/><path id="HJPyT7ksi-_pad-10" d="M-21.26-20.67h42.52v41.34h-42.52z"/><path id="HJPyT7ksi-_pad-11" d="M-19.685-21.655h39.37v43.31h-39.37z"/><path id="HJPyT7ksi-_pad-12" d="M-6-19.5H6v39H-6z"/><circle id="HJPyT7ksi-_pad-13" r="75"/><circle id="HJPyT7ksi-_pad-15" r="33"/><path id="HJPyT7ksi-_pad-16" d="M-11-25h22v50h-22z"/><path id="HJPyT7ksi-_pad-17" d="M-15.75-15.75h31.5v31.5h-31.5z"/><circle id="HJPyT7ksi-_pad-19" r="13.5"/><path id="rJLy6Xyjsb_pad-10" d="M-21.26-20.67h42.52v41.34h-42.52z"/><path id="rJLy6Xyjsb_pad-11" d="M-19.685-21.655h39.37v43.31h-39.37z"/><path id="rJLy6Xyjsb_pad-12" d="M-6-19.5H6v39H-6z"/><path id="rJLy6Xyjsb_pad-13" d="M-11-25h22v50h-22z"/><path id="rJLy6Xyjsb_pad-14" d="M-15.75-15.75h31.5v31.5h-31.5z"/><path id="rJLy6Xyjsb_pad-10" d="M-21.26-20.67h42.52v41.34h-42.52z"/><path id="rJLy6Xyjsb_pad-11" d="M-19.685-21.655h39.37v43.31h-39.37z"/><path id="rJLy6Xyjsb_pad-12" d="M-6-19.5H6v39H-6z"/><path id="rJLy6Xyjsb_pad-13" d="M-11-25h22v50h-22z"/><path id="rJLy6Xyjsb_pad-14" d="M-15.75-15.75h31.5v31.5h-31.5z"/><path id="HJPyT7ksi-_pad-10" d="M-21.26-20.67h42.52v41.34h-42.52z"/><path id="HJPyT7ksi-_pad-11" d="M-19.685-21.655h39.37v43.31h-39.37z"/><path id="HJPyT7ksi-_pad-12" d="M-6-19.5H6v39H-6z"/><circle id="HJPyT7ksi-_pad-13" r="75"/><circle id="HJPyT7ksi-_pad-15" r="33"/><path id="HJPyT7ksi-_pad-16" d="M-11-25h22v50h-22z"/><path id="HJPyT7ksi-_pad-17" d="M-15.75-15.75h31.5v31.5h-31.5z"/><circle id="HJPyT7ksi-_pad-19" r="13.5"/><path id="H1_16Xkjs-_pad-16" d="M-5.905-2.955h11.81v5.91h-11.81z"/><path id="H1_16Xkjs-_pad-17" d="M-5.905-5.905h11.81v11.81h-11.81z"/><path id="rJLy6Xyjsb_pad-10" d="M-21.26-20.67h42.52v41.34h-42.52z"/><path id="rJLy6Xyjsb_pad-11" d="M-19.685-21.655h39.37v43.31h-39.37z"/><path id="rJLy6Xyjsb_pad-12" d="M-6-19.5H6v39H-6z"/><path id="rJLy6Xyjsb_pad-13" d="M-11-25h22v50h-22z"/><path id="rJLy6Xyjsb_pad-14" d="M-15.75-15.75h31.5v31.5h-31.5z"/><path id="rJLy6Xyjsb_pad-10" d="M-21.26-20.67h42.52v41.34h-42.52z"/><path id="rJLy6Xyjsb_pad-11" d="M-19.685-21.655h39.37v43.31h-39.37z"/><path id="rJLy6Xyjsb_pad-12" d="M-6-19.5H6v39H-6z"/><path id="rJLy6Xyjsb_pad-13" d="M-11-25h22v50h-22z"/><path id="rJLy6Xyjsb_pad-14" d="M-15.75-15.75h31.5v31.5h-31.5z"/><path id="HJPyT7ksi-_pad-10" d="M-21.26-20.67h42.52v41.34h-42.52z"/><path id="HJPyT7ksi-_pad-11" d="M-19.685-21.655h39.37v43.31h-39.37z"/><path id="HJPyT7ksi-_pad-12" d="M-6-19.5H6v39H-6z"/><circle id="HJPyT7ksi-_pad-13" r="75"/><circle id="HJPyT7ksi-_pad-15" r="33"/><path id="HJPyT7ksi-_pad-16" d="M-11-25h22v50h-22z"/><path id="HJPyT7ksi-_pad-17" d="M-15.75-15.75h31.5v31.5h-31.5z"/><circle id="HJPyT7ksi-_pad-19" r="13.5"/><path id="rJLy6Xyjsb_pad-10" d="M-21.26-20.67h42.52v41.34h-42.52z"/><path id="rJLy6Xyjsb_pad-11" d="M-19.685-21.655h39.37v43.31h-39.37z"/><path id="rJLy6Xyjsb_pad-12" d="M-6-19.5H6v39H-6z"/><path id="rJLy6Xyjsb_pad-13" d="M-11-25h22v50h-22z"/><path id="rJLy6Xyjsb_pad-14" d="M-15.75-15.75h31.5v31.5h-31.5z"/><path id="rJLy6Xyjsb_pad-10" d="M-21.26-20.67h42.52v41.34h-42.52z"/><path id="rJLy6Xyjsb_pad-11" d="M-19.685-21.655h39.37v43.31h-39.37z"/><path id="rJLy6Xyjsb_pad-12" d="M-6-19.5H6v39H-6z"/><path id="rJLy6Xyjsb_pad-13" d="M-11-25h22v50h-22z"/><path id="rJLy6Xyjsb_pad-14" d="M-15.75-15.75h31.5v31.5h-31.5z"/><path id="HJPyT7ksi-_pad-10" d="M-21.26-20.67h42.52v41.34h-42.52z"/><path id="HJPyT7ksi-_pad-11" d="M-19.685-21.655h39.37v43.31h-39.37z"/><path id="HJPyT7ksi-_pad-12" d="M-6-19.5H6v39H-6z"/><circle id="HJPyT7ksi-_pad-13" r="75"/><circle id="HJPyT7ksi-_pad-15" r="33"/><path id="HJPyT7ksi-_pad-16" d="M-11-25h22v50h-22z"/><path id="HJPyT7ksi-_pad-17" d="M-15.75-15.75h31.5v31.5h-31.5z"/><circle id="HJPyT7ksi-_pad-19" r="13.5"/><path id="H1_16Xkjs-_pad-16" d="M-5.905-2.955h11.81v5.91h-11.81z"/><path id="H1_16Xkjs-_pad-17" d="M-5.905-5.905h11.81v11.81h-11.81z"/><path id="H1YJ6mJooW_pad-10" d="M-24.26-23.67h48.52v47.34h-48.52z"/><path id="H1YJ6mJooW_pad-11" d="M-22.685-24.655h45.37v49.31h-45.37z"/><path id="H1YJ6mJooW_pad-12" d="M-9-22.5H9v45H-9z"/><circle id="H1YJ6mJooW_pad-13" r="78"/><circle id="H1YJ6mJooW_pad-15" r="36"/><path id="H1YJ6mJooW_pad-16" d="M-14-28h28v56h-28z"/><path id="H1YJ6mJooW_pad-17" d="M-18.75-18.75h37.5v37.5h-37.5z"/><circle id="H1YJ6mJooW_pad-18" r="16.5"/><path id="rJLy6Xyjsb_pad-10" d="M-21.26-20.67h42.52v41.34h-42.52z"/><path id="rJLy6Xyjsb_pad-11" d="M-19.685-21.655h39.37v43.31h-39.37z"/><path id="rJLy6Xyjsb_pad-12" d="M-6-19.5H6v39H-6z"/><path id="rJLy6Xyjsb_pad-13" d="M-11-25h22v50h-22z"/><path id="rJLy6Xyjsb_pad-14" d="M-15.75-15.75h31.5v31.5h-31.5z"/><path id="rJLy6Xyjsb_pad-10" d="M-21.26-20.67h42.52v41.34h-42.52z"/><path id="rJLy6Xyjsb_pad-11" d="M-19.685-21.655h39.37v43.31h-39.37z"/><path id="rJLy6Xyjsb_pad-12" d="M-6-19.5H6v39H-6z"/><path id="rJLy6Xyjsb_pad-13" d="M-11-25h22v50h-22z"/><path id="rJLy6Xyjsb_pad-14" d="M-15.75-15.75h31.5v31.5h-31.5z"/><path id="HJPyT7ksi-_pad-10" d="M-21.26-20.67h42.52v41.34h-42.52z"/><path id="HJPyT7ksi-_pad-11" d="M-19.685-21.655h39.37v43.31h-39.37z"/><path id="HJPyT7ksi-_pad-12" d="M-6-19.5H6v39H-6z"/><circle id="HJPyT7ksi-_pad-13" r="75"/><circle id="HJPyT7ksi-_pad-15" r="33"/><path id="HJPyT7ksi-_pad-16" d="M-11-25h22v50h-22z"/><path id="HJPyT7ksi-_pad-17" d="M-15.75-15.75h31.5v31.5h-31.5z"/><circle id="HJPyT7ksi-_pad-19" r="13.5"/><path id="rJLy6Xyjsb_pad-10" d="M-21.26-20.67h42.52v41.34h-42.52z"/><path id="rJLy6Xyjsb_pad-11" d="M-19.685-21.655h39.37v43.31h-39.37z"/><path id="rJLy6Xyjsb_pad-12" d="M-6-19.5H6v39H-6z"/><path id="rJLy6Xyjsb_pad-13" d="M-11-25h22v50h-22z"/><path id="rJLy6Xyjsb_pad-14" d="M-15.75-15.75h31.5v31.5h-31.5z"/><path id="rJLy6Xyjsb_pad-10" d="M-21.26-20.67h42.52v41.34h-42.52z"/><path id="rJLy6Xyjsb_pad-11" d="M-19.685-21.655h39.37v43.31h-39.37z"/><path id="rJLy6Xyjsb_pad-12" d="M-6-19.5H6v39H-6z"/><path id="rJLy6Xyjsb_pad-13" d="M-11-25h22v50h-22z"/><path id="rJLy6Xyjsb_pad-14" d="M-15.75-15.75h31.5v31.5h-31.5z"/><path id="HJPyT7ksi-_pad-10" d="M-21.26-20.67h42.52v41.34h-42.52z"/><path id="HJPyT7ksi-_pad-11" d="M-19.685-21.655h39.37v43.31h-39.37z"/><path id="HJPyT7ksi-_pad-12" d="M-6-19.5H6v39H-6z"/><circle id="HJPyT7ksi-_pad-13" r="75"/><circle id="HJPyT7ksi-_pad-15" r="33"/><path id="HJPyT7ksi-_pad-16" d="M-11-25h22v50h-22z"/><path id="HJPyT7ksi-_pad-17" d="M-15.75-15.75h31.5v31.5h-31.5z"/><circle id="HJPyT7ksi-_pad-19" r="13.5"/><path id="H1_16Xkjs-_pad-16" d="M-5.905-2.955h11.81v5.91h-11.81z"/><path id="H1_16Xkjs-_pad-17" d="M-5.905-5.905h11.81v11.81h-11.81z"/><path id="rJLy6Xyjsb_pad-10" d="M-21.26-20.67h42.52v41.34h-42.52z"/><path id="rJLy6Xyjsb_pad-11" d="M-19.685-21.655h39.37v43.31h-39.37z"/><path id="rJLy6Xyjsb_pad-12" d="M-6-19.5H6v39H-6z"/><path id="rJLy6Xyjsb_pad-13" d="M-11-25h22v50h-22z"/><path id="rJLy6Xyjsb_pad-14" d="M-15.75-15.75h31.5v31.5h-31.5z"/><path id="rJLy6Xyjsb_pad-10" d="M-21.26-20.67h42.52v41.34h-42.52z"/><path id="rJLy6Xyjsb_pad-11" d="M-19.685-21.655h39.37v43.31h-39.37z"/><path id="rJLy6Xyjsb_pad-12" d="M-6-19.5H6v39H-6z"/><path id="rJLy6Xyjsb_pad-13" d="M-11-25h22v50h-22z"/><path id="rJLy6Xyjsb_pad-14" d="M-15.75-15.75h31.5v31.5h-31.5z"/><path id="HJPyT7ksi-_pad-10" d="M-21.26-20.67h42.52v41.34h-42.52z"/><path id="HJPyT7ksi-_pad-11" d="M-19.685-21.655h39.37v43.31h-39.37z"/><path id="HJPyT7ksi-_pad-12" d="M-6-19.5H6v39H-6z"/><circle id="HJPyT7ksi-_pad-13" r="75"/><circle id="HJPyT7ksi-_pad-15" r="33"/><path id="HJPyT7ksi-_pad-16" d="M-11-25h22v50h-22z"/><path id="HJPyT7ksi-_pad-17" d="M-15.75-15.75h31.5v31.5h-31.5z"/><circle id="HJPyT7ksi-_pad-19" r="13.5"/><path id="rJLy6Xyjsb_pad-10" d="M-21.26-20.67h42.52v41.34h-42.52z"/><path id="rJLy6Xyjsb_pad-11" d="M-19.685-21.655h39.37v43.31h-39.37z"/><path id="rJLy6Xyjsb_pad-12" d="M-6-19.5H6v39H-6z"/><path id="rJLy6Xyjsb_pad-13" d="M-11-25h22v50h-22z"/><path id="rJLy6Xyjsb_pad-14" d="M-15.75-15.75h31.5v31.5h-31.5z"/><path id="rJLy6Xyjsb_pad-10" d="M-21.26-20.67h42.52v41.34h-42.52z"/><path id="rJLy6Xyjsb_pad-11" d="M-19.685-21.655h39.37v43.31h-39.37z"/><path id="rJLy6Xyjsb_pad-12" d="M-6-19.5H6v39H-6z"/><path id="rJLy6Xyjsb_pad-13" d="M-11-25h22v50h-22z"/><path id="rJLy6Xyjsb_pad-14" d="M-15.75-15.75h31.5v31.5h-31.5z"/><path id="HJPyT7ksi-_pad-10" d="M-21.26-20.67h42.52v41.34h-42.52z"/><path id="HJPyT7ksi-_pad-11" d="M-19.685-21.655h39.37v43.31h-39.37z"/><path id="HJPyT7ksi-_pad-12" d="M-6-19.5H6v39H-6z"/><circle id="HJPyT7ksi-_pad-13" r="75"/><circle id="HJPyT7ksi-_pad-15" r="33"/><path id="HJPyT7ksi-_pad-16" d="M-11-25h22v50h-22z"/><path id="HJPyT7ksi-_pad-17" d="M-15.75-15.75h31.5v31.5h-31.5z"/><circle id="HJPyT7ksi-_pad-19" r="13.5"/><path id="H1_16Xkjs-_pad-16" d="M-5.905-2.955h11.81v5.91h-11.81z"/><path id="H1_16Xkjs-_pad-17" d="M-5.905-5.905h11.81v11.81h-11.81z"/><path id="H1YJ6mJooW_pad-10" d="M-24.26-23.67h48.52v47.34h-48.52z"/><path id="H1YJ6mJooW_pad-11" d="M-22.685-24.655h45.37v49.31h-45.37z"/><path id="H1YJ6mJooW_pad-12" d="M-9-22.5H9v45H-9z"/><circle id="H1YJ6mJooW_pad-13" r="78"/><circle id="H1YJ6mJooW_pad-15" r="36"/><path id="H1YJ6mJooW_pad-16" d="M-14-28h28v56h-28z"/><path id="H1YJ6mJooW_pad-17" d="M-18.75-18.75h37.5v37.5h-37.5z"/><circle id="H1YJ6mJooW_pad-18" r="16.5"/><circle id="ryHJp7yijb_pad-1" r="6.5"/><circle id="ryHJp7yijb_pad-2" r="13.8"/><circle id="ryHJp7yijb_pad-3" r="19.7"/><circle id="ryHJp7yijb_pad-4" r="39.35"/><g id="pcb-stackup_top_sp"><use x="1244" y="829.55" xlink:href="#rJLy6Xyjsb_pad-10"/><use x="1309" y="848.45" xlink:href="#rJLy6Xyjsb_pad-10"/><use x="1244" y="898.45" xlink:href="#rJLy6Xyjsb_pad-10"/><use x="1309" y="779.55" xlink:href="#rJLy6Xyjsb_pad-10"/><use x="1064" y="959.55" xlink:href="#rJLy6Xyjsb_pad-10"/><use x="1064" y="1028.45" xlink:href="#rJLy6Xyjsb_pad-10"/><use x="1854" y="948.45" xlink:href="#rJLy6Xyjsb_pad-10"/><use x="1854" y="879.55" xlink:href="#rJLy6Xyjsb_pad-10"/><use x="1477.46" y="814" xlink:href="#rJLy6Xyjsb_pad-11"/><use x="1410.54" y="814" xlink:href="#rJLy6Xyjsb_pad-11"/><use x="1427.46" y="934" xlink:href="#rJLy6Xyjsb_pad-11"/><use x="1360.54" y="934" xlink:href="#rJLy6Xyjsb_pad-11"/><use x="1360.54" y="1034" xlink:href="#rJLy6Xyjsb_pad-11"/><use x="1427.46" y="1034" xlink:href="#rJLy6Xyjsb_pad-11"/><use x="857.46" y="664" xlink:href="#rJLy6Xyjsb_pad-11"/><use x="790.54" y="664" xlink:href="#rJLy6Xyjsb_pad-11"/><use x="1548.84" y="799.13" xlink:href="#rJLy6Xyjsb_pad-12"/><use x="1574.43" y="799.13" xlink:href="#rJLy6Xyjsb_pad-12"/><use x="1600.02" y="799.13" xlink:href="#rJLy6Xyjsb_pad-12"/><use x="1625.61" y="799.13" xlink:href="#rJLy6Xyjsb_pad-12"/><use x="1651.2" y="799.13" xlink:href="#rJLy6Xyjsb_pad-12"/><use x="1676.8" y="799.13" xlink:href="#rJLy6Xyjsb_pad-12"/><use x="1702.39" y="799.13" xlink:href="#rJLy6Xyjsb_pad-12"/><use x="1727.98" y="799.13" xlink:href="#rJLy6Xyjsb_pad-12"/><use x="1753.57" y="799.13" xlink:href="#rJLy6Xyjsb_pad-12"/><use x="1779.16" y="799.13" xlink:href="#rJLy6Xyjsb_pad-12"/><use x="1779.16" y="1028.87" xlink:href="#rJLy6Xyjsb_pad-12"/><use x="1753.57" y="1028.87" xlink:href="#rJLy6Xyjsb_pad-12"/><use x="1727.98" y="1028.87" xlink:href="#rJLy6Xyjsb_pad-12"/><use x="1702.39" y="1028.87" xlink:href="#rJLy6Xyjsb_pad-12"/><use x="1676.8" y="1028.87" xlink:href="#rJLy6Xyjsb_pad-12"/><use x="1651.2" y="1028.87" xlink:href="#rJLy6Xyjsb_pad-12"/><use x="1625.61" y="1028.87" xlink:href="#rJLy6Xyjsb_pad-12"/><use x="1600.02" y="1028.87" xlink:href="#rJLy6Xyjsb_pad-12"/><use x="1574.43" y="1028.87" xlink:href="#rJLy6Xyjsb_pad-12"/><use x="1548.84" y="1028.87" xlink:href="#rJLy6Xyjsb_pad-12"/><use x="1141" y="798" xlink:href="#rJLy6Xyjsb_pad-13"/><use x="1067" y="798" xlink:href="#rJLy6Xyjsb_pad-13"/><use x="1104" y="880" xlink:href="#rJLy6Xyjsb_pad-13"/><use x="554.47" y="664" xlink:href="#rJLy6Xyjsb_pad-14"/><use x="613.53" y="664" xlink:href="#rJLy6Xyjsb_pad-14"/></g><g id="pcb-stackup_top_cu"><use x="1244" y="829.55" xlink:href="#HJPyT7ksi-_pad-10"/><use x="1309" y="848.45" xlink:href="#HJPyT7ksi-_pad-10"/><use x="1244" y="898.45" xlink:href="#HJPyT7ksi-_pad-10"/><use x="1309" y="779.55" xlink:href="#HJPyT7ksi-_pad-10"/><use x="1064" y="959.55" xlink:href="#HJPyT7ksi-_pad-10"/><use x="1064" y="1028.45" xlink:href="#HJPyT7ksi-_pad-10"/><use x="1854" y="948.45" xlink:href="#HJPyT7ksi-_pad-10"/><use x="1854" y="879.55" xlink:href="#HJPyT7ksi-_pad-10"/><use x="1477.46" y="814" xlink:href="#HJPyT7ksi-_pad-11"/><use x="1410.54" y="814" xlink:href="#HJPyT7ksi-_pad-11"/><use x="1427.46" y="934" xlink:href="#HJPyT7ksi-_pad-11"/><use x="1360.54" y="934" xlink:href="#HJPyT7ksi-_pad-11"/><use x="1360.54" y="1034" xlink:href="#HJPyT7ksi-_pad-11"/><use x="1427.46" y="1034" xlink:href="#HJPyT7ksi-_pad-11"/><use x="857.46" y="664" xlink:href="#HJPyT7ksi-_pad-11"/><use x="790.54" y="664" xlink:href="#HJPyT7ksi-_pad-11"/><use x="1548.84" y="799.13" xlink:href="#HJPyT7ksi-_pad-12"/><use x="1574.43" y="799.13" xlink:href="#HJPyT7ksi-_pad-12"/><use x="1600.02" y="799.13" xlink:href="#HJPyT7ksi-_pad-12"/><use x="1625.61" y="799.13" xlink:href="#HJPyT7ksi-_pad-12"/><use x="1651.2" y="799.13" xlink:href="#HJPyT7ksi-_pad-12"/><use x="1676.8" y="799.13" xlink:href="#HJPyT7ksi-_pad-12"/><use x="1702.39" y="799.13" xlink:href="#HJPyT7ksi-_pad-12"/><use x="1727.98" y="799.13" xlink:href="#HJPyT7ksi-_pad-12"/><use x="1753.57" y="799.13" xlink:href="#HJPyT7ksi-_pad-12"/><use x="1779.16" y="799.13" xlink:href="#HJPyT7ksi-_pad-12"/><use x="1779.16" y="1028.87" xlink:href="#HJPyT7ksi-_pad-12"/><use x="1753.57" y="1028.87" xlink:href="#HJPyT7ksi-_pad-12"/><use x="1727.98" y="1028.87" xlink:href="#HJPyT7ksi-_pad-12"/><use x="1702.39" y="1028.87" xlink:href="#HJPyT7ksi-_pad-12"/><use x="1676.8" y="1028.87" xlink:href="#HJPyT7ksi-_pad-12"/><use x="1651.2" y="1028.87" xlink:href="#HJPyT7ksi-_pad-12"/><use x="1625.61" y="1028.87" xlink:href="#HJPyT7ksi-_pad-12"/><use x="1600.02" y="1028.87" xlink:href="#HJPyT7ksi-_pad-12"/><use x="1574.43" y="1028.87" xlink:href="#HJPyT7ksi-_pad-12"/><use x="1548.84" y="1028.87" xlink:href="#HJPyT7ksi-_pad-12"/><use x="693.92" y="1057.7" xlink:href="#HJPyT7ksi-_pad-13"/><use x="693.92" y="770.3" xlink:href="#HJPyT7ksi-_pad-13"/><path fill="none" stroke-width="41.56" d="M803.94 882.5h41.56m51.18-31.49h41.56m0 62.99h-41.56m-51.18 31.5h-41.56m92.74 31.49h41.56"/><use x="964" y="1164" xlink:href="#HJPyT7ksi-_pad-15"/><use x="1064" y="1164" xlink:href="#HJPyT7ksi-_pad-15"/><use x="1164" y="1164" xlink:href="#HJPyT7ksi-_pad-15"/><use x="1264" y="1164" xlink:href="#HJPyT7ksi-_pad-15"/><use x="1364" y="1164" xlink:href="#HJPyT7ksi-_pad-15"/><use x="1464" y="1164" xlink:href="#HJPyT7ksi-_pad-15"/><use x="1564" y="1164" xlink:href="#HJPyT7ksi-_pad-15"/><use x="1664" y="1164" xlink:href="#HJPyT7ksi-_pad-15"/><use x="1764" y="1164" xlink:href="#HJPyT7ksi-_pad-15"/><use x="1864" y="1164" xlink:href="#HJPyT7ksi-_pad-15"/><use x="1864" y="664" xlink:href="#HJPyT7ksi-_pad-15"/><use x="1764" y="664" xlink:href="#HJPyT7ksi-_pad-15"/><use x="1664" y="664" xlink:href="#HJPyT7ksi-_pad-15"/><use x="1564" y="664" xlink:href="#HJPyT7ksi-_pad-15"/><use x="1464" y="664" xlink:href="#HJPyT7ksi-_pad-15"/><use x="1364" y="664" xlink:href="#HJPyT7ksi-_pad-15"/><use x="1264" y="664" xlink:href="#HJPyT7ksi-_pad-15"/><use x="1164" y="664" xlink:href="#HJPyT7ksi-_pad-15"/><use x="1064" y="664" xlink:href="#HJPyT7ksi-_pad-15"/><use x="964" y="664" xlink:href="#HJPyT7ksi-_pad-15"/><use x="1067" y="798" xlink:href="#HJPyT7ksi-_pad-16"/><use x="1141" y="798" xlink:href="#HJPyT7ksi-_pad-16"/><use x="1104" y="880" xlink:href="#HJPyT7ksi-_pad-16"/><use x="613.53" y="664" xlink:href="#HJPyT7ksi-_pad-17"/><use x="554.47" y="664" xlink:href="#HJPyT7ksi-_pad-17"/><path fill="none" stroke-width="8" d="M533 635.39V633h233.05l-5.2 5.2v9.8H639.28v-3.89l-5.86-5.86h-39.78l-5.86 5.86v39.78l5.86 5.86h39.78l5.86-5.86V680h121.57v9.8l5.86 5.85h47.65l5.86-5.85v-51.6l-5.2-5.2h17.96l-5.2 5.2v51.6l5.86 5.85h47.65l5.86-5.85V680h36.93l3.47 8.36 12.09 12.09 15.81 6.55h17.1l10.28-4.26 25.13 22.84 4.41 4.42h.44l.33.3 6.24-.3h42.99l57.63 57.63v39.51l5.86 5.86h24.51l62.37 62.37v7.26L1148 967.37v156.71l-8.36 3.47-12.09 12.09-6.55 15.81v17.1l6.55 15.81 6.64 6.64h-34.72l.38-.38 4.35-5.99 3.36-6.59 2.28-7.03 1.11-7.01H1068v-8h42.95l-1.11-7.01-2.28-7.03-3.36-6.59-4.35-5.99-5.23-5.23-5.99-4.35-6.59-3.36-7.03-2.28-7.01-1.11V1160h-8v-42.95l-7.01 1.11-7.03 2.28-6.59 3.36-5.99 4.35-5.23 5.23-4.35 5.99-3.36 6.59-2.28 7.03-1.11 7.01H1060v8h-42.95l1.11 7.01 2.28 7.03 3.36 6.59 4.35 5.99.38.38h-34.72l6.64-6.64 6.55-15.81v-17.1l-6.55-15.81-12.09-12.09-8.36-3.47v-105.46l25.63-25.63h40.65l1.09.79h-6.47l-3.56.95-3.2 1.85-2.6 2.6-1.85 3.2-.95 3.56v18.51H1060v38.67h-19.1l-3.56-.96-3.2-1.84-2.6-2.61-1.85-3.19-.95-3.56v-18.51H1068v30.67h19.1l3.56-.96 3.2-1.84 2.6-2.61 1.85-3.19.95-3.56v-18.51H1068v-8h31.26v-18.51l-.95-3.56-1.85-3.2-2.6-2.6-3.2-1.85-3.56-.95H1068v30.67h-8v-30.67h-12.11l4.84-.79h5.34l1.03-1.03 1.45-.24 1.08-1.5h27.77l5.86-5.86v-49.62l-2.19-2.19 17.56-17.55h8.51l5.86-5.86v-58.28l-5.86-5.86h-30.28l-5.86 5.86v46.51L1057.37 923l-5.88 5.88h-4.14l5.15-5.15v-19.46l-13.77-13.77h-19.46l-9.5 9.5h-44.02l-1.42-3.44-8.66-8.65-8-3.32.71-.14 6.33-2.62 5.7-3.81 4.84-4.84 3.81-5.7 2.62-6.33 1.34-6.72v-.53h-73.45v-5.78h73.45v-.54l-1.34-6.72-2.62-6.33-3.81-5.69-4.84-4.85-5.7-3.8-6.33-2.63-6.72-1.33h-42.09v31.89h-5.78v-31.89h-.54l-6.72 1.33-6.33 2.63-5.69 3.8-4.85 4.85-3.8 5.69-2.63 6.33-1.33 6.72v.54h31.89v5.78H861.9v.53l.33 1.69-10.61-4.4h-53.81l-11.31 4.69-8.66 8.66-4.68 11.31v12.25l4.68 11.31 8.66 8.66 11.31 4.68h53.81l11.31-4.68 4.56-4.56-1.59 3.84v12.24l1.59 3.84-4.56-4.56-11.31-4.68h-53.81l-11.31 4.68-8.66 8.66-4.68 11.31v12.25l4.68 11.31 8.66 8.66 11.31 4.69h53.81l11.31-4.69 4.56-4.56-1.59 3.84v12.24l4.68 11.32 8.66 8.66 11.31 4.68h53.81l3.64-1.51v117.82l-8.36 3.47-12.09 12.09-6.55 15.81v17.1l6.55 15.81 6.64 6.64H533V692.61l.32.18 3.56.96h13.72v-25.88H584.22v13.72l-.95 3.56-1.85 3.19-2.6 2.61-3.2 1.84-3.56.96h-13.71v-33.62h25.87v-13.72l-.95-3.56-1.85-3.19-2.6-2.61-3.2-1.84-3.56-.96h-13.71v25.88h-7.75v-25.88h-13.72l-3.56.96-.32.18m17.6 2.57h7.75m0 7.98h-7.75m0 7.99h7.75m0 7.98h29.43m0-7.98h-3.56m-.13-7.99h3.69m-8.06-7.98H761.1m-.25 7.98H639.28m-1.98 39.93h38.35m1.36-.57h33.82l31.24 12.94 23.91 23.91 12.94 31.24v33.82l-12.94 31.24-23.91 23.91-31.24 12.94h-33.82l-31.24-12.94-23.91-23.91-12.94-31.24v-33.82l12.94-31.24 23.91-23.91 31.24-12.94m-20.64 8.55H533m0 7.99h109.18m-7.99 7.98H533m0 7.99h93.21m-5.86 7.98H533m0 7.99h84.05m-3.31 7.98H533m0 7.99h77.43m-1.51 7.98H533m0 7.99h75.92m0 7.98H533m0 7.99h75.92m1.02 7.98H533m0 7.99h80.25m3.31 7.98H533m0 7.99h86.87m5.16 7.98H533m0 7.99h100.01m7.99 7.98H533m0 7.99h120.52m19.28 7.98H533m0 7.99h248.37m-5.37 7.98H533m0 7.99h240.16m0 7.98H533m0 7.99h242.17m4.2 7.98H533m0 7.99h255.56m2.69 7.98H533m0 7.99h247.48m-4.85 7.98H533m0 7.99h240.16m0 7.98H533m0 7.99h242.54m4.72 7.98H533m0 7.99h142.49m1.52-.63h33.82l31.24 12.94 23.91 23.91 12.94 31.24v33.82l-12.94 31.24-23.91 23.91-31.24 12.94h-33.82l-31.24-12.94-23.91-23.91-12.94-31.24v-33.82l12.94-31.24 23.91-23.91 31.24-12.94m-20.79 8.62H533m0 7.98h109.11m-7.98 7.99H533m0 7.98h93.14m-5.81 7.99H533m0 7.98h84.02m-3.31 7.99H533m0 7.98h77.41m-1.49 7.99H533m0 7.98h75.92m0 7.99H533m0 7.98h75.92m1.05 7.99H533m0 7.98h80.28m3.3 7.99H533m0 7.98h86.89m5.2 7.99H533m0 7.98h100.07m7.99 7.99H533m0 7.98h120.67m19.28 7.99H533m0 7.98h390.67m-2.67 7.99H533m0 7.98h388m.17 7.99H533m0 7.98h391.48m3.64 7.99H533m181.89-47.91h212.09m7.18-7.99H734.17m12.61-7.98h198.9m2.32-7.99H754.77m7.98-7.98H948m0-7.99H767.95m3.31-7.98H948m0-7.99H774.57m3.3-7.98H948m0-7.99H778.92m0-7.98H948m0-7.99H778.92m0-7.98H948m0-7.99H777.44m-3.31-7.98H948m0-7.99H770.82m-3.31-7.98H948m32 7.98h48.74m0-7.98h-43.38m7.99-7.99h35.57m4.52-7.98h-32.11M980 1029.23h80m0 7.98h8m0-7.98h80m0 7.98h-48.74m0 7.99H1148m0 7.98h-49.34m-6.27 7.99H1148m0 7.98H980m0-7.98h55.61m-6.27-7.99H980m0-7.98h48.74m0-7.99H980m0 39.93h168m0 7.98H980m0 7.99h168m0 7.98H980m0 7.99h168m0 7.98h-79.91m-.09 0h-8m-.09 0H980m2.32 7.99h55.33m-9.15 7.98h-34.66m7.18 7.99h21.94m-3.51 7.98h-15.12m2.67 7.99h10.52m-10.52 7.98h53m0-7.98h8m0 7.98h53m0-7.98h-10.52m-1.93-7.99h15.12m3.31-7.98h-21.94m-5.54-7.99h34.66m11.52-7.98h-55.33m-22.35 0h-8m0 7.98h8m0 7.99h-8m0 7.98h8m42.17 23.96h11m3.31 7.98h-16.57m-3.93 7.99h24.14m-104.1 0h-24.14m3.64-7.99h16.57m-2.26-7.98h-11m53.17-111.79h8m0-7.99h-8m0-7.98h8m0-23.96h-8m0-7.98h8m0-7.99h-8m0-7.98h8m22.32-7.99H1148m0-7.98h-52.74m0-7.99H1148m2.03-7.99h-54.77m0-7.98h62.75m7.99-7.99h-70.74m0-7.98h78.72m7.99-7.99h-88.05m6.29-7.98h89.74m7.99-7.99h-89.75m16.5-7.98h81.23m6.82-7.99H1125m0-7.98h85.85m-7.98-7.99H1125m0-7.98h69.88m-7.98-7.99H1125m0-7.98h53.91m-7.98-7.99H1125m-5.29-7.98h43.23m-7.98-7.99H970.32m2.29 7.99h115.68m-5.29 7.98H899.57m-5.78 0h-37.76m6.27-7.98H734.32m12.53-7.99h117.74m4.56-7.98H754.83m7.99-7.99h115.25m15.72 0h5.78m0 7.99h-5.78m0 7.98h5.78m0 7.99h-5.78m63.05-23.96H1042m0 3.23V799.5h23.5V837h-11.34l-3.56-.95-3.2-1.85-2.6-2.6-1.85-3.2-.95-3.56m1.64 4.76h-77.88m5.76 31.94H1083m0 7.98H967.69m-6.77 7.99H1083m0 7.98H949.85m11.39 7.99h55.05m25.42 0H1083m-4.09 7.98h-29.21m2.8 7.99h18.42m-7.98 7.98h-10.44m-1.69 7.99h4.14M1029 914H896.68m-30.78 3.43h-7.72m2.7-7.98h5.02m-20.4 36.05h167l-3.5-1.5m85.56 53.29H1148m0 7.98h-48.92m.18 7.99H1148m0 7.98h-48.74M1234 944h140l-13.46-10M1304 974l60 60h-3.46m66.92 0l80-60H1584l16.02 16.02v38.85m-25.59 0v24.7L1564 1064h-70l-100 100h-30m-50-50l-50 50m50-50h100l85.13-85.13h49.71m39.59 28.06v2.44L1578 1069.8l-.2.2h100.4l8.06-8.06-1.62.43h-7.84v-33.49h-.01v33.49h-7.84l-3.56-.95-3.19-1.84-1.2-1.21h-19.94l-2.65-2.65-2.65 2.65h-20.29l-2.65-2.65-2.65 2.65h-20.29l-1.45-1.44m-1.8 4.24h78.32m11.84 0h.01m-.01-7.99h.01m-.01-7.98h.01m-.01-7.99h.01m-.01-7.98h.01m0-.36v-33.5h7.84l3.56.96 3.19 1.84 1.2 1.2h19.94l2.65 2.66 2.65-2.66h20.29l2.65 2.66 2.65-2.66h20.29l2.65 2.66 2.66-2.66h20.28l5.86 5.86v47.29l-2 2v77.83l7.29 7.29 6.55 15.81v17.1l-6.55 15.81-6.64 6.64h34.72l-.38-.38-4.35-5.99-3.36-6.59-2.28-7.03-1.11-7.01H1860v-8h8v-42.95l7.01 1.11 7.03 2.28 6.59 3.36 5.99 4.35.38.38V693.81l-6.64 6.64-15.81 6.55h-17.1l-15.81-6.55-12.09-12.09-.91-2.2-49.18 49.18h11.43l13.77 13.77v19.47l-7.5 7.5v46.69l-5.86 5.86h-20.28l-2.66-2.66-2.65 2.66h-20.29l-2.65-2.66-2.65 2.66h-20.29l-2.65-2.66-2.65 2.66h-20.29l-2.65-2.66-2.65 2.66h-19.74v4.79L1611.63 889l46.2 46.2h164.91v-11.56l5.86-5.86h50.8l5.86 5.86v49.62l-5.86 5.86h-50.8l-5.86-5.86v-6.06H1667.2v28.64l1.75-.47h7.84v33.5h.01m-.01-7.63h.01m-.01-7.98h.01m-.01-7.99h.01m-.01-7.98h.01m-9.6-7.99H1895m0-7.98h-227.8m0-7.99h155.61m-27.65 31.94H1895m0-7.98h-205.14m12.53 31.58v36.74L1684 1084h-140l-80 80m100 0l60-60h70l33.98-33.98v-41.15m25.59 0v45.56L1664 1164m100 0l15.16-15.16v-119.97m16 .36H1895m0 7.98h-99.84m0 7.99H1895m0 7.98h-100.51m-1.33 7.99H1895m0 7.98h-101.84m0 7.99H1895m0 7.98h-101.84m0 7.99H1895m0 7.98h-101.84m0 7.99H1895m0 7.98h-26.91m-.09 0h-8m0-.01V1160h-42.95l1.11-7.01 2.28-7.03 3.36-6.59 4.35-5.99 5.23-5.23 5.99-4.35 6.59-3.36 7.03-2.28 7.01-1.11m-.09.01h-66.75m0 7.99h44.49m-9.15 7.98h-34.66m7.18 7.99h21.94m-3.51 7.98h-15.12m2.67 7.99h10.52m-10.52 7.98h53m0-7.98h8m0-7.99h-8m0-7.98h8m0-7.99h-8m0-7.98h8m22.35 0h4.65m-77.17 47.91h-11m-3.31 7.98h16.57m3.93 7.99h-24.14m-120.83-119.78h-100.4m46.96-40.28v-63.26L1604 944h-160l-16.54-10m-83.75-61h238.66l44.38-44.37h-11.28l-2.65-2.66-2.65 2.66h-20.29l-2.65-2.66-2.65 2.66h-20.29l-2.65-2.66-2.66 2.66h-20.28l-5.86-5.86v-9.64h-25.69v26.67l-5.86 5.85h-47.65l-5.86-5.85v-35.69l-3.56-3.56V810h-29.68v8h29.68v19.5l-.95 3.56-1.85 3.19-2.6 2.61-3.2 1.84-3.56.95h-17.52V818h-8v31.65h-17.53l-3.56-.95-3.2-1.84-2.6-2.61-1.85-3.19-.95-3.56V818h29.68v-8h-29.68v-10.62l-8.12 8.12h-19.46l-9.01-9.01v5.87l-5.86 5.86h-50.8l-4.76-4.76.42 1.58v9.47l3.08-1.78 3.56-.95h19.1v30.67h8v8h31.26v18.51l-.55 2.04m.55-3.48h241.59m7.98-7.98h-249.57m0-7.99h257.56m7.98-7.98h-108.42m5.77-7.99h110.64m7.98-7.98h-118.62m0-7.99h25.69m0-7.98h-25.69m-14.81-14.5L1477.46 814l-45-45H1389l-25-25h-240l-60-60v-20m-55.84 61.79H767.49m3.31 7.99h295.35m7.98 7.98H774.1m3.31 7.99h304.71m-2.28 9.25l3.56.95 3.2 1.85 2.6 2.6 1.85 3.2.95 3.56v25.34h-23.5v3h23.5v25.34l-.95 3.56-1.85 3.2-2.6 2.6-3.2 1.85-3.56.95h-11.34v-37.5h-3v-3h3V759h11.34m10.26-1.27H778.92m0 7.99h265.12m.76-1.32l2.6-2.6 3.2-1.85 3.56-.95h11.34v37.5H1042v-25.34l.95-3.56 1.85-3.2m-2.8 9.3H778.92m0 7.99H1042m0 7.98H777.9m-3.31 7.99h290.91m3 0h51.5m0 7.98h-28m0 7.99h28m0 7.98h-28m-1.64 7.99h32.1m-2.46-39.93h-28m0-7.98h22.06m-7.98-7.99H1092m-2.04-7.98h8.13m-29.59 0h-3m0 7.98h3m0 7.99h-3m0 7.98h3m0 15.97h-3m0 7.99h3m0 7.98h-3m0 7.99h3m-26.5-15.97H767.98m3.3-7.99H1042m93.63-47.64l5 5h15.51l5.86 5.86v30.51l46.74 46.74v-12.56H1240v-8h8v-30.67h19.1l3.56.96 3.2 1.84 2.6 2.61 1.28 2.21V758h-142.11m23.23 7.72h118.88m0 7.98H1162m0 7.99h115.74m0 7.98H1162m0 7.99h52.18m-.04.02l3.2-1.84 3.56-.96h19.1v30.67h-31.26v-18.51l.95-3.56 1.85-3.19 2.6-2.61m-5.03 7.96h-40.84m7.99 7.99h32.48m0 7.98h-24.5m7.99 7.99H1240m0 3.95v30.67h-13.15l3.56 3.56h38.99l4.76 4.76-.42-1.58v-9.47l-3.08 1.78-3.56.95H1248v-30.67h-8m0 4.03h8m0 7.99h-8m0 7.98h8m0 7.99h-8m31.15 7.98h2.59m-.08-7.98h.08m39.26-15.97h67.97m-4.1-7.99h-32.61m0 6.87v-18.51l-.95-3.56-1.85-3.2-2.6-2.6-3.2-1.85-3.56-.95H1313v30.67h31.26m0-14.85h32.59m0-7.99h-33.98m-3.89-15.97h8.43m23.18 0h6.26m29.68 7.99h-127.27m-.37-7.99h.13m-1.28-7.98h-3.92m-25.82 0h-8m0 7.98h8m0 7.99h-8m0 7.98h8m-39.26 15.97h-8.53m7.99 7.99h.54m96.26-7.99h8m0-7.98h-8m0-7.99h8m-4-42.06h44.45L1359 784m40-30l-35-35h-45l-55-55m100 0l75 75h130l31.02 31.02v29.11m-25.59 0v-29.7L1559 754h-160m15.54 59.63h33.24m0 7.98h-3.56m0 7.99h3.56m0 7.98h-3.58m-4.1 7.99h13.45m-39.01 0h-8m0-7.99h8m0-7.98h-8m0-7.99h8m29.68-15.97h3.56m44.56-6.51h56.5m76.77 0v-48.52L1624 749m20-25h-120l-60-60m100 0l45 45h50l43.39 43.39v46.74m25.59 0v-99.11L1764 664m38.98 45.82H1895m0-7.98h-9.98m9.94-7.99h.04m0 23.96h-100.01m-7.98 7.98H1895m0 7.99h-115.98m16.29 7.98H1895m0 7.99h-92.34m0 7.98H1895m0 7.99h-92.34m-5.13 7.98H1895m0 7.99h-99.84m0 7.98H1895m0 7.99h-99.84m0 7.98H1895m0 7.99h-99.84m0 7.98H1895m0 7.99h-227.8m-4.16 7.98H1895m0 7.99h-15.34m1 .27l3.2 1.84 2.6 2.61 1.85 3.19.95 3.56v18.51H1858v-30.67h19.1l3.56.96m7.67 7.71h6.67m0 7.99h-5.74m0 7.98h5.74m0 7.99h-37m0-1.96v8h31.26v18.51l-.95 3.56-1.85 3.2-2.6 2.6-3.2 1.85-3.56.95H1858v-30.67h-8v-8h8m0-6.03h-8m0 6.03v-30.67h-19.1l-3.56.96-3.2 1.84-2.6 2.61-1.85 3.19-.95 3.56v18.51H1850m0 1.96h-226.88m7.98-7.99h187.64m0-7.98h-179.65m7.98-7.99h172.6m8.67-7.98h-173.28m-39.93 39.92h203.61m0-1.94v18.51l.95 3.56 1.85 3.2 2.6 2.6 3.2 1.85 3.56.95h19.1v-30.67h-31.26m0 9.93h-202.63m7.98 7.98h194.65m3.43 7.99h-190.09m7.98 7.98H1895m0-7.98h-9.17m3.43-7.99h5.74m0-7.98h-5.74m0-7.99h5.74m-37 0h-8m0 7.99h8m0 7.98h-8m0 7.99h8m27.26 15.97h9.74m0 7.98h-9.74m0 7.99h9.74m0 7.98h-9.74m0 7.99h9.74m0 7.98h-9.74m-.07 7.99h9.81m0 39.93h-99.84m0 7.98H1895m-72.26-87.84h-166.71m-7.98-7.98h174.69m27.26-63.88h8m0-7.99h-8m0-7.98h8m-78.84-46.44v-40.29m-25.59-19.41L1824 669h35l5-5m-30.96 29.85h-14.09m-7.99 7.99h32.02m-89.41 37.59v59.7m-76.77 0V756.8L1644 724m-644.6-6.19H761.64m-7.99-7.99h236.97m-47.64-7.98H745.67m-14.2-7.99h33.44m-4.06-7.98H712.2m103.96 7.98h15.68m-4.06-7.98h-7.56m0-7.99h7.56m0-7.98h-7.56m0-7.99h7.56m0-7.98h-7.56m0-7.99h7.56m.25-7.98h-8.06m67.18 47.91h39.36m6.53 7.98h-49.95m-89.69 159.7h-78.36m-2.69 119.78h78.35m-29 31.94h122.82m-11.08-7.98H753.71m-7.98-7.99h122.73m-2.56-7.98H731.63m127.1-7.99h7.17M589.76 685.87h-6.91m1.37-7.99h3.56m0-7.98h-3.56m-25.87 0h-7.75m0 7.98h7.75m0 7.99h-7.75"/><use x="1024" y="799" xlink:href="#HJPyT7ksi-_pad-19"/><use x="1029" y="914" xlink:href="#HJPyT7ksi-_pad-19"/><use x="1009" y="944" xlink:href="#HJPyT7ksi-_pad-19"/><use x="1014" y="1029" xlink:href="#HJPyT7ksi-_pad-19"/><use x="1234" y="944" xlink:href="#HJPyT7ksi-_pad-19"/><use x="1304" y="974" xlink:href="#HJPyT7ksi-_pad-19"/><use x="1359" y="849" xlink:href="#HJPyT7ksi-_pad-19"/><use x="1359" y="784" xlink:href="#HJPyT7ksi-_pad-19"/><use x="1244" y="779" xlink:href="#HJPyT7ksi-_pad-19"/><use x="1624" y="749" xlink:href="#HJPyT7ksi-_pad-19"/><use x="1779.16" y="758.84" xlink:href="#HJPyT7ksi-_pad-19"/><use x="1854" y="829" xlink:href="#HJPyT7ksi-_pad-19"/><use x="1684" y="979" xlink:href="#HJPyT7ksi-_pad-19"/><path fill="none" stroke-width="20" d="M1309 848.45h-46.1l-18.9-18.9"/><path fill="none" stroke-width="12" d="M1254 889h335l62.2-62.2v-27.67M1589 889l62.2 62.2h195.56l7.24-2.75m-202.8 2.75v77.67M1254 889l-5.55 4.45-4.45 5h-5.55L1141 801v-15l-72-72h-50l-55-50H857.46m-66.92 0H613.53m283.15 312.99H999l-35 35V1164m200 0V974l80-80v4.45m-140 .55v-19m0 19l-40 40v20.55l3 7m-3-7l-12.56 17.44H999"/></g><g id="pcb-stackup_top_ss"><path fill="none" stroke-width="3" d="M640.5 640.5v29.02h14.51l4.84-4.83v-9.68l-4.84-4.84H640.5m29.47-9.67v29.02m19.34 0V640.5l-9.67 9.67-9.67-9.67m29.46 0v29.02h14.51l4.84-4.83v-9.68l-4.84-4.84h-14.51m9.68 0l9.67-9.67m81.72 65v29.02h14.51l4.84-4.83v-9.68l-4.84-4.84H800.5m9.67 0l9.68-9.67m10.12 0l19.34 19.35v4.84l-4.83 4.83h-9.68l-4.83-4.83m0-24.19h19.34m149.17 122h24.18l4.84 4.84v9.67l-4.84 4.84h-24.18m9.67 10.12l-9.67 9.67h29.02m0-9.67v19.34m155.38-53.33v-9.67l4.84-4.84m0-10.12l-4.84-4.83v-9.68l4.84-4.84h19.35l4.84 4.84v9.68l-4.84 4.83m0 10.12l4.84 4.84v9.67l-4.84 4.84h-4.84l-4.83-4.84v-4.84m0 4.84l-4.84 4.84h-4.84l-4.84-4.84m110 55.86l4.84-4.84h19.35l4.84 4.84v9.68l-4.84 4.83m4.84 10.12l-19.35 19.35h-4.84l-4.84-4.84v-9.67l4.84-4.84m0-10.12l-4.84-4.83v-9.68m29.03 24.63v19.35m138.57-11.74l4.83 4.84h9.68l4.84-4.84v-14.51m9.67 0h-29.02v14.51m19.35-4.84l9.67 9.68m-14.51 10.11v19.35m14.51-4.83h-29.02l14.51-14.52m4.84 70.54v14.51l-4.84 4.84h-9.68l-4.83-4.84v-14.51h29.02m-9.67 9.67l9.67 9.68m-4.84 10.11l4.84 4.84v9.68l-4.84 4.83h-4.83l-4.84-4.83v-4.84m0 4.84l-4.84 4.83h-4.84l-4.83-4.83v-9.68l4.83-4.84m183.57-118.55v-9.68l4.84-4.83m-4.84-10.12h24.19l4.84-4.84v-9.67l-4.84-4.84h-24.19m29.03 29.47l-19.35 19.34h-4.84l-4.84-4.83m29.03 4.83v-19.34m-138.41-57.59v-19.35m0 9.68h-29.02l9.67-9.68m-4.84-10.11h9.68l4.84-4.84v-14.51m9.67 0h-29.02v14.51l4.83 4.84m14.52-9.68l9.67 9.68m298.38 177.92l4.84-4.84h19.35l4.84 4.84v9.68l-4.84 4.83m-9.67 10.12l-14.52 14.51h29.03m-14.51 4.84v-19.35m-9.68-10.12l-4.84-4.83v-9.68m-707.79 14.06v9.68l-4.84 4.84m4.84 10.11v19.35m0-9.67h-29.02l9.67-9.68m-4.84-10.11l-4.83-4.84v-9.68l4.83-4.83h19.35l4.84 4.83m-305.14 165.6h-14.52l-4.83 4.84v9.67l4.83 4.84h14.52m0 9.67v-29.02m-29.39 19.35h-4.84l-9.68-9.68m0-9.67v19.35m-10.11-4.84v-14.51h-14.51l-4.84 4.84 4.84 4.83h14.51m0 4.84l-4.84 4.84h-9.67m-14.96-4.84l-4.83 4.84h-9.68l-4.84-4.84v-9.67l4.84-4.84h9.68l4.83 4.84v9.67m-29.46 0v-9.67l-4.84-4.84h-14.51v29.02m0-9.67h14.51l4.84-4.84m-58.93 0v-9.67l-4.84-4.84h-14.51v29.02m0-9.67h14.51l4.84-4.84m-29.47 4.84h-14.51l-4.84-4.84 4.84-4.84h9.67l4.84-4.83-4.84-4.84h-14.51m-10.11 0v19.35m0-19.35h-14.52l-4.83 4.84v14.51m-9.97-4.84h-9.68m4.84 9.68l4.84 4.83m-4.84-4.83v-24.19m-14.81 0h-9.67m4.84 0v19.35h-4.84m4.84 9.67v4.84"/><path fill="none" stroke-width="2" d="M954.98 1122.58H977l-22.02-14.68H977m0-7.39v-7.34m0 3.67h-22.02m0-3.67v7.34m0-14.76h14.68l7.34-7.34-7.34-7.34h-14.68m100 3.64v-7.34l3.67-3.67h14.68l3.67 3.67v7.34l-3.67 3.67h-7.34v-7.34m-7.34 7.34l-3.67-3.67m0 11.09l22.02 14.68h-22.02m0 7.42v11.01l3.67 3.67h14.68l3.67-3.67v-11.01h-22.02m0-22.1H1077m77.98 0h14.68l7.34 7.34-7.34 7.34h-14.68m3.67 7.42l-3.67 3.67v7.34l3.67 3.67h3.67l3.67-3.67 3.67 3.67h3.67l3.67-3.67v-7.34l-3.67-3.67m-7.34 7.34v3.67m-3.67-40.53l3.67-3.67 3.67 3.67h3.67l3.67-3.67v-7.34l-3.67-3.67m-7.34 7.34v3.67m-3.67 3.67h-3.67l-3.67-3.67v-7.34l3.67-3.67m96.33 7.37v7.34m0-3.67H1277m0-3.67v7.34m-3.67 7.39h-14.68l-3.67 3.67v7.34l3.67 3.67h14.68l3.67-3.67v-7.34l-3.67-3.67m0 22.1l3.67 3.67v7.34l-3.67 3.67h-7.34l-3.67-3.67v-3.67l3.67-7.34h-11.01v14.68m100-3.67l11.01-11.01v14.68m11.01-3.67h-22.02m3.67-18.43l-3.67-3.67v-7.34l3.67-3.67h14.68l3.67 3.67v7.34l-3.67 3.67h-14.68m-3.67-22.07v-7.34m0 3.67H1377m0-3.67v7.34m77.98 0v-7.34m0 3.67H1477m0-3.67v7.34m-3.67 7.39h-14.68l-3.67 3.67v7.34l3.67 3.67h14.68l3.67-3.67v-7.34l-3.67-3.67m0 22.1l3.67 3.67v7.34l-3.67 3.67h-3.67l-3.67-3.67v-3.67m0 3.67l-3.67 3.67h-3.67l-3.67-3.67v-7.34l3.67-3.67m96.33 3.67l3.67-3.67h14.68l3.67 3.67v7.34l-3.67 3.67h-14.68l-3.67-3.67v-7.34m3.67-11.09l-3.67-3.67v-11.01H1577v11.01l-3.67 3.67h-14.68m0-22.1l-3.67-3.67v-7.34l3.67-3.67h3.67l3.67 3.67v7.34l3.67 3.67h3.67l3.67-3.67v-7.34l-3.67-3.67m81.65 11.04l3.67-3.67h3.67l3.67 3.67v7.34l3.67 3.67h3.67l3.67-3.67v-7.34l-3.67-3.67m-18.35 3.67v7.34l3.67 3.67m-3.67 7.42H1677v11.01l-3.67 3.67h-14.68l-3.67-3.67v-11.01m0 22.1v7.34m0-3.67H1677m0-3.67v7.34m77.98-.03l14.68-14.68m-3.67 3.67l11.01 11.01m0-14.68h-22.02m3.67-7.42l-3.67-3.67v-7.34l3.67-3.67h14.68l3.67 3.67v7.34l-3.67 3.67m0-22.1l3.67-3.67v-7.34l-3.67-3.67m-7.34 3.67v7.34l3.67 3.67h3.67m-7.34-11.01l-3.67-3.67h-3.67l-3.67 3.67v7.34l3.67 3.67m20.94-83.51h-231.18V833.13h231.18v161.74m75.39 72.5l3.67-3.67h14.68l3.67 3.67v7.34l-3.67 3.67h-7.34v-7.34m-7.34 7.34l-3.67-3.67v-7.34m0 18.43l22.02 14.68h-22.02m0 7.42v11.01l3.67 3.67h14.68l3.67-3.67v-11.01h-22.02m0-22.1H1877m-204-329.29v-14.68l-14.68 14.68h-3.67l-3.67-3.67v-7.34l3.67-3.67m0-7.42l-3.67-3.67v-7.34l3.67-3.67h14.68l3.67 3.67v7.34l-3.67 3.67h-14.68m-3.67-22.07V705m0 3.67H1673m0-3.67v7.34m77.98 0H1773m0 14.76l-22.02 14.68m0-14.68l22.02 14.68m-22.02-22.1V705m100 0v11.01l3.67 3.67h7.34l3.67-3.67V705m0 7.34l7.34 7.34m0 7.42l-22.02 14.68m0-14.68l22.02 14.68m0-36.78h-22.02M1573 705v7.34m0-3.67h-22.02m0-3.67v7.34m3.67 7.39h14.68l3.67 3.67v7.34l-3.67 3.67h-14.68l-3.67-3.67v-7.34l3.67-3.67m3.67 22.1l-7.34 7.34H1573m0-7.34v14.68m-100-3.67v-7.34l-3.67-3.67-14.68 14.68h14.68l3.67-3.67m-3.67-11.01h-14.68l-3.67 3.67v7.34l3.67 3.67m0-22.1l-3.67-3.67v-7.34l3.67-3.67h14.68l3.67 3.67v7.34l-3.67 3.67h-14.68m-3.67-22.07V705m0 3.67H1473m0-3.67v7.34m-100 3.67v-7.34l-3.67-3.67m-7.34 3.67v7.34l3.67 3.67h3.67l3.67-3.67m-3.67 11.09l3.67 3.67v7.34l-3.67 3.67m3.67 7.42v14.68m0-14.68h-22.02m3.67-7.42l-3.67-3.67v-7.34l3.67-3.67h14.68m-14.68-7.42l-3.67-3.67v-7.34l3.67-3.67h3.67l3.67 3.67m-88.99 0l-3.67-3.67m3.67 3.67v7.34l-3.67 3.67h-3.67l-3.67-3.67v-7.34l-3.67-3.67h-3.67l-3.67 3.67v7.34l3.67 3.67m-3.67 7.42v11.01l3.67 3.67h14.68l3.67-3.67V727.1h-22.02m7.34 22.1l-7.34 7.34 7.34 7.34H1273m-11.01 0V749.2m-3.67 0H1273m-100 7.34h-22.02m0-7.34v14.68m3.67-22.1l-3.67-3.67v-7.34l3.67-3.67h3.67l3.67 3.67v7.34l3.67 3.67h3.67l3.67-3.67v-7.34l-3.67-3.67m3.67-7.42l-7.34-7.34m0 3.67V705m7.34 0h-22.02v11.01l3.67 3.67h7.34l3.67-3.67m-92.66 0V705h-22.02v11.01l3.67 3.67h3.67l3.67-3.67V705m0 11.01l3.67 3.67h3.67l3.67-3.67m0 18.43h-22.02m0-7.34v14.68m3.67 7.42l-3.67 3.67v7.34l3.67 3.67 14.68-14.68 3.67 3.67v7.34l-3.67 3.67h-14.68m0-14.68h14.68M973 752.87l-3.67-3.67m3.67 3.67v7.34l-3.67 3.67h-3.67l-3.67-3.67v-3.67m0 3.67l-3.67 3.67h-3.67l-3.67-3.67v-7.34l3.67-3.67m-3.67-7.42h14.68l7.34-7.34-7.34-7.34h-14.68m3.67-7.42h3.67l3.67-3.67 3.67 3.67h3.67l3.67-3.67v-7.34l-3.67-3.67m-7.34 7.34v3.67m-7.34 3.67l-3.67-3.67v-7.34l3.67-3.67"/><path fill="none" stroke-width="8" d="M1214 693.92v40.55m0 39.37v40.55m0 39.37v40.55m0 39.38v40.55m0 39.37v40.55m0 39.37v40.55m0 39.37V1214m300 0v-100m300 0v100m-100-500V614m-300 0v100m-200-59.45V614"/><path fill="none" stroke-width="6" d="M1117 811h-26m-47 18v38h36m48 0h36v-38m375.41-4.87v179.74h249.18V824.13h-249.18m17 41.87l.02.84.06.85.1.83.14.84.17.82.22.82.25.8.29.79.33.78.36.76.4.75.44.72.46.71.5.68.53.65.56.63.59.61.62.57.64.55.67.51.69.49.72.45.73.41.75.38.77.35.79.31.8.27.81.23.82.2.83.16.83.12.85.08.84.04h.84l.84-.04.85-.08.83-.12.83-.16.82-.2.81-.23.8-.27.79-.31.77-.35.75-.38.73-.41.72-.45.69-.49.67-.51.64-.55.62-.57.59-.61.56-.63.53-.65.5-.68.46-.71.44-.72.4-.75.36-.76.33-.78.29-.79.25-.8.22-.82.17-.82.14-.84.1-.83.06-.85.02-.84-.02-.84-.06-.85-.1-.83-.14-.84-.17-.82-.22-.82-.25-.8-.29-.79-.33-.78-.36-.76-.4-.75-.44-.72-.46-.71-.5-.68-.53-.65-.56-.63-.59-.61-.62-.57-.64-.55-.67-.51-.69-.49-.72-.45-.73-.41-.75-.38-.77-.35-.79-.31-.8-.27-.81-.23-.82-.2-.83-.16-.83-.12-.85-.08-.84-.04h-.84l-.84.04-.85.08-.83.12-.83.16-.82.2-.81.23-.8.27-.79.31-.77.35-.75.38-.73.41-.72.45-.69.49-.67.51-.64.55-.62.57-.59.61-.56.63-.53.65-.5.68-.46.71-.44.72-.4.75-.36.76-.33.78-.29.79-.25.8-.22.82-.17.82-.14.84-.1.83-.06.85-.02.84"/><path fill="none" stroke-width="4" d="M557.85 954.88v-.01"/><path fill="none" stroke-width="5" d="M514.79 1067.54V760.46m181.1 0h82.68m98.42 0v70.86m0 165.36v70.86m-98.42 0h-106.3"/><use x="578.09" y="649.24" xlink:href="#H1_16Xkjs-_pad-16"/><use x="578.09" y="678.76" xlink:href="#H1_16Xkjs-_pad-16"/><use x="578.09" y="664" xlink:href="#H1_16Xkjs-_pad-17"/></g><g id="pcb-stackup_top_sm"><use x="1244" y="829.55" xlink:href="#H1YJ6mJooW_pad-10"/><use x="1309" y="848.45" xlink:href="#H1YJ6mJooW_pad-10"/><use x="1244" y="898.45" xlink:href="#H1YJ6mJooW_pad-10"/><use x="1309" y="779.55" xlink:href="#H1YJ6mJooW_pad-10"/><use x="1064" y="959.55" xlink:href="#H1YJ6mJooW_pad-10"/><use x="1064" y="1028.45" xlink:href="#H1YJ6mJooW_pad-10"/><use x="1854" y="948.45" xlink:href="#H1YJ6mJooW_pad-10"/><use x="1854" y="879.55" xlink:href="#H1YJ6mJooW_pad-10"/><use x="1477.46" y="814" xlink:href="#H1YJ6mJooW_pad-11"/><use x="1410.54" y="814" xlink:href="#H1YJ6mJooW_pad-11"/><use x="1427.46" y="934" xlink:href="#H1YJ6mJooW_pad-11"/><use x="1360.54" y="934" xlink:href="#H1YJ6mJooW_pad-11"/><use x="1360.54" y="1034" xlink:href="#H1YJ6mJooW_pad-11"/><use x="1427.46" y="1034" xlink:href="#H1YJ6mJooW_pad-11"/><use x="857.46" y="664" xlink:href="#H1YJ6mJooW_pad-11"/><use x="790.54" y="664" xlink:href="#H1YJ6mJooW_pad-11"/><use x="1548.84" y="799.13" xlink:href="#H1YJ6mJooW_pad-12"/><use x="1574.43" y="799.13" xlink:href="#H1YJ6mJooW_pad-12"/><use x="1600.02" y="799.13" xlink:href="#H1YJ6mJooW_pad-12"/><use x="1625.61" y="799.13" xlink:href="#H1YJ6mJooW_pad-12"/><use x="1651.2" y="799.13" xlink:href="#H1YJ6mJooW_pad-12"/><use x="1676.8" y="799.13" xlink:href="#H1YJ6mJooW_pad-12"/><use x="1702.39" y="799.13" xlink:href="#H1YJ6mJooW_pad-12"/><use x="1727.98" y="799.13" xlink:href="#H1YJ6mJooW_pad-12"/><use x="1753.57" y="799.13" xlink:href="#H1YJ6mJooW_pad-12"/><use x="1779.16" y="799.13" xlink:href="#H1YJ6mJooW_pad-12"/><use x="1779.16" y="1028.87" xlink:href="#H1YJ6mJooW_pad-12"/><use x="1753.57" y="1028.87" xlink:href="#H1YJ6mJooW_pad-12"/><use x="1727.98" y="1028.87" xlink:href="#H1YJ6mJooW_pad-12"/><use x="1702.39" y="1028.87" xlink:href="#H1YJ6mJooW_pad-12"/><use x="1676.8" y="1028.87" xlink:href="#H1YJ6mJooW_pad-12"/><use x="1651.2" y="1028.87" xlink:href="#H1YJ6mJooW_pad-12"/><use x="1625.61" y="1028.87" xlink:href="#H1YJ6mJooW_pad-12"/><use x="1600.02" y="1028.87" xlink:href="#H1YJ6mJooW_pad-12"/><use x="1574.43" y="1028.87" xlink:href="#H1YJ6mJooW_pad-12"/><use x="1548.84" y="1028.87" xlink:href="#H1YJ6mJooW_pad-12"/><use x="693.92" y="1057.7" xlink:href="#H1YJ6mJooW_pad-13"/><use x="693.92" y="770.3" xlink:href="#H1YJ6mJooW_pad-13"/><path fill="none" stroke-width="47.56" d="M803.94 882.5h41.56m51.18-31.49h41.56m0 62.99h-41.56m-51.18 31.5h-41.56m92.74 31.49h41.56"/><use x="964" y="1164" xlink:href="#H1YJ6mJooW_pad-15"/><use x="1064" y="1164" xlink:href="#H1YJ6mJooW_pad-15"/><use x="1164" y="1164" xlink:href="#H1YJ6mJooW_pad-15"/><use x="1264" y="1164" xlink:href="#H1YJ6mJooW_pad-15"/><use x="1364" y="1164" xlink:href="#H1YJ6mJooW_pad-15"/><use x="1464" y="1164" xlink:href="#H1YJ6mJooW_pad-15"/><use x="1564" y="1164" xlink:href="#H1YJ6mJooW_pad-15"/><use x="1664" y="1164" xlink:href="#H1YJ6mJooW_pad-15"/><use x="1764" y="1164" xlink:href="#H1YJ6mJooW_pad-15"/><use x="1864" y="1164" xlink:href="#H1YJ6mJooW_pad-15"/><use x="1864" y="664" xlink:href="#H1YJ6mJooW_pad-15"/><use x="1764" y="664" xlink:href="#H1YJ6mJooW_pad-15"/><use x="1664" y="664" xlink:href="#H1YJ6mJooW_pad-15"/><use x="1564" y="664" xlink:href="#H1YJ6mJooW_pad-15"/><use x="1464" y="664" xlink:href="#H1YJ6mJooW_pad-15"/><use x="1364" y="664" xlink:href="#H1YJ6mJooW_pad-15"/><use x="1264" y="664" xlink:href="#H1YJ6mJooW_pad-15"/><use x="1164" y="664" xlink:href="#H1YJ6mJooW_pad-15"/><use x="1064" y="664" xlink:href="#H1YJ6mJooW_pad-15"/><use x="964" y="664" xlink:href="#H1YJ6mJooW_pad-15"/><use x="1067" y="798" xlink:href="#H1YJ6mJooW_pad-16"/><use x="1141" y="798" xlink:href="#H1YJ6mJooW_pad-16"/><use x="1104" y="880" xlink:href="#H1YJ6mJooW_pad-16"/><use x="554.47" y="664" xlink:href="#H1YJ6mJooW_pad-17"/><use x="613.53" y="664" xlink:href="#H1YJ6mJooW_pad-17"/><use x="1024" y="799" xlink:href="#H1YJ6mJooW_pad-18"/><use x="1029" y="914" xlink:href="#H1YJ6mJooW_pad-18"/><use x="1009" y="944" xlink:href="#H1YJ6mJooW_pad-18"/><use x="1014" y="1029" xlink:href="#H1YJ6mJooW_pad-18"/><use x="1234" y="944" xlink:href="#H1YJ6mJooW_pad-18"/><use x="1304" y="974" xlink:href="#H1YJ6mJooW_pad-18"/><use x="1359" y="849" xlink:href="#H1YJ6mJooW_pad-18"/><use x="1359" y="784" xlink:href="#H1YJ6mJooW_pad-18"/><use x="1244" y="779" xlink:href="#H1YJ6mJooW_pad-18"/><use x="1624" y="749" xlink:href="#H1YJ6mJooW_pad-18"/><use x="1779.16" y="758.84" xlink:href="#H1YJ6mJooW_pad-18"/><use x="1854" y="829" xlink:href="#H1YJ6mJooW_pad-18"/><use x="1684" y="979" xlink:href="#H1YJ6mJooW_pad-18"/></g><g id="pcb-stackup_top_drl1"><use x="1024" y="799" xlink:href="#ryHJp7yijb_pad-1"/><use x="1029" y="914" xlink:href="#ryHJp7yijb_pad-1"/><use x="1009" y="944" xlink:href="#ryHJp7yijb_pad-1"/><use x="1014" y="1029" xlink:href="#ryHJp7yijb_pad-1"/><use x="1234" y="944" xlink:href="#ryHJp7yijb_pad-1"/><use x="1304" y="974" xlink:href="#ryHJp7yijb_pad-1"/><use x="1359" y="849" xlink:href="#ryHJp7yijb_pad-1"/><use x="1359" y="784" xlink:href="#ryHJp7yijb_pad-1"/><use x="1244" y="779" xlink:href="#ryHJp7yijb_pad-1"/><use x="1624" y="749" xlink:href="#ryHJp7yijb_pad-1"/><use x="1779.2" y="758.8" xlink:href="#ryHJp7yijb_pad-1"/><use x="1854" y="829" xlink:href="#ryHJp7yijb_pad-1"/><use x="1684" y="979" xlink:href="#ryHJp7yijb_pad-1"/><use x="896.7" y="977" xlink:href="#ryHJp7yijb_pad-2"/><use x="845.5" y="945.5" xlink:href="#ryHJp7yijb_pad-2"/><use x="896.7" y="914" xlink:href="#ryHJp7yijb_pad-2"/><use x="845.5" y="882.5" xlink:href="#ryHJp7yijb_pad-2"/><use x="896.7" y="851" xlink:href="#ryHJp7yijb_pad-2"/><use x="964" y="664" xlink:href="#ryHJp7yijb_pad-3"/><use x="1064" y="664" xlink:href="#ryHJp7yijb_pad-3"/><use x="1164" y="664" xlink:href="#ryHJp7yijb_pad-3"/><use x="1264" y="664" xlink:href="#ryHJp7yijb_pad-3"/><use x="1364" y="664" xlink:href="#ryHJp7yijb_pad-3"/><use x="1464" y="664" xlink:href="#ryHJp7yijb_pad-3"/><use x="1564" y="664" xlink:href="#ryHJp7yijb_pad-3"/><use x="1664" y="664" xlink:href="#ryHJp7yijb_pad-3"/><use x="1764" y="664" xlink:href="#ryHJp7yijb_pad-3"/><use x="1864" y="664" xlink:href="#ryHJp7yijb_pad-3"/><use x="1864" y="1164" xlink:href="#ryHJp7yijb_pad-3"/><use x="1764" y="1164" xlink:href="#ryHJp7yijb_pad-3"/><use x="1664" y="1164" xlink:href="#ryHJp7yijb_pad-3"/><use x="1564" y="1164" xlink:href="#ryHJp7yijb_pad-3"/><use x="1464" y="1164" xlink:href="#ryHJp7yijb_pad-3"/><use x="1364" y="1164" xlink:href="#ryHJp7yijb_pad-3"/><use x="1264" y="1164" xlink:href="#ryHJp7yijb_pad-3"/><use x="1164" y="1164" xlink:href="#ryHJp7yijb_pad-3"/><use x="1064" y="1164" xlink:href="#ryHJp7yijb_pad-3"/><use x="964" y="1164" xlink:href="#ryHJp7yijb_pad-3"/><use x="693.9" y="1057.7" xlink:href="#ryHJp7yijb_pad-4"/><use x="693.9" y="770.3" xlink:href="#ryHJp7yijb_pad-4"/></g><clipPath id="pcb-stackup_top_out"><path fill="none" d="M514 614v600h1400V614H514"/></clipPath><mask id="pcb-stackup_top_mech-mask"><g stroke="#000"><path fill="#fff" d="M514 614h1400v600H514z"/><use xlink:href="#pcb-stackup_top_drl1"/></g></mask><mask id="pcb-stackup_top_cf-mask"><g fill="#fff" stroke="#fff"><use xlink:href="#pcb-stackup_top_sm"/></g></mask><mask id="pcb-stackup_top_sm-mask"><g stroke="#000"><path fill="#fff" d="M514 614h1400v600H514z"/><use xlink:href="#pcb-stackup_top_sm"/></g></mask></defs><g><g mask="url(#pcb-stackup_top_mech-mask)" clip-path="url(#pcb-stackup_top_out)" transform="matrix(1 0 0 -1 0 1828)"><path fill="currentColor" d="M514 614h1400v600H514z" class="pcb-stackup_fr4"/><use fill="currentColor" stroke="currentColor" xlink:href="#pcb-stackup_top_cu" class="pcb-stackup_cu"/><use fill="currentColor" stroke="currentColor" xlink:href="#pcb-stackup_top_cu" class="pcb-stackup_cf" mask="url(#pcb-stackup_top_cf-mask)"/><g mask="url(#pcb-stackup_top_sm-mask)"><path fill="currentColor" d="M514 614h1400v600H514z" class="pcb-stackup_sm"/><use fill="currentColor" stroke="currentColor" xlink:href="#pcb-stackup_top_ss" class="pcb-stackup_ss"/></g><use fill="currentColor" stroke="currentColor" xlink:href="#pcb-stackup_top_sp" class="pcb-stackup_sp"/></g></g></svg>