<svg xmlns="http://www.w3.org/2000/svg" id="pcb-stackup_bottom" fill-rule="evenodd" stroke-width="0" stroke-linecap="round" stroke-linejoin="round" xmlns:xlink="http://www.w3.org/1999/xlink" clip-rule="evenodd" viewBox="73 73 3354 979"><defs><style>.pcb-stackup_fr4 {color: #4D542C;} .pcb-stackup_cu {color: lightgrey;} .pcb-stackup_cf {color: goldenrod;} .pcb-stackup_sm {color: #2E0051; opacity: 0.9;} .pcb-stackup_ss {color: white;} .pcb-stackup_sp {color: #000000; opacity: 0;} .pcb-stackup_out {color: black;}</style><circle id="S1zK3QJoi-_pad-11" r="35"/><path id="S1zK3QJoi-_pad-12" d="M35 14.497L14.497 35h-28.994L-35 14.497v-28.994L-14.497-35h28.994L35-14.497z"/><circle id="S1zK3QJoi-_pad-13" r="55"/><circle id="S1zK3QJoi-_pad-14" r="38"/><circle id="S1zK3QJoi-_pad-15" r="33"/><path id="S1zK3QJoi-_pad-16" d="M33 13.669L13.669 33h-27.338L-33 13.669v-27.338L-13.669-33h27.338L33-13.669z"/><circle id="S1zK3QJoi-_pad-17" r="24"/><circle id="S1zK3QJoi-_pad-18" r="37"/><circle id="S1zK3QJoi-_pad-19" r="36"/><circle id="S1zK3QJoi-_pad-11" r="35"/><path id="S1zK3QJoi-_pad-12" d="M35 14.497L14.497 35h-28.994L-35 14.497v-28.994L-14.497-35h28.994L35-14.497z"/><circle id="S1zK3QJoi-_pad-13" r="55"/><circle id="S1zK3QJoi-_pad-14" r="38"/><circle id="S1zK3QJoi-_pad-15" r="33"/><path id="S1zK3QJoi-_pad-16" d="M33 13.669L13.669 33h-27.338L-33 13.669v-27.338L-13.669-33h27.338L33-13.669z"/><circle id="S1zK3QJoi-_pad-17" r="24"/><circle id="S1zK3QJoi-_pad-18" r="37"/><circle id="S1zK3QJoi-_pad-19" r="36"/><circle id="ByVY3Xysi-_pad-11" r="38"/><path id="ByVY3Xysi-_pad-12" d="M38 15.74L15.74 38h-31.48L-38 15.74v-31.48L-15.74-38h31.48L38-15.74z"/><circle id="ByVY3Xysi-_pad-13" r="58"/><circle id="ByVY3Xysi-_pad-14" r="41"/><circle id="ByVY3Xysi-_pad-15" r="36"/><path id="ByVY3Xysi-_pad-16" d="M36 14.912L14.912 36h-29.824L-36 14.912v-29.824L-14.912-36h29.824L36-14.912z"/><circle id="ByVY3Xysi-_pad-17" r="27"/><circle id="ByVY3Xysi-_pad-18" r="40"/><circle id="ByVY3Xysi-_pad-19" r="39"/><circle id="S1zK3QJoi-_pad-11" r="35"/><path id="S1zK3QJoi-_pad-12" d="M35 14.497L14.497 35h-28.994L-35 14.497v-28.994L-14.497-35h28.994L35-14.497z"/><circle id="S1zK3QJoi-_pad-13" r="55"/><circle id="S1zK3QJoi-_pad-14" r="38"/><circle id="S1zK3QJoi-_pad-15" r="33"/><path id="S1zK3QJoi-_pad-16" d="M33 13.669L13.669 33h-27.338L-33 13.669v-27.338L-13.669-33h27.338L33-13.669z"/><circle id="S1zK3QJoi-_pad-17" r="24"/><circle id="S1zK3QJoi-_pad-18" r="37"/><circle id="S1zK3QJoi-_pad-19" r="36"/><circle id="S1zK3QJoi-_pad-11" r="35"/><path id="S1zK3QJoi-_pad-12" d="M35 14.497L14.497 35h-28.994L-35 14.497v-28.994L-14.497-35h28.994L35-14.497z"/><circle id="S1zK3QJoi-_pad-13" r="55"/><circle id="S1zK3QJoi-_pad-14" r="38"/><circle id="S1zK3QJoi-_pad-15" r="33"/><path id="S1zK3QJoi-_pad-16" d="M33 13.669L13.669 33h-27.338L-33 13.669v-27.338L-13.669-33h27.338L33-13.669z"/><circle id="S1zK3QJoi-_pad-17" r="24"/><circle id="S1zK3QJoi-_pad-18" r="37"/><circle id="S1zK3QJoi-_pad-19" r="36"/><circle id="ByVY3Xysi-_pad-11" r="38"/><path id="ByVY3Xysi-_pad-12" d="M38 15.74L15.74 38h-31.48L-38 15.74v-31.48L-15.74-38h31.48L38-15.74z"/><circle id="ByVY3Xysi-_pad-13" r="58"/><circle id="ByVY3Xysi-_pad-14" r="41"/><circle id="ByVY3Xysi-_pad-15" r="36"/><path id="ByVY3Xysi-_pad-16" d="M36 14.912L14.912 36h-29.824L-36 14.912v-29.824L-14.912-36h29.824L36-14.912z"/><circle id="ByVY3Xysi-_pad-17" r="27"/><circle id="ByVY3Xysi-_pad-18" r="40"/><circle id="ByVY3Xysi-_pad-19" r="39"/><circle id="BkgF371iib_pad-1" r="16"/><circle id="BkgF371iib_pad-2" r="19"/><circle id="BkgF371iib_pad-3" r="20"/><circle id="BkgF371iib_pad-4" r="22"/><circle id="BkgF371iib_pad-5" r="26"/><g id="pcb-stackup_bottom_cu"><path fill="none" stroke-width="60" d="M2700 195v60m100 0v-60m100 0v60"/><use x="2750" y="525" xlink:href="#S1zK3QJoi-_pad-11"/><use x="2750" y="775" xlink:href="#S1zK3QJoi-_pad-11"/><use x="2650" y="775" xlink:href="#S1zK3QJoi-_pad-12"/><use x="2925" y="875" xlink:href="#S1zK3QJoi-_pad-12"/><use x="2925" y="975" xlink:href="#S1zK3QJoi-_pad-12"/><use x="2850" y="525" xlink:href="#S1zK3QJoi-_pad-12"/><use x="3039.96" y="603.74" xlink:href="#S1zK3QJoi-_pad-13"/><use x="3225" y="485.63" xlink:href="#S1zK3QJoi-_pad-13"/><use x="3225" y="721.85" xlink:href="#S1zK3QJoi-_pad-13"/><use x="2525" y="700" xlink:href="#S1zK3QJoi-_pad-14"/><use x="2525" y="300" xlink:href="#S1zK3QJoi-_pad-14"/><use x="1975" y="525" xlink:href="#S1zK3QJoi-_pad-15"/><use x="1875" y="525" xlink:href="#S1zK3QJoi-_pad-15"/><use x="1775" y="525" xlink:href="#S1zK3QJoi-_pad-15"/><use x="1675" y="525" xlink:href="#S1zK3QJoi-_pad-15"/><use x="1575" y="525" xlink:href="#S1zK3QJoi-_pad-15"/><use x="1475" y="525" xlink:href="#S1zK3QJoi-_pad-15"/><use x="1375" y="525" xlink:href="#S1zK3QJoi-_pad-15"/><use x="1275" y="525" xlink:href="#S1zK3QJoi-_pad-15"/><use x="1175" y="525" xlink:href="#S1zK3QJoi-_pad-15"/><use x="1075" y="525" xlink:href="#S1zK3QJoi-_pad-15"/><use x="975" y="525" xlink:href="#S1zK3QJoi-_pad-15"/><use x="875" y="525" xlink:href="#S1zK3QJoi-_pad-15"/><use x="775" y="525" xlink:href="#S1zK3QJoi-_pad-15"/><use x="675" y="525" xlink:href="#S1zK3QJoi-_pad-15"/><use x="675" y="825" xlink:href="#S1zK3QJoi-_pad-15"/><use x="775" y="825" xlink:href="#S1zK3QJoi-_pad-15"/><use x="875" y="825" xlink:href="#S1zK3QJoi-_pad-15"/><use x="975" y="825" xlink:href="#S1zK3QJoi-_pad-15"/><use x="1075" y="825" xlink:href="#S1zK3QJoi-_pad-15"/><use x="1175" y="825" xlink:href="#S1zK3QJoi-_pad-15"/><use x="1275" y="825" xlink:href="#S1zK3QJoi-_pad-15"/><use x="1375" y="825" xlink:href="#S1zK3QJoi-_pad-15"/><use x="1475" y="825" xlink:href="#S1zK3QJoi-_pad-15"/><use x="1575" y="825" xlink:href="#S1zK3QJoi-_pad-15"/><use x="1675" y="825" xlink:href="#S1zK3QJoi-_pad-15"/><use x="1775" y="825" xlink:href="#S1zK3QJoi-_pad-15"/><use x="1875" y="825" xlink:href="#S1zK3QJoi-_pad-15"/><use x="1975" y="825" xlink:href="#S1zK3QJoi-_pad-15"/><use x="2175" y="725" xlink:href="#S1zK3QJoi-_pad-16"/><use x="2350" y="725" xlink:href="#S1zK3QJoi-_pad-16"/><use x="2375" y="900" xlink:href="#S1zK3QJoi-_pad-16"/><use x="2475" y="900" xlink:href="#S1zK3QJoi-_pad-16"/><use x="2650" y="975" xlink:href="#S1zK3QJoi-_pad-16"/><use x="2750" y="975" xlink:href="#S1zK3QJoi-_pad-16"/><use x="2350" y="425" xlink:href="#S1zK3QJoi-_pad-16"/><use x="2175" y="425" xlink:href="#S1zK3QJoi-_pad-16"/><use x="1900" y="400" xlink:href="#S1zK3QJoi-_pad-16"/><use x="1900" y="300" xlink:href="#S1zK3QJoi-_pad-16"/><use x="1700" y="175" xlink:href="#S1zK3QJoi-_pad-16"/><use x="1600" y="175" xlink:href="#S1zK3QJoi-_pad-16"/><use x="2275" y="225" xlink:href="#S1zK3QJoi-_pad-16"/><use x="2375" y="225" xlink:href="#S1zK3QJoi-_pad-16"/><use x="500" y="550" xlink:href="#S1zK3QJoi-_pad-16"/><use x="500" y="850" xlink:href="#S1zK3QJoi-_pad-16"/><use x="375" y="900" xlink:href="#S1zK3QJoi-_pad-16"/><use x="275" y="900" xlink:href="#S1zK3QJoi-_pad-16"/><use x="1430" y="350" xlink:href="#S1zK3QJoi-_pad-17"/><use x="1620" y="350" xlink:href="#S1zK3QJoi-_pad-17"/><use x="1475" y="175" xlink:href="#S1zK3QJoi-_pad-18"/><use x="1375" y="175" xlink:href="#S1zK3QJoi-_pad-18"/><use x="1275" y="175" xlink:href="#S1zK3QJoi-_pad-18"/><use x="1175" y="175" xlink:href="#S1zK3QJoi-_pad-18"/><use x="1075" y="175" xlink:href="#S1zK3QJoi-_pad-18"/><use x="975" y="175" xlink:href="#S1zK3QJoi-_pad-18"/><use x="875" y="175" xlink:href="#S1zK3QJoi-_pad-18"/><use x="775" y="175" xlink:href="#S1zK3QJoi-_pad-18"/><use x="675" y="175" xlink:href="#S1zK3QJoi-_pad-18"/><use x="553" y="236" xlink:href="#S1zK3QJoi-_pad-18"/><use x="297" y="236" xlink:href="#S1zK3QJoi-_pad-18"/><use x="297" y="414" xlink:href="#S1zK3QJoi-_pad-18"/><use x="553" y="414" xlink:href="#S1zK3QJoi-_pad-18"/><use x="675" y="950" xlink:href="#S1zK3QJoi-_pad-18"/><use x="775" y="950" xlink:href="#S1zK3QJoi-_pad-18"/><use x="875" y="950" xlink:href="#S1zK3QJoi-_pad-18"/><use x="975" y="950" xlink:href="#S1zK3QJoi-_pad-18"/><use x="1075" y="950" xlink:href="#S1zK3QJoi-_pad-18"/><use x="1175" y="950" xlink:href="#S1zK3QJoi-_pad-18"/><use x="1275" y="950" xlink:href="#S1zK3QJoi-_pad-18"/><use x="1375" y="950" xlink:href="#S1zK3QJoi-_pad-18"/><use x="1475" y="950" xlink:href="#S1zK3QJoi-_pad-18"/><use x="1575" y="950" xlink:href="#S1zK3QJoi-_pad-18"/><use x="1675" y="950" xlink:href="#S1zK3QJoi-_pad-18"/><use x="1775" y="950" xlink:href="#S1zK3QJoi-_pad-18"/><use x="1875" y="950" xlink:href="#S1zK3QJoi-_pad-18"/><use x="1975" y="950" xlink:href="#S1zK3QJoi-_pad-18"/><use x="2075" y="950" xlink:href="#S1zK3QJoi-_pad-18"/><use x="2175" y="950" xlink:href="#S1zK3QJoi-_pad-18"/><use x="150" y="675" xlink:href="#S1zK3QJoi-_pad-19"/><use x="150" y="575" xlink:href="#S1zK3QJoi-_pad-19"/><use x="150" y="475" xlink:href="#S1zK3QJoi-_pad-19"/><use x="150" y="375" xlink:href="#S1zK3QJoi-_pad-19"/><use x="150" y="275" xlink:href="#S1zK3QJoi-_pad-19"/><use x="150" y="175" xlink:href="#S1zK3QJoi-_pad-19"/><use x="1800" y="175" xlink:href="#S1zK3QJoi-_pad-19"/><use x="1900" y="175" xlink:href="#S1zK3QJoi-_pad-19"/><use x="2000" y="175" xlink:href="#S1zK3QJoi-_pad-19"/><use x="2100" y="175" xlink:href="#S1zK3QJoi-_pad-19"/><path fill="none" stroke-width="16" d="M81 81v963h3338V81H81m0 .97h3338m0 15.99H81m0 15.98h3338m0 15.99H2121.84m6.48 2.68l14.07 14.07 7.61 18.37v19.9l-7.61 18.37-14.07 14.07-18.37 7.61h-19.9l-18.37-7.61-14.07-14.07-7.61-18.37v-19.9l7.61-18.37 14.07-14.07 18.37-7.61h19.9l18.37 7.61m13.3 13.3H3419m0 15.99h-489.88m-4.2-4.2l12.38 12.38 6.7 16.17v77.5l-6.7 16.17-12.38 12.38-16.17 6.7h-17.5l-16.17-6.7-12.38-12.38-6.7-16.17v-77.5l6.7-16.17 12.38-12.38 16.17-6.7h17.5l16.17 6.7m15.61 20.18H3419m0 15.99h-475m0 15.98h475m0 15.99h-475m0 15.98h475m0 15.99h-475m-4.16 15.98H3419m0 15.99h-491.55m-54.9 0h-39.44m-1.84 1.83l-6.11 4.44-6.73 3.43-7.19 2.34-7.46 1.18H2802v-76h-4v76h-1.78l-7.46-1.18-7.19-2.34-6.73-3.43-6.11-4.44-5.34-5.34-4.44-6.11-3.43-6.73-2.34-7.19-1.18-7.46V227h46v-4h-46v-31.78l1.18-7.46 2.34-7.19 3.43-6.73 4.44-6.11 5.34-5.34 6.11-4.44 6.73-3.43 7.19-2.34 7.46-1.18h1.78v76h4v4h46v31.78l-1.18 7.46-2.34 7.19-3.43 6.73-4.44 6.11-5.34 5.34m13.03-17.82h15.86m-4.16-15.98h-8m0-15.99h8m0-15.98h-54m0-2.84h46v-31.78l-1.18-7.46-2.34-7.19-3.43-6.73-4.44-6.11-5.34-5.34-6.11-4.44-6.73-3.43-7.19-2.34-7.46-1.18H2802v76m-4 2.84h-54m0-15.99h8m46 0h4m0-15.98h-4m0-15.99h4m-46.91 0h-14.56m-3.23-7.8l6.7 16.17v77.5l-6.7 16.17-12.38 12.38-2.92 1.21v172.38l12.5 12.49 5.75-2.38h19.5l18.01 7.46 13.78 13.78 5.46 13.19v-7.38l31.05-31.05h43.9l31.05 31.05v43.9L2871.95 578H2850v-53h53-53v-53 106h-15.89l37.89 37.89v243.22L2859.11 872l-50 50h-75l-2 2H2771.12l29.88 29.88v42.24l-29.88 29.88H2750v-51h51-102v21.12l29.88 29.88H2750V924v51h-51v-17.89l-2 2v35.36l-27.53 27.53h-38.94L2603 994.47v-38.94l27.53-27.53h35.36l37.11-37.11 12.89-12.89h75l37.11-37.11V634.11l-62.5-62.49-5.75 2.38h-19.5l-18.01-7.46-13.78-13.78-7.46-18.01v-19.5l2.38-5.75-12.49-12.5-12.89-12.89v-190.6l-2.92-1.21-12.38-12.38-6.7-16.17v-77.5l6.7-16.17 12.38-12.38 16.17-6.7h17.5l16.17 6.7 12.38 12.38m-8.18-8.18h36.1m32.78 0h4m32.78 0h36.1m-11.41 15.98h-14.56m3.09 15.99h8m0 15.98h-8m-46 31.97h-4m0 15.99h4m-50 0h-8m0-15.99h8M2700 225v250l50 50 100 100v225l-50 50h-75l-75 75m47 2.14h2m0 15.98h-2m-14.64 15.99h29.62m15.99 15.98H81m0-15.98h2536.64M2603 993.12h-399m-.11.12l-18.75 7.76h-20.28l-18.75-7.76-14.35-14.35-4.66-11.26-1.13 3.48-3.93 7.72-5.09 7-6.12 6.12-7 5.09-7.72 3.93-8.23 2.68-8.55 1.35H2077v-53h-4v53h-2.33l-8.55-1.35-8.23-2.68-7.72-3.93-7-5.09-6.12-6.12-5.09-7-3.93-7.72-1.13-3.48-4.66 11.26-14.35 14.35-18.75 7.76h-20.28l-18.75-7.76-14.35-14.35-6.76-16.33-6.76 16.33-14.35 14.35-18.75 7.76h-20.28l-18.75-7.76-14.35-14.35-6.76-16.33-6.76 16.33-14.35 14.35-18.75 7.76h-20.28l-18.75-7.76-14.35-14.35-6.76-16.33-6.76 16.33-14.35 14.35-18.75 7.76h-20.28l-18.75-7.76-14.35-14.35-6.76-16.33-6.76 16.33-14.35 14.35-18.75 7.76h-20.28l-18.75-7.76-14.35-14.35-6.76-16.33-6.76 16.33-14.35 14.35-18.75 7.76h-20.28l-18.75-7.76-14.35-14.35-6.76-16.33-6.76 16.33-14.35 14.35-18.75 7.76h-20.28l-18.75-7.76-14.35-14.35-4.66-11.26-1.13 3.48-3.93 7.72-5.09 7-6.12 6.12-7 5.09-7.72 3.93-8.23 2.68-8.55 1.35H1277v-53h-4v53h-2.33l-8.55-1.35-8.23-2.68-7.72-3.93-7-5.09-6.12-6.12-5.09-7-3.93-7.72-1.13-3.48-4.66 11.26-14.35 14.35-18.75 7.76h-20.28l-18.75-7.76-14.35-14.35-6.76-16.33-6.76 16.33-14.35 14.35-18.75 7.76h-20.28l-18.75-7.76-14.35-14.35-6.76-16.33-6.76 16.33-14.35 14.35-18.75 7.76h-20.28l-18.75-7.76-14.35-14.35-6.76-16.33-6.76 16.33-14.35 14.35-18.75 7.76h-20.28l-18.75-7.76-14.35-14.35-6.76-16.33-6.76 16.33-14.35 14.35-18.75 7.76h-20.28l-18.75-7.76-14.35-14.35-6.76-16.33-6.76 16.33-14.35 14.35-18.75 7.76h-20.28l-18.75-7.76-14.35-14.35-7.76-18.75v-20.28l7.76-18.75 14.35-14.35 18.75-7.76h20.28l18.75 7.76 14.35 14.35 6.76 16.33 6.76-16.33 14.35-14.35 18.75-7.76h20.28l18.75 7.76 14.35 14.35 6.76 16.33 6.76-16.33 14.35-14.35 18.75-7.76h20.28l18.75 7.76 14.35 14.35 6.76 16.33 6.76-16.33 14.35-14.35 18.75-7.76h20.28l18.75 7.76 14.35 14.35 6.76 16.33 6.76-16.33 14.35-14.35 18.75-7.76h20.28l18.75 7.76 14.35 14.35 6.76 16.33 6.76-16.33 14.35-14.35 18.75-7.76h20.28l18.75 7.76 14.35 14.35 4.66 11.26 1.13-3.48 3.93-7.72 5.09-7 6.12-6.12 7-5.09 7.72-3.93 8.23-2.68 8.55-1.35h2.33v53h4v-53h2.33l8.55 1.35 8.23 2.68 7.72 3.93 7 5.09 6.12 6.12 5.09 7 3.93 7.72 1.13 3.48 4.66-11.26 14.35-14.35 18.75-7.76h20.28l18.75 7.76 14.35 14.35 6.76 16.33 6.76-16.33 14.35-14.35 18.75-7.76h20.28l18.75 7.76 14.35 14.35 6.76 16.33 6.76-16.33 14.35-14.35 18.75-7.76h20.28l18.75 7.76 14.35 14.35 6.76 16.33 6.76-16.33 14.35-14.35 18.75-7.76h20.28l18.75 7.76 14.35 14.35 6.76 16.33 6.76-16.33 14.35-14.35 18.75-7.76h20.28l18.75 7.76 14.35 14.35 6.76 16.33 6.76-16.33 14.35-14.35 18.75-7.76h20.28l18.75 7.76 14.35 14.35 6.76 16.33 6.76-16.33 14.35-14.35 18.75-7.76h20.28l18.75 7.76 14.35 14.35 4.66 11.26 1.13-3.48 3.93-7.72 5.09-7 6.12-6.12 7-5.09 7.72-3.93 8.23-2.68 8.55-1.35h2.33v53h4v-53h2.33l8.55 1.35 8.23 2.68 7.72 3.93 7 5.09 6.12 6.12 5.09 7 3.93 7.72 1.13 3.48 4.66-11.26 14.35-14.35 18.75-7.76h20.28l18.75 7.76 14.35 14.35 7.76 18.75v20.28l-7.76 18.75-14.35 14.35m15.07-16.1H2603m0-15.99h-377.42m.42-15.98h122.04m5.84 5.83L2324 921.12V900h102v21.12L2396.12 951H2375v-51h51v-21.12L2396.12 849H2375v102h-21.12m48.08-5.83h51.74m1.83 1.83L2428 919.47v-38.94l27.53-27.53h38.94l27.53 27.53v38.94L2494.47 947h-38.94m-17.82-17.82h-19.77m8.06-15.98h2m0-15.99h-2m-51 2.79v-51h-21.12L2324 878.88V900h51m-51 13.2h-113.68m11.26 15.98h110.48m-8.06-31.97h-233.48m-13.52 0h-4m-13.52 0h-768.96m-13.52 0h-4m-13.52 0H422m0 15.99h217.68m-11.26 15.98H412.29m9.71-9.71L394.47 947h-38.94L328 919.47v-38.94L355.53 853h38.94L422 880.53v38.94m-25.7 25.7H624m.42 15.98H81m0-15.98h172.7m1.83 1.83L228 919.47v-38.94L255.53 853h38.94L322 880.53v38.94L294.47 947h-38.94m-17.82-17.82H81m0-15.98h147m0-15.99H81m0-15.98h147m15.29-15.99H81m0-15.98h372m0-15.99H81m0-15.98h385.25M453 830.53L480.53 803h38.94L547 830.53v38.94L519.47 897h-38.94L453 869.47v-38.94m80.75-13.24H628m0-1.64l7.16-17.27 13.22-13.22 17.27-7.16h18.7l17.27 7.16 13.22 13.22 7.16 17.27v18.7l-7.16 17.27-13.22 13.22-17.27 7.16h-18.7l-17.27-7.16-13.22-13.22-7.16-17.27v-18.7m5.94-14.35H81m0-15.98h567.22m53.56 0h46.44m.16-.16l17.27-7.16h18.7l17.27 7.16 13.22 13.22 7.16 17.27v18.7l-7.16 17.27-13.22 13.22-17.27 7.16h-18.7l-17.27-7.16-13.22-13.22-7.16-17.27v-18.7l7.16-17.27 13.22-13.22m-14.44 16.14h-17.88m5.94 15.99h6m0 15.98h-6m-6.17 15.99h18.34m15.16 15.98h-48.66m-51.34 0H547m-11.76 15.99H2324m13.63-15.99h-336.96m.95-.4l-17.27 7.16h-18.7l-17.27-7.16-13.22-13.22-7.16-17.27v-18.7l7.16-17.27 13.22-13.22 17.27-7.16h18.7l17.27 7.16 13.22 13.22 7.16 17.27v18.7l-7.16 17.27-13.22 13.22m-52.29.4h-48.66m.95-.4l-17.27 7.16h-18.7l-17.27-7.16-13.22-13.22-7.16-17.27v-18.7l7.16-17.27 13.22-13.22 17.27-7.16h18.7l17.27 7.16 13.22 13.22 7.16 17.27v18.7l-7.16 17.27-13.22 13.22m-52.29.4h-48.66m.95-.4l-17.27 7.16h-18.7l-17.27-7.16-13.22-13.22-7.16-17.27v-18.7l7.16-17.27 13.22-13.22 17.27-7.16h18.7l17.27 7.16 13.22 13.22 7.16 17.27v18.7l-7.16 17.27-13.22 13.22m-52.29.4h-48.66m.95-.4l-17.27 7.16h-18.7l-17.27-7.16-13.22-13.22-7.16-17.27v-18.7l7.16-17.27 13.22-13.22 17.27-7.16h18.7l17.27 7.16 13.22 13.22 7.16 17.27v18.7l-7.16 17.27-13.22 13.22m14.21-15.58h18.34m-6.17-15.99h-6m0-15.98h6m5.94-15.99h-17.88m-14.28-15.98h46.44m53.56 0h46.44m53.56 0h46.44m53.56 0H2597m0-10.32h53v53h21.95l31.05-31.05v-7.38l5.46 13.19 13.78 13.78 18.01 7.46h19.5l18.01-7.46 13.78-13.78 7.46-18.01v-19.5l-7.46-18.01-13.78-13.78-18.01-7.46h-19.5l-18.01 7.46-13.78 13.78-5.46 13.19v-7.38L2671.95 722H2650v106h-21.95L2597 796.95v-43.9l31.05-31.05H2650v53h-53m0-5.67h-224.86m-2.67 2.67h-38.94L2303 744.47v-38.94l27.53-27.53h38.94l27.53 27.53v38.94L2369.47 772m-41.61-2.67h-130.72m-2.67 2.67h-38.94L2128 744.47v-38.94l27.53-27.53h38.94l27.53 27.53v38.94L2194.47 772m-41.61-2.67h-491.08m-13.56 15.99h-2.42m-46.24-15.99H81m0-15.99h1534.54m15.99-15.98H818.75m-9.64 9.64H290.89L278 734.11l-84.32-84.32 6.32 15.26v19.9l-7.61 18.37-14.07 14.07-18.37 7.61h-19.9l-18.37-7.61-14.07-14.07-7.61-18.37v-19.9l7.61-18.37 14.07-14.07 18.37-7.61-18.37-7.61-14.07-14.07-7.61-18.37v-19.9l7.61-18.37 14.07-14.07 18.37-7.61-18.37-7.61-14.07-14.07-7.61-18.37v-19.9l7.61-18.37 14.07-14.07 18.37-7.61-18.37-7.61-14.07-14.07-7.61-18.37v-19.9l7.61-18.37 14.07-14.07 18.37-7.61-18.37-7.61-14.07-14.07-7.61-18.37v-19.9l7.61-18.37 14.07-14.07 13.58-5.62-5.99-1.95-7.57-3.86-6.88-4.99-6.01-6.01-4.99-6.88-3.86-7.57-2.63-8.08-1.33-8.4v-2.75h52.5v-3H96v-2.75l1.33-8.4 2.63-8.08 3.86-7.57 4.99-6.88 6.01-6.01 6.88-4.99 7.57-3.86 8.08-2.63 8.4-1.33h2.75v52.5h3v3H204v2.75l-1.33 8.4-2.63 8.08-3.86 7.57-4.99 6.88-6.01 6.01-6.88 4.99-7.57 3.86-5.99 1.95 13.58 5.62 14.07 14.07 7.61 18.37v19.9l-7.61 18.37-14.07 14.07-18.37 7.61h-19.9 19.9l18.37 7.61 14.07 14.07 7.61 18.37v19.9l-7.61 18.37-14.07 14.07-18.37 7.61h-19.9 19.9l18.37 7.61 14.07 14.07 7.61 18.37v19.9l-2.62 6.32L359.11 653h356.78L753 615.89v-49.13l-4.62-1.92-13.22-13.22-7.16-17.27v-18.7l7.16-17.27 13.22-13.22 17.27-7.16h18.7l17.27 7.16 13.22 13.22 7.16 17.27v18.7l-7.16 17.27-13.22 13.22-4.62 1.92v67.35L784.11 647l-50 50H340.89L328 684.11 193.68 549.79l6.32 15.26v19.9l-2.62 6.32L309.11 703h481.78L853 640.89v-74.13l-4.62-1.92-13.22-13.22-7.16-17.27v-18.7l7.16-17.27 13.22-13.22 17.27-7.16h18.7l17.27 7.16 13.22 13.22 7.16 17.27v18.7l-7.16 17.27-13.22 13.22-4.62 1.92v92.35L884.11 672l-75 75M800 725l75-75V525m-42.37 20.54h-15.26m4.63-15.99h6M775 525v100l-50 50H350L150 475m50 6.6h453m0 1.64v-80.13L620.11 436h-21.02l-2.85 6.89-14.35 14.35-18.75 7.76h-20.28l-18.75-7.76-14.35-14.35-7.76-18.75v-20.28l7.76-18.75 14.35-14.35 18.75-7.76h20.28l18.75 7.76 14.35 14.35 2.85 6.89h2.8L653 340.89v-119.8l-6.89-2.85-14.35-14.35-7.76-18.75v-20.28l7.76-18.75 14.35-14.35 18.75-7.76h20.28l18.75 7.76 14.35 14.35 4.66 11.26 1.13-3.48 3.93-7.72 5.09-7 6.12-6.12 7-5.09 7.72-3.93 8.23-2.68 8.55-1.35H773v53h4v-53h2.33l8.55 1.35 8.23 2.68 7.72 3.93 7 5.09 6.12 6.12 5.09 7 3.93 7.72 1.13 3.48 4.66-11.26 14.35-14.35 18.75-7.76h20.28l18.75 7.76 14.35 14.35 6.76 16.33 6.76-16.33 14.35-14.35 18.75-7.76h20.28l18.75 7.76 14.35 14.35 6.76 16.33 6.76-16.33 14.35-14.35 18.75-7.76h20.28l18.75 7.76 14.35 14.35 6.76 16.33 6.76-16.33 14.35-14.35 18.75-7.76h20.28l18.75 7.76 14.35 14.35 6.76 16.33 6.76-16.33 14.35-14.35 18.75-7.76h20.28l18.75 7.76 14.35 14.35 6.76 16.33 6.76-16.33 14.35-14.35 18.75-7.76h20.28l18.75 7.76 14.35 14.35 6.76 16.33 6.76-16.33 14.35-14.35 18.75-7.76h20.28l18.75 7.76 14.35 14.35 7.76 18.75v20.28l-7.76 18.75-14.35 14.35-18.75 7.76h-20.28l-18.75-7.76-14.35-14.35-6.76-16.33-6.76 16.33-14.35 14.35-18.75 7.76h-20.28l-18.75-7.76-14.35-14.35-6.76-16.33-6.76 16.33-14.35 14.35-18.75 7.76h-20.28l-18.75-7.76-14.35-14.35-6.76-16.33-6.76 16.33-14.35 14.35-18.75 7.76h-20.28l-18.75-7.76-14.35-14.35-6.76-16.33-6.76 16.33-14.35 14.35-18.75 7.76h-20.28l-18.75-7.76-14.35-14.35-6.76-16.33-6.76 16.33-14.35 14.35-18.75 7.76h-20.28l-13.22-5.48L1134.11 403h100l50 50 12.89 12.89v17.35l4.62 1.92 13.22 13.22 7.16 17.27v18.7l-7.16 17.27-13.22 13.22-17.27 7.16h-18.7l-17.27-7.16-13.22-13.22-7.16-17.27v-18.7l7.16-17.27 13.22-13.22 4-1.66-36.49-36.5h-100L1103 434.11 892.03 223.15l-6.89 2.85h-20.28l-18.75-7.76-14.35-14.35-4.66-11.26-1.13 3.48-3.93 7.72-5.09 7-6.12 6.12-7 5.09-7.72 3.93-8.23 2.68-8.55 1.35H777v-53h-4v53h-2.33l-8.55-1.35-8.23-2.68-7.72-3.93-7-5.09-6.12-6.12-5.09-7-3.93-7.72-1.13-3.48-4.66 11.26-14.35 14.35-6.89 2.85v262.15l4.62 1.92 13.22 13.22 7.16 17.27v18.7l-7.16 17.27-13.22 13.22-17.27 7.16h-18.7l-17.27-7.16-13.22-13.22-7.16-17.27v-18.7l7.16-17.27 13.22-13.22 4.62-1.92m-17.05 14.34H203.7m15.98 15.99h250.28M480.53 503h38.94L547 530.53v38.94L519.47 597h-38.94L453 569.47v-38.94L480.53 503m-26.55 26.55H235.67m15.98 15.99H453m0 15.98H267.64m15.98 15.99h177.42m15.99 15.98H299.61m15.98 15.99H753m0-15.99H522.97m15.99-15.98H753m-7.94-15.99h-40.12m12.43-15.98h15.26M728 529.55h-6M675 525V350l-64 64h-58m-51 3.66H348m0 6.48l-7.76 18.75-14.35 14.35-18.75 7.76h-20.28l-18.75-7.76-14.35-14.35-7.76-18.75v-20.28l7.76-18.75 14.35-14.35 18.75-7.76h20.28l18.75 7.76 14.35 14.35 7.76 18.75v20.28m-3.93 9.5h161.86m10.57 15.99h-183m-73 0h-66.89m6.39 15.98h453m0-15.98h-63.5m32.97-15.99H653m0-15.98h-14.55m58.55 0h389.55m15.98 15.98H697m0 15.99h521.52m15.98 15.98H697m0 15.99h59.96m-21.01 15.98h-21.9m7.09 15.99h7.72m64.18-31.97h63.92m-21.01 15.98h-21.9m7.09 15.99h7.72m64.18-31.97h63.92m-8.58 3.56l17.27-7.16h18.7l17.27 7.16 13.22 13.22 7.16 17.27v18.7l-7.16 17.27-13.22 13.22-17.27 7.16h-18.7l-17.27-7.16-13.22-13.22-7.16-17.27v-18.7l7.16-17.27 13.22-13.22m-12.43 12.42h-21.9m7.09 15.99h7.72m-.86 15.98h-6m-4.63 15.99h15.26m12.43 15.98h-40.12M897 577.51h1269.38m-.49.49L2303 440.89v-35.36l27.53-27.53h38.94l27.53 27.53v38.94L2369.47 472h-35.36l-150 150h-375l-189.03 189.03 1.92 4.62v18.7l-7.16 17.27-13.22 13.22-17.27 7.16h-18.7l-17.27-7.16-13.22-13.22-7.16-17.27v-18.7l7.16-17.27 13.22-13.22 17.27-7.16h18.7l4.62 1.92L1778 590.89l12.89-12.89h375m16.47-16.48h-177.42m-3.32 3.32l-17.27 7.16h-18.7l-17.27-7.16-13.22-13.22-7.16-17.27v-18.7l7.16-17.27 13.22-13.22 17.27-7.16h18.7l17.27 7.16 13.22 13.22 7.16 17.27v18.7l-7.16 17.27-13.22 13.22m-56.56-3.32h-40.12m-3.32 3.32l-17.27 7.16h-18.7l-17.27-7.16-13.22-13.22-7.16-17.27v-18.7l7.16-17.27 13.22-13.22 17.27-7.16h18.7l17.27 7.16 13.22 13.22 7.16 17.27v18.7l-7.16 17.27-13.22 13.22m-56.56-3.32h-40.12m-3.32 3.32l-17.27 7.16h-18.7l-17.27-7.16-13.22-13.22-7.16-17.27v-18.7l7.16-17.27 13.22-13.22 4.62-1.92v-42.35l50-50v-150l22.21-22.21-15.26 6.32H1797v159.11L1784.11 397l-86.49 86.5 4 1.66 13.22 13.22 7.16 17.27v18.7l-7.16 17.27-13.22 13.22-17.27 7.16h-18.7l-17.27-7.16-13.22-13.22-7.16-17.27v-18.7l7.16-17.27 13.22-13.22 4.62-1.92v-17.35l100-100v-173.7l-2-4.83v8.76L1721.12 226H1700v-51 25m0-25v51h-21.12L1649 196.12V175h51v-51h21.12l29.88 29.88v8.76l6.61-15.96 14.07-14.07 18.37-7.61h19.9l18.37 7.61 14.07 14.07 7.61 18.37 7.61-18.37 14.07-14.07 18.37-7.61h19.9l18.37 7.61 14.07 14.07 7.61 18.37 7.61-18.37 14.07-14.07 18.37-7.61h19.9l18.37 7.61 14.07 14.07 7.61 18.37v19.9l-7.61 18.37-14.07 14.07-18.37 7.61h-19.9l-18.37-7.61-14.07-14.07-7.61-18.37v-19.9 19.9l-7.61 18.37-14.07 14.07-18.37 7.61h-19.9l-6.32-2.62-36.73 36.73v150L1834.11 422 1797 459.11v24.13l4.62 1.92 13.22 13.22 7.16 17.27v18.7l-7.16 17.27-13.22 13.22m-56.56-3.32h-40.12m12.43-15.98h15.26m-4.63-15.99h-6m-47-4.55v-50l100-100V200l25-25m-47 18.87h-2M1700 175v-51h-21.12L1649 153.88V175h51m43.04-29.09h15.34m-7.07 15.99h-.31m-23.95-31.97h51.11m43.68 0h56.32m43.68 0h56.32m43.68 0h56.32m-19.78 15.98h-16.76m7.07 15.99h2.62m-5.01 31.97h7.4m10.44 15.98h-28.28m-71.72 0h-28.28m-55.58 15.99H2228m0-15.99h-92.14m10.44-15.98h93.37M2228 205.53l27.53-27.53h38.94l27.53 27.53v38.94L2294.47 272h-38.94L2228 244.47v-38.94m82.33-11.66h23.68M2324 203.88l29.88-29.88h42.24l29.88 29.88v42.24L2396.12 276H2375v-51h51-51v-51 51h-51v21.12l29.88 29.88H2375v-51h-51v-21.12m0 5.97h-2m0 15.99h2m102-15.99h230m0 15.99h-230m0 15.98h230m0 15.99h-99.65m-1.89-1.89l14.62 14.62 7.92 19.12v20.68l-7.92 19.12-14.62 14.62-19.12 7.92h-20.68l-19.12-7.92-14.62-14.62-7.92-19.12v-20.68l7.92-19.12 14.62-14.62 19.12-7.92h20.68l19.12 7.92m15.97 17.87h89.73m12.39 15.99H2577m0 15.98h101m44 0h697m0 15.99h-697m0 15.98h697m0 15.99h-697m0 15.98h697m0 15.99h-697m0 15.98h697m0 15.99h-177.79m-2.49-1.03l25.37 10.5 19.41 19.41 10.5 25.36v27.45l-10.5 25.37-19.41 19.41-25.37 10.5h-27.45l-25.36-10.5-19.41-19.41-10.5-25.37V471.9l10.5-25.36 19.41-19.41 25.36-10.5h27.45m-29.93 1.03H2722m0 15.98h457.41m-14.18 15.99H2722m0 15.98h436.61M3156 481.6h-274.45m15.99 15.98H3156m5.89 15.99H2903m-84.55-31.97h-45.19m18.42 15.98h10.78M2903 545.54h92.89m3.43-2.63l8.28-4.78 8.85-3.66 9.24-2.48 9.27-1.22v67.97h-67.97l1.22-9.27 2.48-9.25 3.66-8.84 4.78-8.28 5.83-7.6 6.77-6.76 7.59-5.83m35.64 2.63h10m0-14.77l9.27 1.22 9.25 2.48 8.84 3.66 8.28 4.78 7.6 5.83 6.76 6.76 5.83 7.6 4.78 8.28 3.66 8.84 2.48 9.25 1.22 9.27h-67.97v-67.97m39.07 14.77h105.3m-17.99-15.99H2903m-14.57 31.97h91.91m-8.53 15.99h-99.37M2849.61 593.49h118.07m-.69 15.25h67.97v-10h10v10h-10v67.97l-9.27-1.22-9.24-2.48-8.85-3.66-8.28-4.78-7.59-5.83-6.77-6.76-5.83-7.6-4.78-8.28-3.66-8.84-2.48-9.25-1.22-9.27m.1.74h-101.5m6.41 15.98h98.21m7.23 15.99H2872m-44 0H1789.66m15.99-15.99h1013.7m-15.98-15.98h-606.74m15.99-15.99h574.76m-15.98-15.98h-542.8m15.99-15.99h472.64m-11.76-15.98h-444.9m15.99-15.99H2701m.7-15.98h-409.16m15.99-15.99h382.94M2678 481.6h-353.49m-46.24-15.99h-77.42m-6.38 6.39h-38.94L2128 444.47v-38.94l27.53-27.53h38.94l27.53 27.53v38.94L2194.47 472m22.37-22.37h77.42m8.74-15.99h-81m0-15.98h81m47 7.34l-175 175h-375l-225 225m47-7.71h6m1.81-15.99h4.13m-5.94 31.97h-6m-6.17 15.99h18.34m15.16 15.98h-48.66m-51.34 0h-48.66m.95-.4l-17.27 7.16h-18.7l-17.27-7.16-13.22-13.22-7.16-17.27v-18.7l7.16-17.27 13.22-13.22 17.27-7.16h18.7l17.27 7.16 13.22 13.22 7.16 17.27v18.7l-7.16 17.27-13.22 13.22m14.21-15.58h18.34m-6.17-15.99h-6m0-15.98h6m5.94-15.99h-17.88m-14.28-15.98h46.44m-100 0h-46.44m-.16-.16l13.22 13.22 7.16 17.27v18.7l-7.16 17.27-13.22 13.22-17.27 7.16h-18.7l-17.27-7.16-13.22-13.22-7.16-17.27v-18.7l7.16-17.27 13.22-13.22 17.27-7.16h18.7l17.27 7.16m14.44 16.14h17.88m-5.94 15.99h-6m0 15.98h6m6.17 15.99h-18.34m-15.16 15.98h48.66m-100 0h-42.95m1.84-1.34l-6.49 4.72-7.15 3.64-7.64 2.48-7.93 1.26H1275v-51h51v4.01l-1.26 7.93-2.48 7.64-3.64 7.15-4.72 6.49-5.68 5.68M1275 876h-4.01l-7.93-1.26-7.64-2.48-7.15-3.64-6.49-4.72-5.68-5.68-4.72-6.49-3.64-7.15-2.48-7.64-1.26-7.93V825h51v51m-31.38-10.76h-42.95m.95-.4l-17.27 7.16h-18.7l-17.27-7.16-13.22-13.22-7.16-17.27v-18.7l7.16-17.27 13.22-13.22 17.27-7.16h18.7l17.27 7.16 13.22 13.22 7.16 17.27v18.7l-7.16 17.27-13.22 13.22m-52.29.4h-48.66m.95-.4l-17.27 7.16h-18.7l-17.27-7.16-13.22-13.22-7.16-17.27v-18.7l7.16-17.27 13.22-13.22 17.27-7.16h18.7l17.27 7.16 13.22 13.22 7.16 17.27v18.7l-7.16 17.27-13.22 13.22m-52.29.4h-48.66m.95-.4L984.35 872h-18.7l-17.27-7.16-13.22-13.22-7.16-17.27v-18.7l7.16-17.27 13.22-13.22 17.27-7.16h18.7l17.27 7.16 13.22 13.22 7.16 17.27v18.7l-7.16 17.27-13.22 13.22m-52.29.4h-48.66m.95-.4L884.35 872h-18.7l-17.27-7.16-13.22-13.22-7.16-17.27v-18.7l7.16-17.27 13.22-13.22 17.27-7.16h18.7l17.27 7.16 13.22 13.22 7.16 17.27v18.7l-7.16 17.27-13.22 13.22m-52.29.4h-48.66m15.16-15.98h18.34M828 833.27h-6m0-15.98h6m5.94-15.99h-17.88m-14.28-15.98h46.44m53.56 0h46.44m53.56 0h46.44m53.56 0h46.44m53.56 0h41.07m-1.07.78l6.49-4.72 7.15-3.64 7.64-2.48 7.93-1.26h8.02l7.93 1.26 7.64 2.48 7.15 3.64 6.49 4.72 5.68 5.68 4.72 6.49 3.64 7.15 2.48 7.64 1.26 7.93V825h-51v-51 51h-51v-4.01l1.26-7.93 2.48-7.64 3.64-7.15 4.72-6.49 5.68-5.68m65.36-.78h41.08m-14.28 15.98h-13.78m5.25 15.99h2.59m0 15.98h-2.67m-5.45 15.99h14.29M1230.12 849.26h-14.29m6.17-15.99h2.67m-.08-15.98H1222m-5.94-15.99h13.78m-95.9 0h-17.88m5.94 15.99h6m0 15.98h-6m-6.17 15.99h18.34m-100 0h-18.34m6.17-15.99h6m0-15.98h-6m-5.94-15.99h17.88m-100 0h-17.88m5.94 15.99h6m0 15.98h-6m-6.17 15.99h18.34m5.51 63.94h-29.36m11.26 15.98h6.84m-88.74-15.98h-29.36m11.26 15.98h6.84m-88.74-15.98h-29.36m11.26 15.98h6.84m2.62 47.96h-12.08M704 993.12h42m58 0h42m-14.96-15.98h-12.08M904 993.12h42m-14.96-15.98h-12.08m85.04 15.98h42m-14.96-15.98h-12.08m85.04 15.98h42m-14.96-15.98h-12.08m85.04 15.98h36.78m-13.68-15.98h-8.14m54.04 0h4m0 15.98h-4m36.22 0H1346m-14.96-15.98h-8.14m-45.9-15.99h-4m0-15.98h4m0-15.99h-4m-49.07 0h-2.35m-11.26-15.98h23.7m38.98 0h4m38.98 0h23.7m-11.26 15.98h-2.35m84.25-15.98h29.36m-11.26 15.98h-6.84m88.74-15.98h29.36m-11.26 15.98h-6.84m88.74-15.98h29.36m-11.26 15.98h-6.84m88.74-15.98h29.36m-11.26 15.98h-6.84m88.74-15.98h29.36m-11.26 15.98h-6.84m88.74-15.98h29.36m-11.26 15.98h-6.84m88.74-15.98h23.7m38.98 0h4m0 15.98h-4m0 15.99h4m0 15.98h-4m0 15.99h4m0 15.98h-4m-32.22 0H2004m14.96-15.98h8.14m-81.1 15.98h-42m14.96-15.98h12.08M1846 993.12h-42m14.96-15.98h12.08M1746 993.12h-42m14.96-15.98h12.08M1646 993.12h-42m14.96-15.98h12.08M1546 993.12h-42m14.96-15.98h12.08M1446 993.12h-42m14.96-15.98h12.08m-291.36-63.94h-29.36m11.26 15.98h6.84m-88.74-15.98h-29.36m11.26 15.98h6.84M646 993.12H81m0-15.98h550.04M353.7 945.17h-57.4m15.99-15.99h25.42M328 913.2h-6m0-15.99h6m0-15.98h-6m-15.29-15.99h36.58m63.42 0H453m11.76 15.99H422m125-31.97h87.17M628 833.27h-81m-265.75-95.91H81m0-15.99h50.3m-21.62-15.98H81m0-15.99h20.85M100 673.42H81m0-15.99h22.16m9.68-15.98H81m0-15.99h57.93m1.12-.46h19.9l6.32-2.62 8.94 8.94-15.26-6.32h-19.9m21.02.46h8.28m46.24-15.98h37.78m-15.99-15.99h-37.77m.39-15.98h21.4m-15.99-15.99h-6.87M150 575l150 150h500m34.74-3.63h812.77m15.99-15.98H850.72m15.99-15.99h812.77m46.24 15.99h402.42m-.14 15.98h-418.26m-15.99 15.99H2128m8.88 15.98h-459.11m63.94-63.94h402.42m61.74 0h113.26m-15.99 15.99h-81.28m.14 15.98h81m0 15.99h-81m-8.88 15.98h98.76m76.24 0h119.84m3.93 1.28l-8.39-2.72-7.85-4-7.13-5.19-6.23-6.23-5.19-7.13-4-7.85-2.72-8.39-1.38-8.7V703h53v53h-1.41l-8.7-1.38m10.11-1.28h6m0 2.66v-53h-6v-6h-53v-1.41l1.38-8.7 2.72-8.39 4-7.85 5.19-7.13 6.23-6.23 7.13-5.19 7.85-4 8.39-2.72 8.7-1.38h1.41v53h6v6h53v1.41l-1.38 8.7-2.72 8.39-4 7.85-5.19 7.13-6.23 6.23-7.13 5.19-7.85 4-8.39 2.72-8.7 1.38H2528m14.04-2.66H2597m15.69-15.98h-45.85m10.1-15.99H2828m0-15.98h-247.16m.16-8.39h-53v-53h1.41l8.7 1.38 8.39 2.72 7.85 4 7.13 5.19 6.23 6.23 5.19 7.13 4 7.85 2.72 8.39 1.38 8.7V697m-.98-7.6H2828m44 0h287.44m-.05.09l4.78-8.28 5.83-7.6 6.76-6.76 7.6-5.83 8.28-4.78 8.84-3.66 9.25-2.48 9.27-1.22v67.97h10v-67.97l9.27 1.22 9.25 2.48 8.84 3.66 8.28 4.78 7.6 5.83 6.76 6.76 5.83 7.6 4.78 8.28 3.66 8.84 2.48 9.25 1.22 9.27H3230v10h67.97l-1.22 9.27-2.48 9.25-3.66 8.84-4.78 8.28-5.83 7.6-6.76 6.76-7.6 5.83-8.28 4.78-8.84 3.66-9.25 2.48-9.27 1.22v-67.97h-10v-10h-67.97l1.22-9.27 2.48-9.25 3.66-8.84m-5.55 15.9H2872m0 15.98h348m0 5.48h-67.97l1.22 9.27 2.48 9.25 3.66 8.84 4.78 8.28 5.83 7.6 6.76 6.76 7.6 5.83 8.28 4.78 8.84 3.66 9.25 2.48 9.27 1.22v-67.97m0 10.51h10m0 15.98h-10m-60.97 0H2872m0-15.98h281.58m15.84 31.97H2872m0 15.99h316.92m31.08 0h10m0-15.99h-10m41.08 15.99H3419m0-15.99h-138.42m10.39-15.99H3419m0-15.98h-122.58M3230 721.37h189m0-15.98h-122.84m-5.6-15.99H3419m0-15.98h-139.19m-20.38-15.99H3419m0-15.98h-316.52m-1.69 2.93l-5.83 7.6-6.76 6.76-7.6 5.83-8.28 4.78-8.84 3.66-9.25 2.48-9.27 1.22v-67.97h67.97l-1.22 9.27-2.48 9.25-3.66 8.84-4.78 8.28m8.92-18.92H3419m0-15.98h-306.17m-.59-15.99H3419m0-15.98h-310.89m-8.53-15.99H3419m0-15.98h-158.33m17.99-15.99H3419m0-15.98h-130.89m5.89-15.99h125m0-15.98h-125m-2.61-15.99H3419m0-15.98h-134.23m-14.18-15.99H3419m-374.04 127.88h-10m0 15.99h10m0 15.98h-10m0 15.99h10m0 15.98h-10m0 15.99h10m0 15.98h-10m0 15.99h10m17 0h108.23m20.38-15.99H3089.5m-71.54 15.99H2872m0-15.99h118.42m-162.42 0h-266.37m12.68 15.99H2828m0 63.94h-46.34m12.41 15.98H2828m0 15.99h-29m-.24 15.99H2828m0 15.98h-35.86m-16.18 15.99H2828m44 0h547m0-15.99h-547m32.7 24.7h40.6l28.7 28.7v40.6l-26.88 26.87 30.88 30.88V973h-51v4h51v19.95l-31.05 31.05H2927v-51h-4v51h-19.95L2872 996.95V977h51v-4h-51v-19.95l30.88-30.88L2876 895.3v-40.6l28.7-28.7m-7.27 7.27H2872m0 15.99h9.45m-5.45 15.98h-10.13m10.13 15.99h-26.11m-15.99 15.98h44.01m15.99 15.99h-75.98m-41.61 15.98h119.56m-15.99 15.99h-87.59m8.71 15.98h71m0 15.99h-71m0 15.98h71m12.15 15.99h-96.13m-15.99 15.98h128.11m22.86 0h4m0-15.98h-4m26.86 15.98H3419m0-15.98h-453.15m12.15-15.99h441m0-15.98h-441m-51 0h-4m0 15.98h4m51-31.97h441m0-15.98h-448.88m-15.99-15.99H3419m0-15.98h-462.9m15.99-15.99H3419m0-15.98h-445m0-15.99h445m0-15.98h-450.45m-15.98-15.99H3419m-189-127.88h-10m0-15.99h10m0-15.98h-10m0-15.99h10m-511.66 79.93h-31.03m15.69 15.98h2.93M2682.67 817.29h41.37m-16.18-15.99h-9.21m-81.32 15.99H2022m-5.94-15.99h585.29M2528 737.36h-6m-38.84 0H2397m0-15.99h76.06m-3.9-15.98h-72.3m-15.99-15.99h89.11m52.02 0h6m0 15.99h-6m0 15.98h6m0-47.95h-6m0-15.99h6m-39.63 0h-714.69m-15.99 15.99h718m-277.34-127.88h-180.98m4.63-15.99h192.33m15.99-15.98h-209.18m-7.09-15.99h232.25m15.99-15.98h-269.25m-36.08 0h-63.92m21.01 15.98h21.9m-7.09 15.99h-7.72m.86 15.98h6m4.63 15.99h-15.26m-84.74 0h-15.26m4.63-15.99h6m-53-4.55v-75l50-50V250l75-75m-50 9.95v-19.9 19.9l2.62 6.32-8.94 8.94 6.32-15.26m.02 8.92h-3.72m2.39-31.97h2.62m7.07-15.99h-16.76m100 0h16.76m-7.07 15.99h-2.62m-2.39 31.97h7.4m-135.65 31.97H1797m-44 0h-31.71m-42.58 0h-193.17m-21.08 0h-78.92m-21.08 0h-78.92m-21.08 0h-78.92m-21.08 0h-78.92m-21.08 0h-78.92m-21.08 0h-7.51m15.98 15.98H1753m0 15.99H988.92m15.98 15.98H1753m0 15.99h-732.11m15.98 15.98H1753m44 0h6m0-15.98h-6m0-15.99h6m0-15.98h-6m0-15.99h6m45.31 15.99h27.42m4.8-4.81h38.94l27.53 27.53v38.94L1919.47 347h-38.94L1853 319.47v-38.94l27.53-27.53m-16.24-11.18H2228m13.34 15.99h-317.07m15.99 15.98h411.41m46.66 0h81.24m-6.57 15.99h-526m0 15.98h526m4.72 15.99h-533m-15.98 15.98h560.45m71.62 0H2678m0-15.98h-105.72M2678 353.72h-752.16m-4.72-4.72H1900v102h21.12l29.88-29.88V400h-102v21.12l29.88 29.88H1900v-51h51v-21.12L1921.12 349m-21.12 0v51h-51v-21.12l29.88-29.88H1900M1874.16 353.72H1847m0 15.98h11.17m-9.17 15.99h-2m0 15.98h2m92.83-31.97H2678m0 15.99h-300.84m15.98 15.98H2678m0 15.99h-281m0 15.98h281m0 15.99h-286.16m-15.99 15.98H2678m-355.16-79.92h-120.68m15.98 15.98h88.72m-159.02-15.98H1951m0 15.98h180.86m-3.86 15.99h-177m-12.52 15.98H2128m5.16 15.99H1922.5m-45 0h-71.02m-9.48 15.98h352.15M1861.52 433.64h-39.05m15.98-15.98H1849m-56.79-15.99h-12.77m15.99-15.98h7.57m0-15.99h-6m0-15.98h6m-50 0h-95m0 3.84l-5.79 13.97-10.68 10.68-13.97 5.79h-15.12l-13.97-5.79-10.68-10.68-5.79-13.97v-15.12l5.79-13.97 10.68-10.68 13.97-5.79h15.12l13.97 5.79 10.68 10.68 5.79 13.97v15.12m-5.03 12.14h96.21m-15.98 15.99h-100.06m-26.28 0h-163.72m-5.58 2.31h-15.12l-13.97-5.79-10.68-10.68-5.79-13.97v-15.12l5.79-13.97 10.68-10.68 13.97-5.79h15.12l13.97 5.79 10.68 10.68 5.79 13.97v15.12l-5.79 13.97-10.68 10.68-13.97 5.79m-20.7-2.31H1116.8m15.99 15.98h584.42m-15.98 15.99h-452.46m15.99 15.98h420.48m-15.98 15.99h-388.52m15.99 15.98h356.54m-.27 15.99h-59.96m8.58 3.56l-17.27-7.16h-18.7l-17.27 7.16-13.22 13.22-7.16 17.27v18.7l7.16 17.27 13.22 13.22 17.27 7.16h18.7l17.27-7.16 13.22-13.22 7.16-17.27v-18.7l-7.16-17.27-13.22-13.22m12.43 12.42h21.9m-7.09 15.99h-7.72m.86 15.98h6m4.63 15.99h-15.26m-12.43 15.98h40.12m-100 0h-40.12m-3.32 3.32l-17.27 7.16h-18.7l-17.27-7.16-13.22-13.22-7.16-17.27v-18.7l7.16-17.27 13.22-13.22 17.27-7.16h18.7l17.27 7.16 13.22 13.22 7.16 17.27v18.7l-7.16 17.27-13.22 13.22m15.75-19.3h15.26m-4.63-15.99h-6m-.86-15.98h7.72m7.09-15.99h-21.9m-21.01-15.98h63.92m-100 0h-54.93m-.3-.22l6.49 4.72 5.68 5.68 4.72 6.49 3.64 7.15 2.48 7.64 1.26 7.93v8.02l-1.26 7.93-2.48 7.64-3.64 7.15-4.72 6.49-5.68 5.68-6.49 4.72-7.15 3.64-7.64 2.48-7.93 1.26H1375v-51h51-102v4.01l1.26 7.93 2.48 7.64 3.64 7.15 4.72 6.49 5.68 5.68 6.49 4.72 7.15 3.64 7.64 2.48 7.93 1.26h4.01V474h4.01l7.93 1.26 7.64 2.48 7.15 3.64m16.39 16.2h17.83m-7.09 15.99h-4.04m1.09 15.98h2.09m4.63 15.99h-10.86M1375 525h-51v-4.01l1.26-7.93 2.48-7.64 3.64-7.15 4.72-6.49 5.68-5.68 6.49-4.72 7.15-3.64 7.64-2.48 7.93-1.26h4.01v51m-46.77 20.54h-10.86m4.63-15.99h2.09m1.08-15.98h-4.03m-7.09-15.99h17.83m16.09-15.98H1297m-22-6.6v50m-42.37 20.54h-15.26m-2.53 6.08l7.16-17.27v-18.7l-7.16-17.27-13.22-13.22-17.27-7.16h-18.7l-17.27 7.16-13.22 13.22-7.16 17.27v18.7l7.16 17.27 13.22 13.22 17.27 7.16h18.7l17.27-7.16 13.22-13.22m-9.9 9.9h40.12m59.88 0h34.46m71.2 0h34.46M1275 475l-50-50h-100L875 175m-47.39 18.87h-.91m-49.7 0h-4m0-15.99h4m0-15.98h-4m0-15.99h4m44.85 0h10.11m18.59-15.98h-44.02m-29.53 0h-4m-29.53 0h-44.02m18.59 15.98h10.11m-77.6-15.98H179.83m-1.53-1.11l6.88 4.99 6.01 6.01 4.99 6.88 3.86 7.57 2.63 8.08 1.33 8.4v2.75h-52.5V121h2.75l8.4 1.33 8.08 2.63 7.57 3.86m-26.8 1.11h-3m-28.33 0H81m0 15.98h23.39m-6.91 15.99H81m0 15.98h15m3.35 15.99H81m0 15.98h27.57m23.14 15.99H81m0 15.98h31.47M103 257.81H81m0 15.98h19m2 15.99H81m0 15.98h29.05m22.15 15.99H81m0 15.98h35.56m51.24-15.98H653m0 15.98H183.44m11.86 15.99h444.87m-15.99 15.98h-44.85m-52.66 0H323.33m17.14 15.99h169.06m-6.63 15.98H347.1m-76.43-31.97H200m-.31 15.99h53.84m-6.63 15.98h-53.83m-15.4 15.99H246m3.93 15.98h-70.58m-58.7 0H81m0-15.98h41.33m-15.4-15.99H81m0-15.98h19.31M100 369.7H81m0-15.98h23.7m85.25-47.96H653m0-15.98h-87.95m.83-.13l-8.55 1.35H555v-53h53v2.33l-1.35 8.55-2.68 8.23-3.93 7.72-5.09 7-6.12 6.12-7 5.09-7.72 3.93-8.23 2.68m-10.88.13h-4m0 1.22h-2.33l-8.55-1.35-8.23-2.68-7.72-3.93-7-5.09-6.12-6.12-5.09-7-3.93-7.72-2.68-8.23-1.35-8.55V238h53v53m-10.05-1.22H198m2-15.99h62.67m5.44 5.45l-14.35-14.35-7.76-18.75v-20.28l7.76-18.75 14.35-14.35 18.75-7.76h20.28l18.75 7.76 14.35 14.35 7.76 18.75v20.28l-7.76 18.75-14.35 14.35-18.75 7.76h-20.28l-18.75-7.76m-17.28-21.43H197m-9.47-15.99H246m.01-15.98h-77.72m23.14-15.99h61.2m14.38-15.98h-66.36m3.35-15.99h420m3.61 15.99h-39.03m.25.18l6.12 6.12 5.09 7 3.93 7.72 2.68 8.23 1.35 8.55V234h-53v4h-4v-4h4v-53h2.33l8.55 1.35 8.23 2.68 7.72 3.93 7 5.09m-33.83-.18h-4m0-12.87v53h-53v-2.33l1.35-8.55 2.68-8.23 3.93-7.72 5.09-7 6.12-6.12 7-5.09 7.72-3.93 8.23-2.68 8.55-1.35H551m-33.58 12.87H326.99m14.38 15.98H504.6m-5.68 15.99H347.99m.01 15.98h150.24m4.14 15.99H343.17m-11.84 15.98h181.68m37.99 0h4m37.99 0H653m0-15.98h-49.38m4.14-15.99H653m0-15.98h-45.92m-5.68-15.99h36.33M697 225.84h56.62m19.38 0h4m0-15.99h-4m23.38 15.99h68.08m21.08 0h9.18m-56.99-15.99h-20.07m-85.32 0h-20.07m10.12-15.98h.91M675 175v175m22 3.72h325.6m15.99 15.98H697m0 15.99h357.57m15.99 15.98H697m-88.8-15.98h-11.73M697 337.73h309.62m-15.99-15.98H697m0-15.99h277.65m-15.99-15.98H697m0-15.99h245.68m-15.99-15.98H697m0-15.99h213.71m101.56-31.97h25.46m-10.12-15.98h-5.22m2.38-31.97h.46m6.73-15.99h-13.92m-18.59-15.98h51.1m48.9 0h51.1m48.9 0h51.1m48.9 0h51.1m-18.59 15.98h-13.92m6.73 15.99h.46m92.81-15.99h13.92m-6.73 15.99h-.46m93.27-15.99h44.58m-9.62 9.62l27.53-27.53h38.94l27.53 27.53v38.94L1619.47 222h-38.94L1553 194.47v-38.94m0 6.37h-28.23m1.23 15.98h27m0 15.99h-30.61m-10.12 15.98h56.11m63.24 0h31.11M1649 193.87h-2m0-15.99h2m0-15.98h-2m-9.62-15.99h19.58m15.99-15.98h-51.56m-42.78 0h-79.16m-48.9 0h-51.1m-167.49 15.98h-13.92m6.73 15.99h.46m2.38 31.97h-5.22m-10.12 15.98h25.46m74.54 0h25.46m-10.12-15.98h-5.22m89.88 15.98h25.46m-10.12-15.98h-5.22M1737.27 209.85H1753m94 63.94h12.74m-6.74 15.99h-6m0 15.98h6m2.28 15.99H1847m0 15.98h24.26m-68.26 0h-6m0-15.98h6m-50 0h-107.51m10.56 15.98H1753m-158.49-15.98h-139.02m10.56 15.98h117.9m-1.95 15.99h-114m-5.03 15.98h124.06m176.42 47.96h12.78m-15.99 15.98h-12.77m5.53 15.99h-21.52m-15.98 15.98h37.5m0 15.99h-53.49m14.54 15.98h21.9m-7.09 15.99h-7.72M1797 481.6h59.96m-21.01 15.98h-21.9m7.09 15.99h7.72m-53.47 79.92H897m0 15.99h862.41m-15.99 15.98H897m0 15.99h830.44m-15.99 15.98H897m-14.31 15.99h812.78m120.59 127.88h17.88m-5.94 15.99h-6m0 15.98h6m6.17 15.99h-18.34m100 0h18.34m-6.17-15.99h-6m0-15.98h6m5.94-15.99h-17.88M2022 833.27h806m-8.37 15.99h-423.25m-42.76 0h-337.79m100.15 63.94h23.7m-11.26 15.98h-2.35m-102.14 0h-2.35m101.32 47.96h8.14m14.96 15.98h-36.78m303.15-127.88h30.92M2428 881.23h-2m80.71-15.99h296.94m-90.99 15.99H2522m0 15.98h174.68m-15.99 15.99H2522m-9.71 15.98h117.06m-15.98 15.99H2496.3m200.7 15.98h2M3419 1041.08H81m87.7-319.71h96.56m-15.98-15.98h-58.96m7.83-15.99h35.14m-15.98-15.98H200m1.32-15.99h-4.48m50.72-15.98h37.78m-15.99-15.99h-37.77m31.97 31.97h37.77m15.99 15.99h-37.78m15.99 15.98h37.77m14.27-47.95h379.88m15.98-15.99H331.58m-217.81-15.98H81m0-15.99h22.54M100 577.51H81m0-15.99h20.46m7.29-15.98H81m0-15.99h48.06m10.99-4.55h19.9l6.32-2.62 8.94 8.94-15.26-6.32h-19.9m30.89 4.55h2.5m-55.58-15.98H81m0-15.99h24.23M100 481.6H81m0-15.99h19m6.39-15.98H81m449.04 63.94h98.82m-.86 15.98h-81.98m.98 15.99h85.63m12.43 15.98H547m250 15.99h56m-7.94-15.99h-40.12M797 593.49h56m0 15.99h-56m0 15.98h56m-.56 15.99h-62.78m-15.98 15.98h62.77m-15.98 15.99h-62.78m-15.98 15.98h62.77m243.9-124.56l17.27 7.16h18.7l17.27-7.16 13.22-13.22 7.16-17.27v-18.7l-7.16-17.27-13.22-13.22-17.27-7.16h-18.7l-17.27 7.16-13.22 13.22-7.16 17.27v18.7l7.16 17.27 13.22 13.22m-3.32-3.32h-40.12m12.43-15.98h15.26m-4.63-15.99h-6m-.86-15.98h7.72m7.09-15.99h-21.9m-21.01-15.98h63.92m36.08 0h63.92m-21.01 15.98h-21.9m7.09 15.99h7.72m-.86 15.98h-6m-4.63 15.99h15.26m12.43 15.98h-40.12M1222 529.55h6m.86-15.98h-7.72m-7.09-15.99h21.9m14.54-15.98h-57.45m-92.23-111.9h296.22m-5.03-15.98h-307.17m-15.99-15.99h325.11m10.56-15.98h-351.65m59.41-111.9h25.46m-10.12-15.98h-5.22m2.38-31.97h.46m6.73-15.99h-13.92m-167.49-15.98h-51.1m18.59 15.98h13.92m-6.73 15.99h-.46m-292.81-15.99H195.61m6.91 15.99h422.71M555 209.85h-4m0 15.99h4m0 15.98h-4m0 15.99h4M151.5 161.9h-3m0-15.99h3m1997.19 15.99h522.19m-11.41 15.98h-259.46m15.98 15.99H2656m88 0h8m3.7 79.92h-15.86m-12.39 15.99h39.44m31.11 0h4m0-15.99h-4m-304.35-15.98h-79.33m-78.64 0h-27.02m13.34-15.99h2M2349.99 177.88H2150"/></g><g id="pcb-stackup_bottom_sm"><path fill="none" stroke-width="66" d="M2700 195v60m100 0v-60m100 0v60"/><use x="2750" y="525" xlink:href="#ByVY3Xysi-_pad-11"/><use x="2750" y="775" xlink:href="#ByVY3Xysi-_pad-11"/><use x="2650" y="775" xlink:href="#ByVY3Xysi-_pad-12"/><use x="2925" y="875" xlink:href="#ByVY3Xysi-_pad-12"/><use x="2925" y="975" xlink:href="#ByVY3Xysi-_pad-12"/><use x="2850" y="525" xlink:href="#ByVY3Xysi-_pad-12"/><use x="3039.96" y="603.74" xlink:href="#ByVY3Xysi-_pad-13"/><use x="3225" y="485.63" xlink:href="#ByVY3Xysi-_pad-13"/><use x="3225" y="721.85" xlink:href="#ByVY3Xysi-_pad-13"/><use x="2525" y="700" xlink:href="#ByVY3Xysi-_pad-14"/><use x="2525" y="300" xlink:href="#ByVY3Xysi-_pad-14"/><use x="1975" y="525" xlink:href="#ByVY3Xysi-_pad-15"/><use x="1875" y="525" xlink:href="#ByVY3Xysi-_pad-15"/><use x="1775" y="525" xlink:href="#ByVY3Xysi-_pad-15"/><use x="1675" y="525" xlink:href="#ByVY3Xysi-_pad-15"/><use x="1575" y="525" xlink:href="#ByVY3Xysi-_pad-15"/><use x="1475" y="525" xlink:href="#ByVY3Xysi-_pad-15"/><use x="1375" y="525" xlink:href="#ByVY3Xysi-_pad-15"/><use x="1275" y="525" xlink:href="#ByVY3Xysi-_pad-15"/><use x="1175" y="525" xlink:href="#ByVY3Xysi-_pad-15"/><use x="1075" y="525" xlink:href="#ByVY3Xysi-_pad-15"/><use x="975" y="525" xlink:href="#ByVY3Xysi-_pad-15"/><use x="875" y="525" xlink:href="#ByVY3Xysi-_pad-15"/><use x="775" y="525" xlink:href="#ByVY3Xysi-_pad-15"/><use x="675" y="525" xlink:href="#ByVY3Xysi-_pad-15"/><use x="675" y="825" xlink:href="#ByVY3Xysi-_pad-15"/><use x="775" y="825" xlink:href="#ByVY3Xysi-_pad-15"/><use x="875" y="825" xlink:href="#ByVY3Xysi-_pad-15"/><use x="975" y="825" xlink:href="#ByVY3Xysi-_pad-15"/><use x="1075" y="825" xlink:href="#ByVY3Xysi-_pad-15"/><use x="1175" y="825" xlink:href="#ByVY3Xysi-_pad-15"/><use x="1275" y="825" xlink:href="#ByVY3Xysi-_pad-15"/><use x="1375" y="825" xlink:href="#ByVY3Xysi-_pad-15"/><use x="1475" y="825" xlink:href="#ByVY3Xysi-_pad-15"/><use x="1575" y="825" xlink:href="#ByVY3Xysi-_pad-15"/><use x="1675" y="825" xlink:href="#ByVY3Xysi-_pad-15"/><use x="1775" y="825" xlink:href="#ByVY3Xysi-_pad-15"/><use x="1875" y="825" xlink:href="#ByVY3Xysi-_pad-15"/><use x="1975" y="825" xlink:href="#ByVY3Xysi-_pad-15"/><use x="2175" y="725" xlink:href="#ByVY3Xysi-_pad-16"/><use x="2350" y="725" xlink:href="#ByVY3Xysi-_pad-16"/><use x="2375" y="900" xlink:href="#ByVY3Xysi-_pad-16"/><use x="2475" y="900" xlink:href="#ByVY3Xysi-_pad-16"/><use x="2650" y="975" xlink:href="#ByVY3Xysi-_pad-16"/><use x="2750" y="975" xlink:href="#ByVY3Xysi-_pad-16"/><use x="2350" y="425" xlink:href="#ByVY3Xysi-_pad-16"/><use x="2175" y="425" xlink:href="#ByVY3Xysi-_pad-16"/><use x="1900" y="400" xlink:href="#ByVY3Xysi-_pad-16"/><use x="1900" y="300" xlink:href="#ByVY3Xysi-_pad-16"/><use x="1700" y="175" xlink:href="#ByVY3Xysi-_pad-16"/><use x="1600" y="175" xlink:href="#ByVY3Xysi-_pad-16"/><use x="2275" y="225" xlink:href="#ByVY3Xysi-_pad-16"/><use x="2375" y="225" xlink:href="#ByVY3Xysi-_pad-16"/><use x="500" y="550" xlink:href="#ByVY3Xysi-_pad-16"/><use x="500" y="850" xlink:href="#ByVY3Xysi-_pad-16"/><use x="375" y="900" xlink:href="#ByVY3Xysi-_pad-16"/><use x="275" y="900" xlink:href="#ByVY3Xysi-_pad-16"/><use x="1430" y="350" xlink:href="#ByVY3Xysi-_pad-17"/><use x="1620" y="350" xlink:href="#ByVY3Xysi-_pad-17"/><use x="1475" y="175" xlink:href="#ByVY3Xysi-_pad-18"/><use x="1375" y="175" xlink:href="#ByVY3Xysi-_pad-18"/><use x="1275" y="175" xlink:href="#ByVY3Xysi-_pad-18"/><use x="1175" y="175" xlink:href="#ByVY3Xysi-_pad-18"/><use x="1075" y="175" xlink:href="#ByVY3Xysi-_pad-18"/><use x="975" y="175" xlink:href="#ByVY3Xysi-_pad-18"/><use x="875" y="175" xlink:href="#ByVY3Xysi-_pad-18"/><use x="775" y="175" xlink:href="#ByVY3Xysi-_pad-18"/><use x="675" y="175" xlink:href="#ByVY3Xysi-_pad-18"/><use x="553" y="236" xlink:href="#ByVY3Xysi-_pad-18"/><use x="297" y="236" xlink:href="#ByVY3Xysi-_pad-18"/><use x="297" y="414" xlink:href="#ByVY3Xysi-_pad-18"/><use x="553" y="414" xlink:href="#ByVY3Xysi-_pad-18"/><use x="675" y="950" xlink:href="#ByVY3Xysi-_pad-18"/><use x="775" y="950" xlink:href="#ByVY3Xysi-_pad-18"/><use x="875" y="950" xlink:href="#ByVY3Xysi-_pad-18"/><use x="975" y="950" xlink:href="#ByVY3Xysi-_pad-18"/><use x="1075" y="950" xlink:href="#ByVY3Xysi-_pad-18"/><use x="1175" y="950" xlink:href="#ByVY3Xysi-_pad-18"/><use x="1275" y="950" xlink:href="#ByVY3Xysi-_pad-18"/><use x="1375" y="950" xlink:href="#ByVY3Xysi-_pad-18"/><use x="1475" y="950" xlink:href="#ByVY3Xysi-_pad-18"/><use x="1575" y="950" xlink:href="#ByVY3Xysi-_pad-18"/><use x="1675" y="950" xlink:href="#ByVY3Xysi-_pad-18"/><use x="1775" y="950" xlink:href="#ByVY3Xysi-_pad-18"/><use x="1875" y="950" xlink:href="#ByVY3Xysi-_pad-18"/><use x="1975" y="950" xlink:href="#ByVY3Xysi-_pad-18"/><use x="2075" y="950" xlink:href="#ByVY3Xysi-_pad-18"/><use x="2175" y="950" xlink:href="#ByVY3Xysi-_pad-18"/><use x="150" y="175" xlink:href="#ByVY3Xysi-_pad-19"/><use x="150" y="275" xlink:href="#ByVY3Xysi-_pad-19"/><use x="150" y="375" xlink:href="#ByVY3Xysi-_pad-19"/><use x="150" y="475" xlink:href="#ByVY3Xysi-_pad-19"/><use x="150" y="575" xlink:href="#ByVY3Xysi-_pad-19"/><use x="150" y="675" xlink:href="#ByVY3Xysi-_pad-19"/><use x="1800" y="175" xlink:href="#ByVY3Xysi-_pad-19"/><use x="1900" y="175" xlink:href="#ByVY3Xysi-_pad-19"/><use x="2000" y="175" xlink:href="#ByVY3Xysi-_pad-19"/><use x="2100" y="175" xlink:href="#ByVY3Xysi-_pad-19"/></g><g id="pcb-stackup_bottom_drl1"><use x="1430" y="350" xlink:href="#BkgF371iib_pad-1"/><use x="1620" y="350" xlink:href="#BkgF371iib_pad-1"/><use x="1900" y="300" xlink:href="#BkgF371iib_pad-1"/><use x="1900" y="400" xlink:href="#BkgF371iib_pad-1"/><use x="2175" y="425" xlink:href="#BkgF371iib_pad-1"/><use x="2350" y="425" xlink:href="#BkgF371iib_pad-1"/><use x="1975" y="525" xlink:href="#BkgF371iib_pad-1"/><use x="1875" y="525" xlink:href="#BkgF371iib_pad-1"/><use x="1775" y="525" xlink:href="#BkgF371iib_pad-1"/><use x="1675" y="525" xlink:href="#BkgF371iib_pad-1"/><use x="1575" y="525" xlink:href="#BkgF371iib_pad-1"/><use x="1475" y="525" xlink:href="#BkgF371iib_pad-1"/><use x="1375" y="525" xlink:href="#BkgF371iib_pad-1"/><use x="1275" y="525" xlink:href="#BkgF371iib_pad-1"/><use x="1175" y="525" xlink:href="#BkgF371iib_pad-1"/><use x="1075" y="525" xlink:href="#BkgF371iib_pad-1"/><use x="975" y="525" xlink:href="#BkgF371iib_pad-1"/><use x="875" y="525" xlink:href="#BkgF371iib_pad-1"/><use x="775" y="525" xlink:href="#BkgF371iib_pad-1"/><use x="675" y="525" xlink:href="#BkgF371iib_pad-1"/><use x="500" y="550" xlink:href="#BkgF371iib_pad-1"/><use x="675" y="825" xlink:href="#BkgF371iib_pad-1"/><use x="775" y="825" xlink:href="#BkgF371iib_pad-1"/><use x="875" y="825" xlink:href="#BkgF371iib_pad-1"/><use x="975" y="825" xlink:href="#BkgF371iib_pad-1"/><use x="1075" y="825" xlink:href="#BkgF371iib_pad-1"/><use x="1175" y="825" xlink:href="#BkgF371iib_pad-1"/><use x="1275" y="825" xlink:href="#BkgF371iib_pad-1"/><use x="1375" y="825" xlink:href="#BkgF371iib_pad-1"/><use x="1475" y="825" xlink:href="#BkgF371iib_pad-1"/><use x="1575" y="825" xlink:href="#BkgF371iib_pad-1"/><use x="1675" y="825" xlink:href="#BkgF371iib_pad-1"/><use x="1775" y="825" xlink:href="#BkgF371iib_pad-1"/><use x="1875" y="825" xlink:href="#BkgF371iib_pad-1"/><use x="1975" y="825" xlink:href="#BkgF371iib_pad-1"/><use x="2175" y="725" xlink:href="#BkgF371iib_pad-1"/><use x="2350" y="725" xlink:href="#BkgF371iib_pad-1"/><use x="2650" y="775" xlink:href="#BkgF371iib_pad-1"/><use x="2750" y="775" xlink:href="#BkgF371iib_pad-1"/><use x="2475" y="900" xlink:href="#BkgF371iib_pad-1"/><use x="2375" y="900" xlink:href="#BkgF371iib_pad-1"/><use x="2650" y="975" xlink:href="#BkgF371iib_pad-1"/><use x="2750" y="975" xlink:href="#BkgF371iib_pad-1"/><use x="2750" y="525" xlink:href="#BkgF371iib_pad-1"/><use x="2850" y="525" xlink:href="#BkgF371iib_pad-1"/><use x="2375" y="225" xlink:href="#BkgF371iib_pad-1"/><use x="2275" y="225" xlink:href="#BkgF371iib_pad-1"/><use x="1700" y="175" xlink:href="#BkgF371iib_pad-1"/><use x="1600" y="175" xlink:href="#BkgF371iib_pad-1"/><use x="500" y="850" xlink:href="#BkgF371iib_pad-1"/><use x="375" y="900" xlink:href="#BkgF371iib_pad-1"/><use x="275" y="900" xlink:href="#BkgF371iib_pad-1"/><use x="150" y="175" xlink:href="#BkgF371iib_pad-2"/><use x="150" y="275" xlink:href="#BkgF371iib_pad-2"/><use x="150" y="375" xlink:href="#BkgF371iib_pad-2"/><use x="150" y="475" xlink:href="#BkgF371iib_pad-2"/><use x="150" y="575" xlink:href="#BkgF371iib_pad-2"/><use x="150" y="675" xlink:href="#BkgF371iib_pad-2"/><use x="1800" y="175" xlink:href="#BkgF371iib_pad-2"/><use x="1900" y="175" xlink:href="#BkgF371iib_pad-2"/><use x="2000" y="175" xlink:href="#BkgF371iib_pad-2"/><use x="2100" y="175" xlink:href="#BkgF371iib_pad-2"/><use x="2700" y="225" xlink:href="#BkgF371iib_pad-3"/><use x="2800" y="225" xlink:href="#BkgF371iib_pad-3"/><use x="2900" y="225" xlink:href="#BkgF371iib_pad-3"/><use x="1475" y="175" xlink:href="#BkgF371iib_pad-3"/><use x="1375" y="175" xlink:href="#BkgF371iib_pad-3"/><use x="1275" y="175" xlink:href="#BkgF371iib_pad-3"/><use x="1175" y="175" xlink:href="#BkgF371iib_pad-3"/><use x="1075" y="175" xlink:href="#BkgF371iib_pad-3"/><use x="975" y="175" xlink:href="#BkgF371iib_pad-3"/><use x="875" y="175" xlink:href="#BkgF371iib_pad-3"/><use x="775" y="175" xlink:href="#BkgF371iib_pad-3"/><use x="675" y="175" xlink:href="#BkgF371iib_pad-3"/><use x="553" y="236" xlink:href="#BkgF371iib_pad-3"/><use x="297" y="236" xlink:href="#BkgF371iib_pad-3"/><use x="297" y="414" xlink:href="#BkgF371iib_pad-3"/><use x="553" y="414" xlink:href="#BkgF371iib_pad-3"/><use x="675" y="950" xlink:href="#BkgF371iib_pad-3"/><use x="775" y="950" xlink:href="#BkgF371iib_pad-3"/><use x="875" y="950" xlink:href="#BkgF371iib_pad-3"/><use x="975" y="950" xlink:href="#BkgF371iib_pad-3"/><use x="1075" y="950" xlink:href="#BkgF371iib_pad-3"/><use x="1175" y="950" xlink:href="#BkgF371iib_pad-3"/><use x="1275" y="950" xlink:href="#BkgF371iib_pad-3"/><use x="1375" y="950" xlink:href="#BkgF371iib_pad-3"/><use x="1475" y="950" xlink:href="#BkgF371iib_pad-3"/><use x="1575" y="950" xlink:href="#BkgF371iib_pad-3"/><use x="1675" y="950" xlink:href="#BkgF371iib_pad-3"/><use x="1775" y="950" xlink:href="#BkgF371iib_pad-3"/><use x="1875" y="950" xlink:href="#BkgF371iib_pad-3"/><use x="1975" y="950" xlink:href="#BkgF371iib_pad-3"/><use x="2075" y="950" xlink:href="#BkgF371iib_pad-3"/><use x="2175" y="950" xlink:href="#BkgF371iib_pad-3"/><use x="2925" y="975" xlink:href="#BkgF371iib_pad-3"/><use x="2925" y="875" xlink:href="#BkgF371iib_pad-3"/><use x="2525" y="700" xlink:href="#BkgF371iib_pad-4"/><use x="2525" y="300" xlink:href="#BkgF371iib_pad-4"/><use x="3225" y="485.6" xlink:href="#BkgF371iib_pad-5"/><use x="3040" y="603.7" xlink:href="#BkgF371iib_pad-5"/><use x="3225" y="721.9" xlink:href="#BkgF371iib_pad-5"/></g><mask id="pcb-stackup_bottom_mech-mask"><g stroke="#000"><path fill="#fff" d="M73 73h3354v979H73z"/><use xlink:href="#pcb-stackup_bottom_drl1"/></g></mask><mask id="pcb-stackup_bottom_cf-mask"><g fill="#fff" stroke="#fff"><use xlink:href="#pcb-stackup_bottom_sm"/></g></mask><mask id="pcb-stackup_bottom_sm-mask"><g stroke="#000"><path fill="#fff" d="M73 73h3354v979H73z"/><use xlink:href="#pcb-stackup_bottom_sm"/></g></mask></defs><g><g mask="url(#pcb-stackup_bottom_mech-mask)" transform="rotate(180 1750 562.5)"><path fill="currentColor" d="M73 73h3354v979H73z" class="pcb-stackup_fr4"/><use fill="currentColor" stroke="currentColor" xlink:href="#pcb-stackup_bottom_cu" class="pcb-stackup_cu"/><use fill="currentColor" stroke="currentColor" xlink:href="#pcb-stackup_bottom_cu" class="pcb-stackup_cf" mask="url(#pcb-stackup_bottom_cf-mask)"/><g mask="url(#pcb-stackup_bottom_sm-mask)"><path fill="currentColor" d="M73 73h3354v979H73z" class="pcb-stackup_sm"/></g></g></g></svg>